{
.appVersion = "870";
DisplayStrings = (
n
);
date = "2016-03-11 05:41:28 +0000";
designer = Pablo;
familyName = Rin;
featurePrefixes = (
{
automatic = 1;
code = "languagesystem DFLT dflt;\012";
name = Languagesystems;
}
);
fontMaster = (
{
alignmentZones = (
"{846, 14}",
"{810, 14}",
"{538, 14}",
"{0, -14}",
"{-24, -14}",
"{-254, -14}"
);
ascender = 846;
capHeight = 810;
customParameters = (
{
name = typoAscender;
value = 972;
},
{
name = winAscent;
value = 972;
},
{
name = typoDescender;
value = -348;
},
{
name = winDescent;
value = -348;
},
{
name = typoLineGap;
value = 0;
},
{
name = unitizerUnit;
value = "10";
},
{
name = parametroArea;
value = "235";
},
{
name = parametroProfundidad;
value = "13";
},
{
name = parametroExcedente;
value = "0";
}
);
descender = -254;
guideLines = (
{
position = "{-181, -348}";
},
{
position = "{249, 972}";
}
);
id = "BE599D47-15C2-4DC8-BE97-05FFE6CA3179";
italicAngle = 16;
xHeight = 538;
}
);
glyphs = (
{
color = 1;
glyphname = A;
lastChange = "2016-04-03 04:18:10 +0000";
layers = (
{
background = {
paths = (
{
closed = 1;
nodes = (
"173 -50 OFFCURVE",
"208 78 OFFCURVE",
"226 125 CURVE SMOOTH",
"273 246 OFFCURVE",
"356 360 OFFCURVE",
"438 493 CURVE",
"441 493 LINE",
"442 480 OFFCURVE",
"443 468 OFFCURVE",
"443 456 CURVE SMOOTH",
"443 326 OFFCURVE",
"395 223 OFFCURVE",
"395 97 CURVE SMOOTH",
"395 -6 OFFCURVE",
"419 -62 OFFCURVE",
"507 -62 CURVE SMOOTH",
"583 -62 OFFCURVE",
"650 -27 OFFCURVE",
"702 18 CURVE",
"676 64 OFFCURVE",
"668 117 OFFCURVE",
"668 181 CURVE SMOOTH",
"668 356 OFFCURVE",
"718 518 OFFCURVE",
"718 644 CURVE SMOOTH",
"718 745 OFFCURVE",
"681 779 OFFCURVE",
"600 779 CURVE SMOOTH",
"487 779 OFFCURVE",
"377 767 OFFCURVE",
"295 736 CURVE",
"327 678 OFFCURVE",
"196 508 OFFCURVE",
"125 393 CURVE SMOOTH",
"40 268 OFFCURVE",
"-38 145 OFFCURVE",
"-38 49 CURVE SMOOTH",
"-38 -37 OFFCURVE",
"22 -62 OFFCURVE",
"174 -80 CURVE"
);
},
{
closed = 1;
nodes = (
"469 195 LINE",
"489 304 LINE",
"161 304 LINE",
"141 195 LINE"
);
}
);
};
layerId = "BE599D47-15C2-4DC8-BE97-05FFE6CA3179";
paths = (
{
closed = 1;
nodes = (
"173 -1 OFFCURVE",
"208 127 OFFCURVE",
"226 174 CURVE SMOOTH",
"273 296 OFFCURVE",
"356 409 OFFCURVE",
"438 543 CURVE",
"441 543 LINE",
"442 530 OFFCURVE",
"443 518 OFFCURVE",
"443 506 CURVE SMOOTH",
"443 376 OFFCURVE",
"395 272 OFFCURVE",
"395 146 CURVE SMOOTH",
"395 44 OFFCURVE",
"419 -12 OFFCURVE",
"507 -12 CURVE SMOOTH",
"583 -12 OFFCURVE",
"650 22 OFFCURVE",
"702 68 CURVE",
"676 113 OFFCURVE",
"668 167 OFFCURVE",
"668 230 CURVE SMOOTH",
"668 405 OFFCURVE",
"718 567 OFFCURVE",
"718 694 CURVE SMOOTH",
"718 794 OFFCURVE",
"681 829 OFFCURVE",
"600 829 CURVE SMOOTH",
"487 829 OFFCURVE",
"377 817 OFFCURVE",
"295 785 CURVE",
"327 727 OFFCURVE",
"196 558 OFFCURVE",
"125 443 CURVE SMOOTH",
"40 317 OFFCURVE",
"-38 194 OFFCURVE",
"-38 98 CURVE SMOOTH",
"-38 13 OFFCURVE",
"22 -12 OFFCURVE",
"174 -30 CURVE"
);
},
{
closed = 1;
nodes = (
"484 186 LINE",
"505 337 LINE",
"177 337 LINE",
"156 186 LINE"
);
}
);
width = 746;
},
{
associatedMasterId = "BE599D47-15C2-4DC8-BE97-05FFE6CA3179";
background = {
paths = (
{
closed = 1;
nodes = (
"319 271 OFFCURVE",
"280 225 OFFCURVE",
"228 225 CURVE SMOOTH",
"193 225 OFFCURVE",
"173 244 OFFCURVE",
"157 299 CURVE",
"38 265 OFFCURVE",
"-22 159 OFFCURVE",
"-22 60 CURVE SMOOTH",
"-22 -45 OFFCURVE",
"47 -94 OFFCURVE",
"128 -94 CURVE SMOOTH",
"189 -94 OFFCURVE",
"252 -66 OFFCURVE",
"313 26 CURVE SMOOTH",
"434 206 OFFCURVE",
"545 479 OFFCURVE",
"614 575 CURVE SMOOTH",
"630 598 OFFCURVE",
"647 610 OFFCURVE",
"660 610 CURVE SMOOTH",
"671 610 OFFCURVE",
"679 601 OFFCURVE",
"679 584 CURVE SMOOTH",
"679 577 OFFCURVE",
"678 574 OFFCURVE",
"676 568 CURVE SMOOTH",
"644 456 OFFCURVE",
"500 169 OFFCURVE",
"500 9 CURVE SMOOTH",
"500 -94 OFFCURVE",
"564 -141 OFFCURVE",
"652 -141 CURVE SMOOTH",
"730 -141 OFFCURVE",
"841 -104 OFFCURVE",
"912 -34 CURVE",
"865 -15 OFFCURVE",
"848 26 OFFCURVE",
"848 81 CURVE SMOOTH",
"848 234 OFFCURVE",
"984 489 OFFCURVE",
"984 624 CURVE SMOOTH",
"984 735 OFFCURVE",
"894 773 OFFCURVE",
"797 773 CURVE SMOOTH",
"638 773 OFFCURVE",
"555 689 OFFCURVE",
"419 446 CURVE SMOOTH"
);
},
{
closed = 1;
nodes = (
"360 235 LINE",
"675 235 LINE",
"693 320 LINE",
"378 320 LINE"
);
}
);
};
layerId = "F338CEEC-FB4F-4EA2-8628-1D3334EBA76A";
name = "Regular Italic Mar 25 16, 21:13";
paths = (
{
closed = 1;
nodes = (
"319 271 OFFCURVE",
"280 225 OFFCURVE",
"228 225 CURVE SMOOTH",
"193 225 OFFCURVE",
"173 244 OFFCURVE",
"157 299 CURVE",
"38 265 OFFCURVE",
"-22 159 OFFCURVE",
"-22 60 CURVE SMOOTH",
"-22 -45 OFFCURVE",
"47 -94 OFFCURVE",
"128 -94 CURVE SMOOTH",
"189 -94 OFFCURVE",
"252 -66 OFFCURVE",
"331 53 CURVE SMOOTH",
"434 206 OFFCURVE",
"534 463 OFFCURVE",
"606 565 CURVE SMOOTH",
"630 598 OFFCURVE",
"647 610 OFFCURVE",
"660 610 CURVE SMOOTH",
"671 610 OFFCURVE",
"679 601 OFFCURVE",
"679 584 CURVE SMOOTH",
"679 505 OFFCURVE",
"500 196 OFFCURVE",
"500 14 CURVE SMOOTH",
"500 -94 OFFCURVE",
"564 -141 OFFCURVE",
"652 -141 CURVE SMOOTH",
"733 -141 OFFCURVE",
"849 -104 OFFCURVE",
"920 -34 CURVE",
"873 -15 OFFCURVE",
"856 26 OFFCURVE",
"856 81 CURVE SMOOTH",
"848 234 OFFCURVE",
"984 489 OFFCURVE",
"992 624 CURVE SMOOTH",
"992 735 OFFCURVE",
"898 773 OFFCURVE",
"797 773 CURVE SMOOTH",
"638 773 OFFCURVE",
"555 689 OFFCURVE",
"419 446 CURVE SMOOTH"
);
},
{
closed = 1;
nodes = (
"360 235 LINE",
"675 235 LINE",
"693 320 LINE",
"378 320 LINE"
);
}
);
width = 960;
},
{
associatedMasterId = "BE599D47-15C2-4DC8-BE97-05FFE6CA3179";
background = {
paths = (
{
closed = 1;
nodes = (
"-32 14 OFFCURVE",
"8 -30 OFFCURVE",
"186 -62 CURVE",
"185 -44 OFFCURVE",
"208 22 OFFCURVE",
"215 48 CURVE SMOOTH",
"256 200 OFFCURVE",
"396 372 OFFCURVE",
"494 513 CURVE",
"481 521 LINE",
"486 334 OFFCURVE",
"392 189 OFFCURVE",
"420 26 CURVE SMOOTH",
"433 -47 OFFCURVE",
"469 -62 OFFCURVE",
"538 -62 CURVE SMOOTH",
"598 -62 OFFCURVE",
"666 -30 OFFCURVE",
"712 8 CURVE",
"703 26 OFFCURVE",
"695 46 OFFCURVE",
"691 72 CURVE SMOOTH",
"656 303 OFFCURVE",
"806 553 OFFCURVE",
"772 695 CURVE SMOOTH",
"757 757 OFFCURVE",
"713 773 OFFCURVE",
"653 773 CURVE SMOOTH",
"536 773 OFFCURVE",
"530 742 OFFCURVE",
"385 777 CURVE",
"330 583 OFFCURVE",
"70 320 OFFCURVE",
"16 158 CURVE SMOOTH"
);
},
{
closed = 1;
nodes = (
"197 235 LINE",
"511 235 LINE",
"531 320 LINE",
"217 320 LINE"
);
}
);
};
layerId = "66A671F9-7F48-4C16-93CB-3ACF993B3A6F";
name = "Regular Italic Mar 28 16, 05:23";
paths = (
{
closed = 1;
nodes = (
"-44 14 OFFCURVE",
"-1 -30 OFFCURVE",
"193 -62 CURVE",
"193 -44 OFFCURVE",
"215 22 OFFCURVE",
"222 48 CURVE SMOOTH",
"262 194 OFFCURVE",
"393 360 OFFCURVE",
"487 496 CURVE",
"490 496 LINE",
"494 319 OFFCURVE",
"400 181 OFFCURVE",
"427 26 CURVE SMOOTH",
"440 -47 OFFCURVE",
"476 -62 OFFCURVE",
"545 -62 CURVE SMOOTH",
"607 -62 OFFCURVE",
"678 -30 OFFCURVE",
"726 8 CURVE",
"717 26 OFFCURVE",
"709 46 OFFCURVE",
"705 72 CURVE SMOOTH",
"670 303 OFFCURVE",
"820 553 OFFCURVE",
"785 695 CURVE SMOOTH",
"769 757 OFFCURVE",
"723 773 OFFCURVE",
"660 773 CURVE SMOOTH",
"543 773 OFFCURVE",
"536 742 OFFCURVE",
"391 777 CURVE",
"335 583 OFFCURVE",
"65 320 OFFCURVE",
"8 158 CURVE SMOOTH"
);
},
{
closed = 1;
nodes = (
"182 203 LINE",
"511 203 LINE",
"531 312 LINE",
"202 312 LINE"
);
}
);
width = 760;
},
{
associatedMasterId = "BE599D47-15C2-4DC8-BE97-05FFE6CA3179";
background = {
paths = (
{
closed = 1;
nodes = (
"-44 14 OFFCURVE",
"-1 -30 OFFCURVE",
"193 -62 CURVE",
"193 -44 OFFCURVE",
"215 22 OFFCURVE",
"222 48 CURVE SMOOTH",
"262 194 OFFCURVE",
"393 360 OFFCURVE",
"487 496 CURVE",
"490 496 LINE",
"494 319 OFFCURVE",
"400 181 OFFCURVE",
"427 26 CURVE SMOOTH",
"440 -47 OFFCURVE",
"476 -62 OFFCURVE",
"545 -62 CURVE SMOOTH",
"607 -62 OFFCURVE",
"678 -30 OFFCURVE",
"726 8 CURVE",
"717 26 OFFCURVE",
"709 46 OFFCURVE",
"705 72 CURVE SMOOTH",
"670 303 OFFCURVE",
"820 553 OFFCURVE",
"785 695 CURVE SMOOTH",
"769 757 OFFCURVE",
"723 773 OFFCURVE",
"660 773 CURVE SMOOTH",
"543 773 OFFCURVE",
"536 742 OFFCURVE",
"391 777 CURVE",
"335 583 OFFCURVE",
"65 320 OFFCURVE",
"8 158 CURVE SMOOTH"
);
},
{
closed = 1;
nodes = (
"182 203 LINE",
"511 203 LINE",
"531 312 LINE",
"202 312 LINE"
);
}
);
};
layerId = "5712074A-C34A-4DB5-AD6F-C80BF40B468C";
name = "Regular Italic Mar 28 16, 05:28";
paths = (
{
closed = 1;
nodes = (
"193 -33 OFFCURVE",
"236 93 OFFCURVE",
"256 139 CURVE SMOOTH",
"312 257 OFFCURVE",
"398 367 OFFCURVE",
"487 496 CURVE",
"490 496 LINE",
"493 338 OFFCURVE",
"423 227 OFFCURVE",
"423 77 CURVE SMOOTH",
"423 -14 OFFCURVE",
"448 -62 OFFCURVE",
"539 -62 CURVE SMOOTH",
"610 -62 OFFCURVE",
"674 -32 OFFCURVE",
"726 8 CURVE",
"705 51 OFFCURVE",
"699 92 OFFCURVE",
"699 141 CURVE SMOOTH",
"699 336 OFFCURVE",
"790 514 OFFCURVE",
"790 649 CURVE SMOOTH",
"790 742 OFFCURVE",
"747 773 OFFCURVE",
"653 773 CURVE SMOOTH",
"592 773 OFFCURVE",
"553 760 OFFCURVE",
"505 760 CURVE SMOOTH",
"478 760 OFFCURVE",
"443 764 OFFCURVE",
"391 777 CURVE",
"323 543 OFFCURVE",
"-12 259 OFFCURVE",
"-12 70 CURVE SMOOTH",
"-12 -10 OFFCURVE",
"47 -37 OFFCURVE",
"193 -62 CURVE"
);
},
{
closed = 1;
nodes = (
"511 203 LINE",
"531 312 LINE",
"202 312 LINE",
"182 203 LINE"
);
}
);
width = 760;
},
{
associatedMasterId = "BE599D47-15C2-4DC8-BE97-05FFE6CA3179";
background = {
paths = (
{
closed = 1;
nodes = (
"-49 14 OFFCURVE",
"-6 -30 OFFCURVE",
"189 -62 CURVE",
"188 -44 OFFCURVE",
"210 22 OFFCURVE",
"217 48 CURVE SMOOTH",
"257 194 OFFCURVE",
"388 360 OFFCURVE",
"482 496 CURVE",
"485 496 LINE",
"489 319 OFFCURVE",
"395 181 OFFCURVE",
"423 26 CURVE SMOOTH",
"435 -47 OFFCURVE",
"471 -62 OFFCURVE",
"540 -62 CURVE SMOOTH",
"602 -62 OFFCURVE",
"673 -30 OFFCURVE",
"721 8 CURVE",
"712 26 OFFCURVE",
"704 46 OFFCURVE",
"700 72 CURVE SMOOTH",
"665 303 OFFCURVE",
"815 553 OFFCURVE",
"781 695 CURVE SMOOTH",
"765 757 OFFCURVE",
"718 773 OFFCURVE",
"655 773 CURVE SMOOTH",
"538 773 OFFCURVE",
"531 742 OFFCURVE",
"386 777 CURVE",
"330 583 OFFCURVE",
"60 320 OFFCURVE",
"3 158 CURVE SMOOTH"
);
},
{
closed = 1;
nodes = (
"177 203 LINE",
"506 203 LINE",
"526 312 LINE",
"197 312 LINE"
);
}
);
};
layerId = "0C6A4436-E03B-45C0-AD49-6A3736D3407A";
name = "Regular Italic Mar 28 16, 05:31";
paths = (
{
closed = 1;
nodes = (
"193 -50 OFFCURVE",
"229 78 OFFCURVE",
"247 125 CURVE SMOOTH",
"294 246 OFFCURVE",
"376 360 OFFCURVE",
"459 493 CURVE",
"462 493 LINE",
"473 336 OFFCURVE",
"408 221 OFFCURVE",
"416 71 CURVE SMOOTH",
"421 -20 OFFCURVE",
"449 -66 OFFCURVE",
"539 -62 CURVE SMOOTH",
"611 -58 OFFCURVE",
"674 -25 OFFCURVE",
"722 18 CURVE",
"699 60 OFFCURVE",
"692 101 OFFCURVE",
"690 149 CURVE SMOOTH",
"680 344 OFFCURVE",
"761 527 OFFCURVE",
"753 662 CURVE SMOOTH",
"749 755 OFFCURVE",
"704 783 OFFCURVE",
"610 778 CURVE SMOOTH",
"549 775 OFFCURVE",
"511 761 OFFCURVE",
"463 757 CURVE SMOOTH",
"435 756 OFFCURVE",
"401 758 OFFCURVE",
"348 768 CURVE",
"320 651 OFFCURVE",
"230 519 OFFCURVE",
"145 393 CURVE SMOOTH",
"58 262 OFFCURVE",
"-22 137 OFFCURVE",
"-18 41 CURVE SMOOTH",
"-14 -38 OFFCURVE",
"47 -62 OFFCURVE",
"195 -80 CURVE"
);
},
{
closed = 1;
nodes = (
"490 195 LINE",
"510 304 LINE",
"181 304 LINE",
"161 195 LINE"
);
}
);
width = 750;
},
{
associatedMasterId = "BE599D47-15C2-4DC8-BE97-05FFE6CA3179";
background = {
paths = (
{
closed = 1;
nodes = (
"193 -50 OFFCURVE",
"229 78 OFFCURVE",
"247 125 CURVE SMOOTH",
"294 246 OFFCURVE",
"376 360 OFFCURVE",
"459 493 CURVE",
"462 493 LINE",
"463 480 OFFCURVE",
"463 468 OFFCURVE",
"463 456 CURVE SMOOTH",
"463 326 OFFCURVE",
"415 223 OFFCURVE",
"415 97 CURVE SMOOTH",
"415 -6 OFFCURVE",
"439 -62 OFFCURVE",
"527 -62 CURVE SMOOTH",
"604 -62 OFFCURVE",
"670 -27 OFFCURVE",
"722 18 CURVE",
"697 64 OFFCURVE",
"689 117 OFFCURVE",
"689 181 CURVE SMOOTH",
"689 356 OFFCURVE",
"754 518 OFFCURVE",
"754 644 CURVE SMOOTH",
"754 745 OFFCURVE",
"715 779 OFFCURVE",
"629 779 CURVE SMOOTH",
"473 779 OFFCURVE",
"423 776 OFFCURVE",
"348 768 CURVE",
"320 651 OFFCURVE",
"230 519 OFFCURVE",
"145 393 CURVE SMOOTH",
"61 268 OFFCURVE",
"-18 145 OFFCURVE",
"-18 49 CURVE SMOOTH",
"-18 -37 OFFCURVE",
"42 -62 OFFCURVE",
"195 -80 CURVE"
);
},
{
closed = 1;
nodes = (
"490 195 LINE",
"510 304 LINE",
"181 304 LINE",
"161 195 LINE"
);
}
);
};
layerId = "CA961428-86AA-4AB8-8952-31052F681C2C";
name = "Regular Italic Mar 28 16, 05:33";
paths = (
{
closed = 1;
nodes = (
"193 -50 OFFCURVE",
"229 78 OFFCURVE",
"247 125 CURVE SMOOTH",
"294 246 OFFCURVE",
"376 360 OFFCURVE",
"459 493 CURVE",
"462 493 LINE",
"463 480 OFFCURVE",
"463 468 OFFCURVE",
"463 456 CURVE SMOOTH",
"463 326 OFFCURVE",
"415 223 OFFCURVE",
"415 97 CURVE SMOOTH",
"415 -6 OFFCURVE",
"439 -62 OFFCURVE",
"527 -62 CURVE SMOOTH",
"604 -62 OFFCURVE",
"670 -27 OFFCURVE",
"722 18 CURVE",
"697 64 OFFCURVE",
"689 117 OFFCURVE",
"689 181 CURVE SMOOTH",
"689 356 OFFCURVE",
"754 518 OFFCURVE",
"754 644 CURVE SMOOTH",
"754 745 OFFCURVE",
"715 779 OFFCURVE",
"629 779 CURVE SMOOTH",
"550 779 OFFCURVE",
"507 757 OFFCURVE",
"447 757 CURVE SMOOTH",
"423 757 OFFCURVE",
"392 760 OFFCURVE",
"348 768 CURVE",
"320 651 OFFCURVE",
"230 519 OFFCURVE",
"145 393 CURVE SMOOTH",
"61 268 OFFCURVE",
"-18 145 OFFCURVE",
"-18 49 CURVE SMOOTH",
"-18 -37 OFFCURVE",
"42 -62 OFFCURVE",
"195 -80 CURVE"
);
},
{
closed = 1;
nodes = (
"490 195 LINE",
"510 304 LINE",
"181 304 LINE",
"161 195 LINE"
);
}
);
width = 750;
},
{
associatedMasterId = "BE599D47-15C2-4DC8-BE97-05FFE6CA3179";
background = {
paths = (
{
closed = 1;
nodes = (
"187 -50 OFFCURVE",
"222 78 OFFCURVE",
"241 125 CURVE SMOOTH",
"288 246 OFFCURVE",
"370 360 OFFCURVE",
"452 493 CURVE",
"455 493 LINE",
"456 480 OFFCURVE",
"457 468 OFFCURVE",
"457 456 CURVE SMOOTH",
"457 326 OFFCURVE",
"409 223 OFFCURVE",
"409 97 CURVE SMOOTH",
"409 -6 OFFCURVE",
"433 -62 OFFCURVE",
"521 -62 CURVE SMOOTH",
"598 -62 OFFCURVE",
"664 -27 OFFCURVE",
"716 18 CURVE",
"690 64 OFFCURVE",
"682 117 OFFCURVE",
"682 181 CURVE SMOOTH",
"682 356 OFFCURVE",
"748 518 OFFCURVE",
"748 644 CURVE SMOOTH",
"748 745 OFFCURVE",
"709 779 OFFCURVE",
"622 779 CURVE SMOOTH",
"543 779 OFFCURVE",
"501 757 OFFCURVE",
"440 757 CURVE SMOOTH",
"416 757 OFFCURVE",
"385 760 OFFCURVE",
"341 768 CURVE",
"314 651 OFFCURVE",
"224 519 OFFCURVE",
"139 393 CURVE SMOOTH",
"54 268 OFFCURVE",
"-24 145 OFFCURVE",
"-24 49 CURVE SMOOTH",
"-24 -37 OFFCURVE",
"36 -62 OFFCURVE",
"189 -80 CURVE"
);
},
{
closed = 1;
nodes = (
"483 195 LINE",
"503 304 LINE",
"175 304 LINE",
"155 195 LINE"
);
}
);
};
layerId = "91D9C0AA-863E-4433-BE0E-35712C1D4481";
name = "Regular Italic Apr 1 16, 22:39";
paths = (
{
closed = 1;
nodes = (
"187 -50 OFFCURVE",
"222 78 OFFCURVE",
"241 125 CURVE SMOOTH",
"288 246 OFFCURVE",
"370 360 OFFCURVE",
"452 493 CURVE",
"455 493 LINE",
"456 480 OFFCURVE",
"457 468 OFFCURVE",
"457 456 CURVE SMOOTH",
"457 326 OFFCURVE",
"409 223 OFFCURVE",
"409 97 CURVE SMOOTH",
"409 -6 OFFCURVE",
"433 -62 OFFCURVE",
"521 -62 CURVE SMOOTH",
"598 -62 OFFCURVE",
"664 -27 OFFCURVE",
"716 18 CURVE",
"690 64 OFFCURVE",
"682 117 OFFCURVE",
"682 181 CURVE SMOOTH",
"682 356 OFFCURVE",
"732 518 OFFCURVE",
"732 644 CURVE SMOOTH",
"732 745 OFFCURVE",
"695 779 OFFCURVE",
"614 779 CURVE SMOOTH",
"501 779 OFFCURVE",
"392 767 OFFCURVE",
"309 736 CURVE",
"341 678 OFFCURVE",
"210 508 OFFCURVE",
"139 393 CURVE SMOOTH",
"54 268 OFFCURVE",
"-24 145 OFFCURVE",
"-24 49 CURVE SMOOTH",
"-24 -37 OFFCURVE",
"36 -62 OFFCURVE",
"189 -80 CURVE"
);
},
{
closed = 1;
nodes = (
"483 195 LINE",
"503 304 LINE",
"175 304 LINE",
"155 195 LINE"
);
}
);
width = 772;
}
);
unicode = 0041;
},
{
color = 1;
glyphname = Aring;
lastChange = "2016-04-03 04:18:10 +0000";
layers = (
{
components = (
{
name = A;
}
);
layerId = "BE599D47-15C2-4DC8-BE97-05FFE6CA3179";
paths = (
{
closed = 1;
nodes = (
"583 769 OFFCURVE",
"665 833 OFFCURVE",
"665 898 CURVE SMOOTH",
"665 931 OFFCURVE",
"644 972 OFFCURVE",
"571 972 CURVE SMOOTH",
"475 972 OFFCURVE",
"384 902 OFFCURVE",
"384 833 CURVE SMOOTH",
"384 793 OFFCURVE",
"415 769 OFFCURVE",
"479 769 CURVE SMOOTH"
);
},
{
closed = 1;
nodes = (
"492 837 OFFCURVE",
"483 845 OFFCURVE",
"483 858 CURVE SMOOTH",
"483 881 OFFCURVE",
"510 904 OFFCURVE",
"538 904 CURVE SMOOTH",
"559 904 OFFCURVE",
"566 891 OFFCURVE",
"566 880 CURVE SMOOTH",
"566 858 OFFCURVE",
"542 837 OFFCURVE",
"511 837 CURVE SMOOTH"
);
}
);
width = 746;
}
);
unicode = 00C5;
},
{
color = 1;
glyphname = B;
lastChange = "2016-04-03 04:18:10 +0000";
layers = (
{
background = {
paths = (
{
closed = 1;
nodes = (
"287 773 LINE SMOOTH",
"208 773 OFFCURVE",
"143 761 OFFCURVE",
"104 598 CURVE",
"159 598 OFFCURVE",
"172 590 OFFCURVE",
"172 547 CURVE SMOOTH",
"172 404 OFFCURVE",
"21 206 OFFCURVE",
"21 89 CURVE SMOOTH",
"21 -39 OFFCURVE",
"176 -63 OFFCURVE",
"356 -63 CURVE SMOOTH",
"533 -63 OFFCURVE",
"713 49 OFFCURVE",
"741 200 CURVE SMOOTH",
"762 311 OFFCURVE",
"726 473 OFFCURVE",
"273 412 CURVE",
"233 261 LINE",
"410 286 OFFCURVE",
"472 275 OFFCURVE",
"472 213 CURVE SMOOTH",
"472 179 OFFCURVE",
"448 141 OFFCURVE",
"328 141 CURVE SMOOTH",
"306 141 OFFCURVE",
"284 149 OFFCURVE",
"284 170 CURVE SMOOTH",
"284 227 OFFCURVE",
"429 531 OFFCURVE",
"471 610 CURVE",
"369 559 LINE",
"424 576 OFFCURVE",
"454 578 OFFCURVE",
"466 578 CURVE SMOOTH",
"498 578 OFFCURVE",
"539 558 OFFCURVE",
"528 511 CURVE SMOOTH",
"513 446 OFFCURVE",
"491 423 OFFCURVE",
"409 388 CURVE",
"566 328 LINE",
"687 378 OFFCURVE",
"772 480 OFFCURVE",
"772 566 CURVE SMOOTH",
"772 686 OFFCURVE",
"668 773 OFFCURVE",
"502 773 CURVE"
);
}
);
};
layerId = "BE599D47-15C2-4DC8-BE97-05FFE6CA3179";
paths = (
{
closed = 1;
nodes = (
"21 28 OFFCURVE",
"160 -14 OFFCURVE",
"309 -14 CURVE SMOOTH",
"538 -14 OFFCURVE",
"745 95 OFFCURVE",
"745 293 CURVE SMOOTH",
"745 344 OFFCURVE",
"727 397 OFFCURVE",
"662 434 CURVE",
"729 487 OFFCURVE",
"772 555 OFFCURVE",
"772 615 CURVE SMOOTH",
"772 735 OFFCURVE",
"668 822 OFFCURVE",
"502 822 CURVE SMOOTH",
"287 822 LINE SMOOTH",
"208 822 OFFCURVE",
"143 810 OFFCURVE",
"104 647 CURVE",
"159 647 OFFCURVE",
"172 639 OFFCURVE",
"172 596 CURVE SMOOTH",
"172 453 OFFCURVE",
"21 256 OFFCURVE",
"21 139 CURVE SMOOTH"
);
},
{
closed = 1;
nodes = (
"285 247 OFFCURVE",
"301 289 OFFCURVE",
"313 318 CURVE",
"338 320 OFFCURVE",
"359 320 OFFCURVE",
"377 320 CURVE SMOOTH",
"450 320 OFFCURVE",
"471 305 OFFCURVE",
"471 264 CURVE SMOOTH",
"471 226 OFFCURVE",
"449 191 OFFCURVE",
"332 191 CURVE SMOOTH",
"310 191 OFFCURVE",
"285 197 OFFCURVE",
"285 222 CURVE SMOOTH"
);
},
{
closed = 1;
nodes = (
"407 531 OFFCURVE",
"434 588 OFFCURVE",
"454 627 CURVE",
"466 627 LINE SMOOTH",
"494 627 OFFCURVE",
"530 611 OFFCURVE",
"530 575 CURVE SMOOTH",
"530 571 OFFCURVE",
"530 566 OFFCURVE",
"528 560 CURVE",
"518 519 OFFCURVE",
"506 495 OFFCURVE",
"478 475 CURVE",
"450 475 LINE SMOOTH",
"429 475 OFFCURVE",
"406 474 OFFCURVE",
"381 473 CURVE"
);
}
);
width = 747;
},
{
associatedMasterId = "BE599D47-15C2-4DC8-BE97-05FFE6CA3179";
background = {
paths = (
{
closed = 1;
nodes = (
"597 -63 OFFCURVE",
"820 191 OFFCURVE",
"820 463 CURVE SMOOTH",
"820 658 OFFCURVE",
"707 773 OFFCURVE",
"495 773 CURVE SMOOTH",
"280 773 LINE SMOOTH",
"201 773 OFFCURVE",
"136 761 OFFCURVE",
"97 598 CURVE",
"152 598 OFFCURVE",
"165 590 OFFCURVE",
"165 547 CURVE SMOOTH",
"165 404 OFFCURVE",
"14 206 OFFCURVE",
"14 89 CURVE SMOOTH",
"14 -15 OFFCURVE",
"130 -63 OFFCURVE",
"271 -63 CURVE SMOOTH"
);
},
{
closed = 1;
nodes = (
"308 141 OFFCURVE",
"287 149 OFFCURVE",
"287 170 CURVE SMOOTH",
"287 225 OFFCURVE",
"423 516 OFFCURVE",
"463 591 CURVE",
"364 547 LINE",
"419 564 OFFCURVE",
"449 566 OFFCURVE",
"460 566 CURVE SMOOTH",
"508 566 OFFCURVE",
"535 537 OFFCURVE",
"535 467 CURVE SMOOTH",
"535 335 OFFCURVE",
"440 141 OFFCURVE",
"331 141 CURVE SMOOTH"
);
}
);
};
layerId = "380EF5FB-E096-494B-B813-F80B22F603C4";
name = "Regular Italic Mar 26 16, 00:49";
paths = (
{
closed = 1;
nodes = (
"280 773 LINE SMOOTH",
"201 773 OFFCURVE",
"136 761 OFFCURVE",
"97 598 CURVE",
"152 598 OFFCURVE",
"165 590 OFFCURVE",
"165 547 CURVE SMOOTH",
"165 404 OFFCURVE",
"14 206 OFFCURVE",
"14 89 CURVE SMOOTH",
"14 -39 OFFCURVE",
"169 -63 OFFCURVE",
"349 -63 CURVE SMOOTH",
"526 -63 OFFCURVE",
"706 40 OFFCURVE",
"734 191 CURVE SMOOTH",
"753 291 OFFCURVE",
"642 393 OFFCURVE",
"288 404 CURVE",
"233 260 LINE",
"245 261 OFFCURVE",
"256 261 OFFCURVE",
"266 261 CURVE SMOOTH",
"411 261 OFFCURVE",
"457 238 OFFCURVE",
"457 213 CURVE SMOOTH",
"457 179 OFFCURVE",
"448 141 OFFCURVE",
"321 141 CURVE SMOOTH",
"299 141 OFFCURVE",
"277 149 OFFCURVE",
"277 170 CURVE SMOOTH",
"277 227 OFFCURVE",
"422 531 OFFCURVE",
"464 610 CURVE",
"362 559 LINE",
"417 576 OFFCURVE",
"447 578 OFFCURVE",
"459 578 CURVE SMOOTH",
"486 578 OFFCURVE",
"503 558 OFFCURVE",
"503 510 CURVE SMOOTH",
"503 443 OFFCURVE",
"443 407 OFFCURVE",
"367 407 CURVE SMOOTH",
"330 407 OFFCURVE",
"295 414 OFFCURVE",
"245 424 CURVE",
"189 268 LINE",
"236 245 OFFCURVE",
"297 234 OFFCURVE",
"364 234 CURVE SMOOTH",
"594 234 OFFCURVE",
"773 344 OFFCURVE",
"773 542 CURVE SMOOTH",
"773 675 OFFCURVE",
"666 773 OFFCURVE",
"495 773 CURVE"
);
}
);
width = 831;
},
{
associatedMasterId = "BE599D47-15C2-4DC8-BE97-05FFE6CA3179";
background = {
paths = (
{
closed = 1;
nodes = (
"196 272 OFFCURVE",
"236 266 OFFCURVE",
"360 266 CURVE SMOOTH",
"550 266 OFFCURVE",
"652 280 OFFCURVE",
"656 388 CURVE SMOOTH",
"657 412 OFFCURVE",
"654 434 OFFCURVE",
"642 461 CURVE",
"556 443 OFFCURVE",
"488 431 OFFCURVE",
"296 431 CURVE SMOOTH",
"228 431 OFFCURVE",
"201 402 OFFCURVE",
"199 348 CURVE SMOOTH"
);
},
{
closed = 1;
nodes = (
"11 -29 OFFCURVE",
"129 -63 OFFCURVE",
"355 -63 CURVE SMOOTH",
"518 -63 OFFCURVE",
"652 -46 OFFCURVE",
"652 117 CURVE SMOOTH",
"652 143 OFFCURVE",
"649 169 OFFCURVE",
"634 193 CURVE",
"602 164 OFFCURVE",
"502 133 OFFCURVE",
"405 133 CURVE SMOOTH",
"365 133 OFFCURVE",
"328 137 OFFCURVE",
"310 144 CURVE SMOOTH",
"292 150 OFFCURVE",
"287 160 OFFCURVE",
"287 170 CURVE SMOOTH",
"287 221 OFFCURVE",
"411 475 OFFCURVE",
"451 550 CURVE",
"465 549 OFFCURVE",
"480 548 OFFCURVE",
"497 548 CURVE SMOOTH",
"690 548 OFFCURVE",
"817 575 OFFCURVE",
"817 703 CURVE SMOOTH",
"817 730 OFFCURVE",
"812 758 OFFCURVE",
"800 787 CURVE",
"717 761 OFFCURVE",
"643 753 OFFCURVE",
"584 753 CURVE SMOOTH",
"492 753 OFFCURVE",
"385 773 OFFCURVE",
"280 773 CURVE SMOOTH",
"201 773 OFFCURVE",
"136 761 OFFCURVE",
"97 598 CURVE",
"152 598 OFFCURVE",
"165 590 OFFCURVE",
"165 547 CURVE SMOOTH",
"165 404 OFFCURVE",
"16 209 OFFCURVE",
"14 84 CURVE SMOOTH"
);
}
);
};
layerId = "DC25D6E3-B0D0-457D-9D94-58E22B558085";
name = "Regular Italic Mar 26 16, 00:52";
paths = (
{
closed = 1;
nodes = (
"280 773 LINE SMOOTH",
"201 773 OFFCURVE",
"136 761 OFFCURVE",
"97 598 CURVE",
"152 598 OFFCURVE",
"165 590 OFFCURVE",
"165 547 CURVE SMOOTH",
"165 404 OFFCURVE",
"14 206 OFFCURVE",
"14 89 CURVE SMOOTH",
"14 -39 OFFCURVE",
"169 -63 OFFCURVE",
"349 -63 CURVE SMOOTH",
"526 -63 OFFCURVE",
"706 49 OFFCURVE",
"734 200 CURVE SMOOTH",
"753 311 OFFCURVE",
"719 473 OFFCURVE",
"266 412 CURVE",
"226 261 LINE",
"403 286 OFFCURVE",
"465 275 OFFCURVE",
"465 213 CURVE SMOOTH",
"465 179 OFFCURVE",
"441 141 OFFCURVE",
"321 141 CURVE SMOOTH",
"299 141 OFFCURVE",
"277 149 OFFCURVE",
"277 170 CURVE SMOOTH",
"277 227 OFFCURVE",
"422 531 OFFCURVE",
"464 610 CURVE",
"362 559 LINE",
"417 576 OFFCURVE",
"447 578 OFFCURVE",
"459 578 CURVE SMOOTH",
"491 578 OFFCURVE",
"532 558 OFFCURVE",
"521 511 CURVE SMOOTH",
"506 446 OFFCURVE",
"484 423 OFFCURVE",
"402 388 CURVE",
"559 328 LINE",
"680 378 OFFCURVE",
"765 480 OFFCURVE",
"765 566 CURVE SMOOTH",
"765 686 OFFCURVE",
"661 773 OFFCURVE",
"495 773 CURVE"
);
}
);
width = 831;
},
{
associatedMasterId = "BE599D47-15C2-4DC8-BE97-05FFE6CA3179";
background = {
paths = (
{
closed = 1;
nodes = (
"280 773 LINE SMOOTH",
"201 773 OFFCURVE",
"136 761 OFFCURVE",
"97 598 CURVE",
"152 598 OFFCURVE",
"165 590 OFFCURVE",
"165 547 CURVE SMOOTH",
"165 404 OFFCURVE",
"14 206 OFFCURVE",
"14 89 CURVE SMOOTH",
"14 -39 OFFCURVE",
"169 -63 OFFCURVE",
"349 -63 CURVE SMOOTH",
"526 -63 OFFCURVE",
"706 49 OFFCURVE",
"734 200 CURVE SMOOTH",
"755 311 OFFCURVE",
"719 473 OFFCURVE",
"266 412 CURVE",
"226 261 LINE",
"403 286 OFFCURVE",
"465 275 OFFCURVE",
"465 213 CURVE SMOOTH",
"465 179 OFFCURVE",
"441 141 OFFCURVE",
"321 141 CURVE SMOOTH",
"299 141 OFFCURVE",
"277 149 OFFCURVE",
"277 170 CURVE SMOOTH",
"277 227 OFFCURVE",
"422 531 OFFCURVE",
"464 610 CURVE",
"362 559 LINE",
"417 576 OFFCURVE",
"447 578 OFFCURVE",
"459 578 CURVE SMOOTH",
"491 578 OFFCURVE",
"532 558 OFFCURVE",
"521 511 CURVE SMOOTH",
"506 446 OFFCURVE",
"484 423 OFFCURVE",
"402 388 CURVE",
"559 328 LINE",
"680 378 OFFCURVE",
"765 480 OFFCURVE",
"765 566 CURVE SMOOTH",
"765 686 OFFCURVE",
"661 773 OFFCURVE",
"495 773 CURVE"
);
}
);
};
layerId = "9E2D2D0E-4977-49D1-9880-B962125E7189";
name = "Regular Italic Mar 26 16, 00:56";
paths = (
{
closed = 1;
nodes = (
"14 -39 OFFCURVE",
"169 -63 OFFCURVE",
"349 -63 CURVE SMOOTH",
"526 -63 OFFCURVE",
"706 49 OFFCURVE",
"734 200 CURVE SMOOTH",
"746 268 OFFCURVE",
"738 355 OFFCURVE",
"625 399 CURVE",
"633 368 LINE",
"713 422 OFFCURVE",
"765 499 OFFCURVE",
"765 566 CURVE SMOOTH",
"765 686 OFFCURVE",
"661 773 OFFCURVE",
"495 773 CURVE SMOOTH",
"280 773 LINE SMOOTH",
"201 773 OFFCURVE",
"136 761 OFFCURVE",
"97 598 CURVE",
"152 598 OFFCURVE",
"165 590 OFFCURVE",
"165 547 CURVE SMOOTH",
"165 404 OFFCURVE",
"14 206 OFFCURVE",
"14 89 CURVE SMOOTH"
);
},
{
closed = 1;
nodes = (
"396 474 OFFCURVE",
"433 550 OFFCURVE",
"455 593 CURVE",
"412 577 LINE",
"459 578 LINE SMOOTH",
"491 578 OFFCURVE",
"532 558 OFFCURVE",
"521 511 CURVE SMOOTH",
"509 460 OFFCURVE",
"494 435 OFFCURVE",
"449 411 CURVE",
"492 424 LINE",
"451 426 OFFCURVE",
"403 426 OFFCURVE",
"345 421 CURVE",
"363 398 LINE"
);
},
{
closed = 1;
nodes = (
"300 141 OFFCURVE",
"279 149 OFFCURVE",
"278 171 CURVE SMOOTH",
"277 201 OFFCURVE",
"303 261 OFFCURVE",
"314 286 CURVE",
"226 261 LINE",
"416 280 OFFCURVE",
"464 276 OFFCURVE",
"464 214 CURVE SMOOTH",
"464 176 OFFCURVE",
"441 141 OFFCURVE",
"321 141 CURVE SMOOTH"
);
}
);
width = 831;
},
{
associatedMasterId = "BE599D47-15C2-4DC8-BE97-05FFE6CA3179";
background = {
paths = (
{
closed = 1;
nodes = (
"320 773 LINE SMOOTH",
"241 773 OFFCURVE",
"176 761 OFFCURVE",
"137 598 CURVE",
"192 598 OFFCURVE",
"205 590 OFFCURVE",
"205 547 CURVE SMOOTH",
"205 404 OFFCURVE",
"54 206 OFFCURVE",
"54 89 CURVE SMOOTH",
"54 -39 OFFCURVE",
"209 -63 OFFCURVE",
"389 -63 CURVE SMOOTH",
"566 -63 OFFCURVE",
"746 49 OFFCURVE",
"774 200 CURVE SMOOTH",
"795 311 OFFCURVE",
"759 473 OFFCURVE",
"306 412 CURVE",
"266 261 LINE",
"443 286 OFFCURVE",
"505 275 OFFCURVE",
"505 213 CURVE SMOOTH",
"505 179 OFFCURVE",
"481 141 OFFCURVE",
"361 141 CURVE SMOOTH",
"339 141 OFFCURVE",
"317 149 OFFCURVE",
"317 170 CURVE SMOOTH",
"317 227 OFFCURVE",
"462 531 OFFCURVE",
"504 610 CURVE",
"402 559 LINE",
"457 576 OFFCURVE",
"487 578 OFFCURVE",
"499 578 CURVE SMOOTH",
"531 578 OFFCURVE",
"572 558 OFFCURVE",
"561 511 CURVE SMOOTH",
"546 446 OFFCURVE",
"524 423 OFFCURVE",
"442 388 CURVE",
"599 328 LINE",
"720 378 OFFCURVE",
"805 480 OFFCURVE",
"805 566 CURVE SMOOTH",
"805 686 OFFCURVE",
"701 773 OFFCURVE",
"535 773 CURVE"
);
}
);
};
layerId = "BEEECADA-6412-4ADD-9B0F-94B94D5FFAB6";
name = "Regular Italic Mar 27 16, 16:25";
paths = (
{
closed = 1;
nodes = (
"54 -22 OFFCURVE",
"193 -63 OFFCURVE",
"342 -63 CURVE SMOOTH",
"571 -63 OFFCURVE",
"778 46 OFFCURVE",
"778 244 CURVE SMOOTH",
"778 301 OFFCURVE",
"754 364 OFFCURVE",
"665 399 CURVE",
"673 368 LINE",
"753 422 OFFCURVE",
"805 499 OFFCURVE",
"805 566 CURVE SMOOTH",
"805 686 OFFCURVE",
"701 773 OFFCURVE",
"535 773 CURVE SMOOTH",
"320 773 LINE SMOOTH",
"241 773 OFFCURVE",
"176 761 OFFCURVE",
"137 598 CURVE",
"192 598 OFFCURVE",
"205 590 OFFCURVE",
"205 547 CURVE SMOOTH",
"205 404 OFFCURVE",
"54 206 OFFCURVE",
"54 89 CURVE SMOOTH"
);
},
{
closed = 1;
nodes = (
"436 474 OFFCURVE",
"473 550 OFFCURVE",
"495 593 CURVE",
"451 577 LINE",
"499 578 LINE SMOOTH",
"527 578 OFFCURVE",
"563 562 OFFCURVE",
"563 526 CURVE SMOOTH",
"563 521 OFFCURVE",
"563 516 OFFCURVE",
"561 511 CURVE SMOOTH",
"549 460 OFFCURVE",
"534 435 OFFCURVE",
"489 411 CURVE",
"532 424 LINE",
"517 425 OFFCURVE",
"501 425 OFFCURVE",
"483 425 CURVE SMOOTH",
"454 425 OFFCURVE",
"422 424 OFFCURVE",
"385 421 CURVE",
"403 398 LINE"
);
},
{
closed = 1;
nodes = (
"343 141 OFFCURVE",
"318 147 OFFCURVE",
"318 173 CURVE SMOOTH",
"318 203 OFFCURVE",
"343 261 OFFCURVE",
"354 286 CURVE",
"266 261 LINE",
"328 268 OFFCURVE",
"376 271 OFFCURVE",
"410 271 CURVE SMOOTH",
"483 271 OFFCURVE",
"504 256 OFFCURVE",
"504 214 CURVE SMOOTH",
"504 177 OFFCURVE",
"482 141 OFFCURVE",
"365 141 CURVE SMOOTH"
);
}
);
width = 801;
}
);
unicode = 0042;
},
{
color = 1;
glyphname = C;
lastChange = "2016-04-03 04:18:10 +0000";
layers = (
{
background = {
paths = (
{
closed = 1;
nodes = (
"28 30 OFFCURVE",
"151 -73 OFFCURVE",
"370 -73 CURVE SMOOTH",
"546 -73 OFFCURVE",
"716 -6 OFFCURVE",
"716 146 CURVE SMOOTH",
"716 172 OFFCURVE",
"711 207 OFFCURVE",
"689 252 CURVE",
"628 190 OFFCURVE",
"534 157 OFFCURVE",
"440 157 CURVE SMOOTH",
"406 157 OFFCURVE",
"345 176 OFFCURVE",
"345 266 CURVE SMOOTH",
"345 382 OFFCURVE",
"445 586 OFFCURVE",
"548 586 CURVE SMOOTH",
"582 586 OFFCURVE",
"595 563 OFFCURVE",
"595 531 CURVE SMOOTH",
"595 484 OFFCURVE",
"569 431 OFFCURVE",
"527 384 CURVE",
"558 367 OFFCURVE",
"590 359 OFFCURVE",
"621 359 CURVE SMOOTH",
"723 359 OFFCURVE",
"815 443 OFFCURVE",
"815 567 CURVE SMOOTH",
"815 699 OFFCURVE",
"714 773 OFFCURVE",
"553 773 CURVE SMOOTH",
"266 773 OFFCURVE",
"28 539 OFFCURVE",
"28 245 CURVE SMOOTH"
);
}
);
};
layerId = "BE599D47-15C2-4DC8-BE97-05FFE6CA3179";
paths = (
{
closed = 1;
nodes = (
"36 80 OFFCURVE",
"155 -23 OFFCURVE",
"370 -23 CURVE SMOOTH",
"542 -23 OFFCURVE",
"708 43 OFFCURVE",
"708 196 CURVE SMOOTH",
"708 221 OFFCURVE",
"703 256 OFFCURVE",
"681 301 CURVE",
"620 240 OFFCURVE",
"531 207 OFFCURVE",
"440 207 CURVE SMOOTH",
"406 207 OFFCURVE",
"345 225 OFFCURVE",
"345 316 CURVE SMOOTH",
"345 431 OFFCURVE",
"445 635 OFFCURVE",
"548 635 CURVE SMOOTH",
"582 635 OFFCURVE",
"595 612 OFFCURVE",
"595 580 CURVE SMOOTH",
"595 534 OFFCURVE",
"569 480 OFFCURVE",
"527 434 CURVE",
"558 416 OFFCURVE",
"590 408 OFFCURVE",
"621 408 CURVE SMOOTH",
"719 408 OFFCURVE",
"807 493 OFFCURVE",
"807 617 CURVE SMOOTH",
"807 749 OFFCURVE",
"709 822 OFFCURVE",
"553 822 CURVE SMOOTH",
"270 822 OFFCURVE",
"36 589 OFFCURVE",
"36 294 CURVE SMOOTH"
);
}
);
width = 743;
},
{
associatedMasterId = "BE599D47-15C2-4DC8-BE97-05FFE6CA3179";
background = {
paths = (
{
closed = 1;
nodes = (
"386 126 OFFCURVE",
"377 146 OFFCURVE",
"377 188 CURVE SMOOTH",
"377 328 OFFCURVE",
"480 575 OFFCURVE",
"547 575 CURVE SMOOTH",
"567 575 OFFCURVE",
"571 555 OFFCURVE",
"571 519 CURVE SMOOTH",
"571 366 OFFCURVE",
"471 126 OFFCURVE",
"405 126 CURVE SMOOTH"
);
},
{
closed = 1;
nodes = (
"50 18 OFFCURVE",
"212 -66 OFFCURVE",
"372 -66 CURVE SMOOTH",
"652 -66 OFFCURVE",
"864 194 OFFCURVE",
"874 492 CURVE SMOOTH",
"881 706 OFFCURVE",
"719 776 OFFCURVE",
"574 776 CURVE SMOOTH",
"288 776 OFFCURVE",
"70 529 OFFCURVE",
"59 252 CURVE SMOOTH"
);
}
);
};
layerId = "4E5EA5C6-2A9B-46A3-AEE0-F8FF65556DF6";
name = "Regular Italic Mar 25 16, 21:26";
paths = (
{
closed = 1;
nodes = (
"63 30 OFFCURVE",
"186 -73 OFFCURVE",
"397 -73 CURVE SMOOTH",
"542 -73 OFFCURVE",
"742 -6 OFFCURVE",
"742 112 CURVE SMOOTH",
"742 169 OFFCURVE",
"736 220 OFFCURVE",
"717 252 CURVE",
"655 190 OFFCURVE",
"570 157 OFFCURVE",
"475 157 CURVE SMOOTH",
"441 157 OFFCURVE",
"380 176 OFFCURVE",
"380 266 CURVE SMOOTH",
"380 382 OFFCURVE",
"480 586 OFFCURVE",
"586 586 CURVE SMOOTH",
"618 586 OFFCURVE",
"630 563 OFFCURVE",
"630 532 CURVE SMOOTH",
"630 487 OFFCURVE",
"602 423 OFFCURVE",
"563 384 CURVE",
"594 367 OFFCURVE",
"626 359 OFFCURVE",
"657 359 CURVE SMOOTH",
"759 359 OFFCURVE",
"851 443 OFFCURVE",
"851 572 CURVE SMOOTH",
"851 699 OFFCURVE",
"749 773 OFFCURVE",
"567 773 CURVE SMOOTH",
"301 773 OFFCURVE",
"63 539 OFFCURVE",
"63 237 CURVE SMOOTH"
);
}
);
width = 793;
},
{
associatedMasterId = "BE599D47-15C2-4DC8-BE97-05FFE6CA3179";
background = {
paths = (
{
closed = 1;
nodes = (
"62 30 OFFCURVE",
"185 -73 OFFCURVE",
"396 -73 CURVE SMOOTH",
"541 -73 OFFCURVE",
"742 -6 OFFCURVE",
"742 112 CURVE SMOOTH",
"742 169 OFFCURVE",
"735 220 OFFCURVE",
"716 252 CURVE",
"654 190 OFFCURVE",
"569 157 OFFCURVE",
"475 157 CURVE SMOOTH",
"440 157 OFFCURVE",
"380 176 OFFCURVE",
"380 266 CURVE SMOOTH",
"380 382 OFFCURVE",
"479 586 OFFCURVE",
"585 586 CURVE SMOOTH",
"617 586 OFFCURVE",
"630 563 OFFCURVE",
"630 532 CURVE SMOOTH",
"630 487 OFFCURVE",
"602 423 OFFCURVE",
"562 384 CURVE",
"593 367 OFFCURVE",
"625 359 OFFCURVE",
"656 359 CURVE SMOOTH",
"758 359 OFFCURVE",
"850 443 OFFCURVE",
"850 572 CURVE SMOOTH",
"850 699 OFFCURVE",
"749 773 OFFCURVE",
"566 773 CURVE SMOOTH",
"300 773 OFFCURVE",
"62 539 OFFCURVE",
"62 237 CURVE SMOOTH"
);
}
);
};
layerId = "40B8CCE1-4585-447C-BA12-7CA9ECF6E9D9";
name = "Regular Italic Mar 26 16, 00:59";
paths = (
{
closed = 1;
nodes = (
"62 30 OFFCURVE",
"185 -73 OFFCURVE",
"405 -73 CURVE SMOOTH",
"581 -73 OFFCURVE",
"750 -6 OFFCURVE",
"750 146 CURVE SMOOTH",
"750 172 OFFCURVE",
"745 207 OFFCURVE",
"724 252 CURVE",
"662 190 OFFCURVE",
"569 157 OFFCURVE",
"475 157 CURVE SMOOTH",
"440 157 OFFCURVE",
"380 176 OFFCURVE",
"380 266 CURVE SMOOTH",
"380 382 OFFCURVE",
"480 586 OFFCURVE",
"582 586 CURVE SMOOTH",
"617 586 OFFCURVE",
"630 563 OFFCURVE",
"630 531 CURVE SMOOTH",
"630 484 OFFCURVE",
"603 431 OFFCURVE",
"562 384 CURVE",
"593 367 OFFCURVE",
"625 359 OFFCURVE",
"656 359 CURVE SMOOTH",
"757 359 OFFCURVE",
"850 443 OFFCURVE",
"850 567 CURVE SMOOTH",
"850 699 OFFCURVE",
"749 773 OFFCURVE",
"587 773 CURVE SMOOTH",
"300 773 OFFCURVE",
"62 539 OFFCURVE",
"62 245 CURVE SMOOTH"
);
}
);
width = 792;
}
);
unicode = 0043;
},
{
color = 1;
glyphname = D;
lastChange = "2016-04-03 04:18:10 +0000";
layers = (
{
background = {
paths = (
{
closed = 1;
nodes = (
"18 -29 OFFCURVE",
"136 -63 OFFCURVE",
"362 -63 CURVE SMOOTH",
"525 -63 OFFCURVE",
"659 -46 OFFCURVE",
"659 117 CURVE SMOOTH",
"659 143 OFFCURVE",
"656 169 OFFCURVE",
"641 193 CURVE",
"609 164 OFFCURVE",
"509 133 OFFCURVE",
"412 133 CURVE SMOOTH",
"372 133 OFFCURVE",
"335 137 OFFCURVE",
"317 144 CURVE SMOOTH",
"299 150 OFFCURVE",
"294 160 OFFCURVE",
"294 170 CURVE SMOOTH",
"294 221 OFFCURVE",
"418 475 OFFCURVE",
"458 550 CURVE",
"472 549 OFFCURVE",
"487 548 OFFCURVE",
"504 548 CURVE SMOOTH",
"697 548 OFFCURVE",
"824 575 OFFCURVE",
"824 703 CURVE SMOOTH",
"824 730 OFFCURVE",
"819 758 OFFCURVE",
"807 787 CURVE",
"724 761 OFFCURVE",
"650 753 OFFCURVE",
"591 753 CURVE SMOOTH",
"499 753 OFFCURVE",
"392 773 OFFCURVE",
"287 773 CURVE SMOOTH",
"208 773 OFFCURVE",
"143 761 OFFCURVE",
"104 598 CURVE",
"159 598 OFFCURVE",
"172 590 OFFCURVE",
"172 547 CURVE SMOOTH",
"172 404 OFFCURVE",
"23 209 OFFCURVE",
"21 84 CURVE SMOOTH"
);
},
{
closed = 1;
nodes = (
"337 126 OFFCURVE",
"328 146 OFFCURVE",
"328 188 CURVE SMOOTH",
"328 328 OFFCURVE",
"431 575 OFFCURVE",
"498 575 CURVE SMOOTH",
"518 575 OFFCURVE",
"522 555 OFFCURVE",
"522 519 CURVE SMOOTH",
"522 366 OFFCURVE",
"422 126 OFFCURVE",
"356 126 CURVE SMOOTH"
);
},
{
closed = 1;
nodes = (
"1 18 OFFCURVE",
"163 -66 OFFCURVE",
"323 -66 CURVE SMOOTH",
"603 -66 OFFCURVE",
"815 194 OFFCURVE",
"825 492 CURVE SMOOTH",
"832 706 OFFCURVE",
"670 776 OFFCURVE",
"525 776 CURVE SMOOTH",
"240 776 OFFCURVE",
"21 529 OFFCURVE",
"10 252 CURVE SMOOTH"
);
}
);
};
layerId = "BE599D47-15C2-4DC8-BE97-05FFE6CA3179";
paths = (
{
closed = 1;
nodes = (
"21 34 OFFCURVE",
"137 -14 OFFCURVE",
"278 -14 CURVE SMOOTH",
"604 -14 OFFCURVE",
"827 241 OFFCURVE",
"827 512 CURVE SMOOTH",
"827 708 OFFCURVE",
"714 822 OFFCURVE",
"502 822 CURVE SMOOTH",
"287 822 LINE SMOOTH",
"208 822 OFFCURVE",
"143 810 OFFCURVE",
"104 647 CURVE",
"159 647 OFFCURVE",
"172 639 OFFCURVE",
"172 596 CURVE SMOOTH",
"172 453 OFFCURVE",
"21 256 OFFCURVE",
"21 138 CURVE SMOOTH"
);
},
{
closed = 1;
nodes = (
"294 269 OFFCURVE",
"407 514 OFFCURVE",
"457 615 CURVE",
"516 615 OFFCURVE",
"542 591 OFFCURVE",
"542 516 CURVE SMOOTH",
"542 384 OFFCURVE",
"447 190 OFFCURVE",
"338 190 CURVE SMOOTH",
"315 190 OFFCURVE",
"294 198 OFFCURVE",
"294 220 CURVE SMOOTH"
);
}
);
width = 784;
},
{
associatedMasterId = "BE599D47-15C2-4DC8-BE97-05FFE6CA3179";
background = {
paths = (
{
closed = 1;
nodes = (
"11 -29 OFFCURVE",
"129 -63 OFFCURVE",
"355 -63 CURVE SMOOTH",
"518 -63 OFFCURVE",
"652 -46 OFFCURVE",
"652 117 CURVE SMOOTH",
"652 143 OFFCURVE",
"649 169 OFFCURVE",
"634 193 CURVE",
"602 164 OFFCURVE",
"502 133 OFFCURVE",
"405 133 CURVE SMOOTH",
"365 133 OFFCURVE",
"328 137 OFFCURVE",
"310 144 CURVE SMOOTH",
"292 150 OFFCURVE",
"287 160 OFFCURVE",
"287 170 CURVE SMOOTH",
"287 221 OFFCURVE",
"411 475 OFFCURVE",
"451 550 CURVE",
"465 549 OFFCURVE",
"480 548 OFFCURVE",
"497 548 CURVE SMOOTH",
"690 548 OFFCURVE",
"817 575 OFFCURVE",
"817 703 CURVE SMOOTH",
"817 730 OFFCURVE",
"812 758 OFFCURVE",
"800 787 CURVE",
"717 761 OFFCURVE",
"643 753 OFFCURVE",
"584 753 CURVE SMOOTH",
"492 753 OFFCURVE",
"385 773 OFFCURVE",
"280 773 CURVE SMOOTH",
"201 773 OFFCURVE",
"136 761 OFFCURVE",
"97 598 CURVE",
"152 598 OFFCURVE",
"165 590 OFFCURVE",
"165 547 CURVE SMOOTH",
"165 404 OFFCURVE",
"16 209 OFFCURVE",
"14 84 CURVE SMOOTH"
);
},
{
closed = 1;
nodes = (
"330 126 OFFCURVE",
"321 146 OFFCURVE",
"321 188 CURVE SMOOTH",
"321 328 OFFCURVE",
"424 575 OFFCURVE",
"491 575 CURVE SMOOTH",
"511 575 OFFCURVE",
"515 555 OFFCURVE",
"515 519 CURVE SMOOTH",
"515 366 OFFCURVE",
"415 126 OFFCURVE",
"349 126 CURVE SMOOTH"
);
},
{
closed = 1;
nodes = (
"-6 18 OFFCURVE",
"156 -66 OFFCURVE",
"316 -66 CURVE SMOOTH",
"596 -66 OFFCURVE",
"808 194 OFFCURVE",
"818 492 CURVE SMOOTH",
"825 706 OFFCURVE",
"663 776 OFFCURVE",
"518 776 CURVE SMOOTH",
"233 776 OFFCURVE",
"14 529 OFFCURVE",
"3 252 CURVE SMOOTH"
);
}
);
};
layerId = "EB4167F3-FAD2-41A9-90A8-A81535180353";
name = "Regular Italic Mar 25 16, 21:32";
paths = (
{
closed = 1;
nodes = (
"11 -29 OFFCURVE",
"129 -63 OFFCURVE",
"355 -63 CURVE SMOOTH",
"518 -63 OFFCURVE",
"652 -46 OFFCURVE",
"652 117 CURVE SMOOTH",
"652 143 OFFCURVE",
"649 169 OFFCURVE",
"634 193 CURVE",
"602 164 OFFCURVE",
"502 133 OFFCURVE",
"405 133 CURVE SMOOTH",
"365 133 OFFCURVE",
"328 137 OFFCURVE",
"310 144 CURVE SMOOTH",
"292 150 OFFCURVE",
"287 160 OFFCURVE",
"287 170 CURVE SMOOTH",
"287 221 OFFCURVE",
"411 475 OFFCURVE",
"451 550 CURVE",
"465 549 OFFCURVE",
"480 548 OFFCURVE",
"497 548 CURVE SMOOTH",
"690 548 OFFCURVE",
"817 575 OFFCURVE",
"817 703 CURVE SMOOTH",
"817 730 OFFCURVE",
"812 758 OFFCURVE",
"800 787 CURVE",
"717 761 OFFCURVE",
"643 753 OFFCURVE",
"584 753 CURVE SMOOTH",
"492 753 OFFCURVE",
"385 773 OFFCURVE",
"280 773 CURVE SMOOTH",
"201 773 OFFCURVE",
"136 761 OFFCURVE",
"97 598 CURVE",
"152 598 OFFCURVE",
"165 590 OFFCURVE",
"165 547 CURVE SMOOTH",
"165 404 OFFCURVE",
"16 209 OFFCURVE",
"14 84 CURVE SMOOTH"
);
},
{
closed = 1;
nodes = (
"330 126 OFFCURVE",
"321 146 OFFCURVE",
"321 188 CURVE SMOOTH",
"321 328 OFFCURVE",
"424 575 OFFCURVE",
"491 575 CURVE SMOOTH",
"511 575 OFFCURVE",
"515 555 OFFCURVE",
"515 519 CURVE SMOOTH",
"515 366 OFFCURVE",
"415 126 OFFCURVE",
"349 126 CURVE SMOOTH"
);
},
{
closed = 1;
nodes = (
"-6 18 OFFCURVE",
"156 -66 OFFCURVE",
"316 -66 CURVE SMOOTH",
"596 -66 OFFCURVE",
"808 194 OFFCURVE",
"818 492 CURVE SMOOTH",
"825 706 OFFCURVE",
"663 776 OFFCURVE",
"518 776 CURVE SMOOTH",
"233 776 OFFCURVE",
"14 529 OFFCURVE",
"3 252 CURVE SMOOTH"
);
}
);
width = 704;
},
{
associatedMasterId = "BE599D47-15C2-4DC8-BE97-05FFE6CA3179";
background = {
paths = (
{
closed = 1;
nodes = (
"11 -29 OFFCURVE",
"129 -63 OFFCURVE",
"355 -63 CURVE SMOOTH",
"518 -63 OFFCURVE",
"652 -46 OFFCURVE",
"652 117 CURVE SMOOTH",
"652 143 OFFCURVE",
"649 169 OFFCURVE",
"634 193 CURVE",
"602 164 OFFCURVE",
"502 133 OFFCURVE",
"405 133 CURVE SMOOTH",
"365 133 OFFCURVE",
"328 137 OFFCURVE",
"310 144 CURVE SMOOTH",
"292 150 OFFCURVE",
"287 160 OFFCURVE",
"287 170 CURVE SMOOTH",
"287 221 OFFCURVE",
"411 475 OFFCURVE",
"451 550 CURVE",
"465 549 OFFCURVE",
"480 548 OFFCURVE",
"497 548 CURVE SMOOTH",
"690 548 OFFCURVE",
"817 575 OFFCURVE",
"817 703 CURVE SMOOTH",
"817 730 OFFCURVE",
"812 758 OFFCURVE",
"800 787 CURVE",
"717 761 OFFCURVE",
"643 753 OFFCURVE",
"584 753 CURVE SMOOTH",
"492 753 OFFCURVE",
"385 773 OFFCURVE",
"280 773 CURVE SMOOTH",
"201 773 OFFCURVE",
"136 761 OFFCURVE",
"97 598 CURVE",
"152 598 OFFCURVE",
"165 590 OFFCURVE",
"165 547 CURVE SMOOTH",
"165 404 OFFCURVE",
"16 209 OFFCURVE",
"14 84 CURVE SMOOTH"
);
},
{
closed = 1;
nodes = (
"330 126 OFFCURVE",
"321 146 OFFCURVE",
"321 188 CURVE SMOOTH",
"321 328 OFFCURVE",
"424 575 OFFCURVE",
"491 575 CURVE SMOOTH",
"511 575 OFFCURVE",
"515 555 OFFCURVE",
"515 519 CURVE SMOOTH",
"515 366 OFFCURVE",
"415 126 OFFCURVE",
"349 126 CURVE SMOOTH"
);
},
{
closed = 1;
nodes = (
"-6 18 OFFCURVE",
"156 -66 OFFCURVE",
"316 -66 CURVE SMOOTH",
"596 -66 OFFCURVE",
"808 194 OFFCURVE",
"818 492 CURVE SMOOTH",
"825 706 OFFCURVE",
"663 776 OFFCURVE",
"518 776 CURVE SMOOTH",
"233 776 OFFCURVE",
"14 529 OFFCURVE",
"3 252 CURVE SMOOTH"
);
}
);
};
layerId = "6F2FA73D-AA46-406F-8641-5BE3BC5A840D";
name = "Regular Italic Mar 25 16, 23:14";
paths = (
{
closed = 1;
nodes = (
"495 279 OFFCURVE",
"388 117 OFFCURVE",
"310 144 CURVE SMOOTH",
"292 150 OFFCURVE",
"287 160 OFFCURVE",
"287 170 CURVE SMOOTH",
"287 221 OFFCURVE",
"406 479 OFFCURVE",
"446 554 CURVE",
"530 593 OFFCURVE",
"559 501 OFFCURVE",
"515 348 CURVE SMOOTH"
);
},
{
closed = 1;
nodes = (
"863 606 OFFCURVE",
"751 773 OFFCURVE",
"495 773 CURVE SMOOTH",
"280 773 LINE SMOOTH",
"201 773 OFFCURVE",
"136 761 OFFCURVE",
"97 598 CURVE",
"152 598 OFFCURVE",
"165 590 OFFCURVE",
"165 547 CURVE SMOOTH",
"165 404 OFFCURVE",
"17 209 OFFCURVE",
"14 84 CURVE SMOOTH",
"11 -14 OFFCURVE",
"129 -63 OFFCURVE",
"273 -63 CURVE SMOOTH",
"435 -63 OFFCURVE",
"686 -38 OFFCURVE",
"805 398 CURVE SMOOTH"
);
}
);
width = 704;
},
{
associatedMasterId = "BE599D47-15C2-4DC8-BE97-05FFE6CA3179";
background = {
paths = (
{
closed = 1;
nodes = (
"51 -29 OFFCURVE",
"169 -63 OFFCURVE",
"395 -63 CURVE SMOOTH",
"558 -63 OFFCURVE",
"692 -46 OFFCURVE",
"692 117 CURVE SMOOTH",
"692 143 OFFCURVE",
"689 169 OFFCURVE",
"674 193 CURVE",
"642 164 OFFCURVE",
"542 133 OFFCURVE",
"445 133 CURVE SMOOTH",
"405 133 OFFCURVE",
"368 137 OFFCURVE",
"350 144 CURVE SMOOTH",
"332 150 OFFCURVE",
"327 160 OFFCURVE",
"327 170 CURVE SMOOTH",
"327 221 OFFCURVE",
"451 475 OFFCURVE",
"491 550 CURVE",
"505 549 OFFCURVE",
"520 548 OFFCURVE",
"537 548 CURVE SMOOTH",
"730 548 OFFCURVE",
"857 575 OFFCURVE",
"857 703 CURVE SMOOTH",
"857 730 OFFCURVE",
"852 758 OFFCURVE",
"840 787 CURVE",
"757 761 OFFCURVE",
"683 753 OFFCURVE",
"624 753 CURVE SMOOTH",
"532 753 OFFCURVE",
"425 773 OFFCURVE",
"320 773 CURVE SMOOTH",
"241 773 OFFCURVE",
"176 761 OFFCURVE",
"137 598 CURVE",
"192 598 OFFCURVE",
"205 590 OFFCURVE",
"205 547 CURVE SMOOTH",
"205 404 OFFCURVE",
"56 209 OFFCURVE",
"54 84 CURVE SMOOTH"
);
},
{
closed = 1;
nodes = (
"370 126 OFFCURVE",
"361 146 OFFCURVE",
"361 188 CURVE SMOOTH",
"361 328 OFFCURVE",
"464 575 OFFCURVE",
"531 575 CURVE SMOOTH",
"551 575 OFFCURVE",
"555 555 OFFCURVE",
"555 519 CURVE SMOOTH",
"555 366 OFFCURVE",
"455 126 OFFCURVE",
"389 126 CURVE SMOOTH"
);
},
{
closed = 1;
nodes = (
"34 18 OFFCURVE",
"196 -66 OFFCURVE",
"356 -66 CURVE SMOOTH",
"636 -66 OFFCURVE",
"848 194 OFFCURVE",
"858 492 CURVE SMOOTH",
"865 706 OFFCURVE",
"703 776 OFFCURVE",
"558 776 CURVE SMOOTH",
"272 776 OFFCURVE",
"54 529 OFFCURVE",
"43 252 CURVE SMOOTH"
);
}
);
};
layerId = "D86A3163-925A-4137-83AF-1E7AA10FA8E7";
name = "Regular Italic Mar 27 16, 16:25";
paths = (
{
closed = 1;
nodes = (
"637 -63 OFFCURVE",
"860 191 OFFCURVE",
"860 463 CURVE SMOOTH",
"860 658 OFFCURVE",
"747 773 OFFCURVE",
"535 773 CURVE SMOOTH",
"320 773 LINE SMOOTH",
"241 773 OFFCURVE",
"176 761 OFFCURVE",
"137 598 CURVE",
"192 598 OFFCURVE",
"205 590 OFFCURVE",
"205 547 CURVE SMOOTH",
"205 404 OFFCURVE",
"54 206 OFFCURVE",
"54 89 CURVE SMOOTH",
"54 -15 OFFCURVE",
"170 -63 OFFCURVE",
"311 -63 CURVE SMOOTH"
);
},
{
closed = 1;
nodes = (
"348 141 OFFCURVE",
"327 149 OFFCURVE",
"327 170 CURVE SMOOTH",
"327 225 OFFCURVE",
"463 516 OFFCURVE",
"503 591 CURVE",
"404 547 LINE",
"459 564 OFFCURVE",
"489 566 OFFCURVE",
"500 566 CURVE SMOOTH",
"548 566 OFFCURVE",
"575 537 OFFCURVE",
"575 467 CURVE SMOOTH",
"575 335 OFFCURVE",
"480 141 OFFCURVE",
"371 141 CURVE SMOOTH"
);
}
);
width = 842;
}
);
unicode = 0044;
},
{
color = 1;
glyphname = E;
lastChange = "2016-04-03 04:18:10 +0000";
layers = (
{
background = {
paths = (
{
closed = 1;
nodes = (
"29 -32 OFFCURVE",
"161 -67 OFFCURVE",
"385 -67 CURVE SMOOTH",
"577 -67 OFFCURVE",
"682 -50 OFFCURVE",
"682 115 CURVE SMOOTH",
"682 142 OFFCURVE",
"676 169 OFFCURVE",
"661 193 CURVE",
"631 162 OFFCURVE",
"522 129 OFFCURVE",
"425 129 CURVE SMOOTH",
"379 129 OFFCURVE",
"342 134 OFFCURVE",
"319 142 CURVE SMOOTH",
"305 147 OFFCURVE",
"300 157 OFFCURVE",
"300 167 CURVE SMOOTH",
"300 170 OFFCURVE",
"300 173 OFFCURVE",
"301 177 CURVE SMOOTH",
"330 306 OFFCURVE",
"405 439 OFFCURVE",
"450 550 CURVE",
"465 549 OFFCURVE",
"480 548 OFFCURVE",
"497 548 CURVE SMOOTH",
"690 548 OFFCURVE",
"806 573 OFFCURVE",
"806 708 CURVE SMOOTH",
"806 735 OFFCURVE",
"804 762 OFFCURVE",
"791 787 CURVE",
"709 761 OFFCURVE",
"644 753 OFFCURVE",
"585 753 CURVE SMOOTH",
"505 753 OFFCURVE",
"438 775 OFFCURVE",
"358 773 CURVE SMOOTH",
"212 768 OFFCURVE",
"129 761 OFFCURVE",
"95 598 CURVE",
"101 598 OFFCURVE",
"107 598 OFFCURVE",
"112 598 CURVE SMOOTH",
"143 598 OFFCURVE",
"165 591 OFFCURVE",
"165 563 CURVE SMOOTH",
"165 404 OFFCURVE",
"29 226 OFFCURVE",
"29 88 CURVE SMOOTH"
);
},
{
closed = 1;
nodes = (
"206 272 OFFCURVE",
"246 266 OFFCURVE",
"385 266 CURVE SMOOTH",
"557 266 OFFCURVE",
"660 281 OFFCURVE",
"660 401 CURVE SMOOTH",
"660 425 OFFCURVE",
"658 449 OFFCURVE",
"646 471 CURVE",
"561 453 OFFCURVE",
"491 441 OFFCURVE",
"298 441 CURVE SMOOTH",
"231 441 OFFCURVE",
"206 408 OFFCURVE",
"206 351 CURVE SMOOTH"
);
}
);
};
layerId = "BE599D47-15C2-4DC8-BE97-05FFE6CA3179";
paths = (
{
closed = 1;
nodes = (
"202 321 OFFCURVE",
"242 316 OFFCURVE",
"366 316 CURVE SMOOTH",
"556 316 OFFCURVE",
"658 330 OFFCURVE",
"662 438 CURVE SMOOTH",
"663 461 OFFCURVE",
"660 483 OFFCURVE",
"648 511 CURVE",
"562 492 OFFCURVE",
"494 480 OFFCURVE",
"302 480 CURVE SMOOTH",
"234 480 OFFCURVE",
"207 451 OFFCURVE",
"205 397 CURVE SMOOTH"
);
},
{
closed = 1;
nodes = (
"17 21 OFFCURVE",
"135 -14 OFFCURVE",
"361 -14 CURVE SMOOTH",
"524 -14 OFFCURVE",
"658 4 OFFCURVE",
"658 167 CURVE SMOOTH",
"658 193 OFFCURVE",
"655 219 OFFCURVE",
"640 242 CURVE",
"608 213 OFFCURVE",
"508 182 OFFCURVE",
"411 182 CURVE SMOOTH",
"371 182 OFFCURVE",
"334 187 OFFCURVE",
"316 193 CURVE SMOOTH",
"298 200 OFFCURVE",
"293 209 OFFCURVE",
"293 220 CURVE SMOOTH",
"293 271 OFFCURVE",
"417 525 OFFCURVE",
"457 599 CURVE",
"471 598 OFFCURVE",
"486 598 OFFCURVE",
"503 598 CURVE SMOOTH",
"696 598 OFFCURVE",
"823 624 OFFCURVE",
"823 753 CURVE SMOOTH",
"823 780 OFFCURVE",
"818 808 OFFCURVE",
"806 837 CURVE",
"723 810 OFFCURVE",
"649 802 OFFCURVE",
"590 802 CURVE SMOOTH",
"498 802 OFFCURVE",
"391 822 OFFCURVE",
"286 822 CURVE SMOOTH",
"207 822 OFFCURVE",
"142 810 OFFCURVE",
"103 647 CURVE",
"158 647 OFFCURVE",
"171 639 OFFCURVE",
"171 596 CURVE SMOOTH",
"171 454 OFFCURVE",
"22 259 OFFCURVE",
"20 133 CURVE SMOOTH"
);
}
);
width = 703;
},
{
associatedMasterId = "BE599D47-15C2-4DC8-BE97-05FFE6CA3179";
background = {
paths = (
{
closed = 1;
nodes = (
"162 -62 OFFCURVE",
"229 -30 OFFCURVE",
"275 8 CURVE",
"269 26 OFFCURVE",
"266 46 OFFCURVE",
"266 72 CURVE SMOOTH",
"266 292 OFFCURVE",
"471 559 OFFCURVE",
"464 695 CURVE SMOOTH",
"461 757 OFFCURVE",
"420 773 OFFCURVE",
"360 773 CURVE SMOOTH",
"288 773 OFFCURVE",
"206 750 OFFCURVE",
"132 705 CURVE",
"151 670 OFFCURVE",
"155 634 OFFCURVE",
"155 603 CURVE SMOOTH",
"155 385 OFFCURVE",
"-6 229 OFFCURVE",
"-8 50 CURVE SMOOTH",
"-9 -23 OFFCURVE",
"38 -62 OFFCURVE",
"102 -62 CURVE SMOOTH"
);
},
{
closed = 1;
nodes = (
"443 -64 OFFCURVE",
"619 -15 OFFCURVE",
"619 84 CURVE SMOOTH",
"619 117 OFFCURVE",
"608 153 OFFCURVE",
"599 169 CURVE",
"558 127 OFFCURVE",
"447 130 OFFCURVE",
"368 130 CURVE SMOOTH",
"310 130 OFFCURVE",
"265 140 OFFCURVE",
"265 201 CURVE",
"5 137 LINE",
"5 -3 OFFCURVE",
"121 -64 OFFCURVE",
"280 -64 CURVE SMOOTH"
);
}
);
};
layerId = "62449B94-6233-40A0-A075-5FB10F0E59DB";
name = "Regular Italic Mar 23 16, 21:36";
paths = (
{
closed = 1;
nodes = (
"6 -31 OFFCURVE",
"137 -67 OFFCURVE",
"363 -67 CURVE SMOOTH",
"555 -67 OFFCURVE",
"660 -50 OFFCURVE",
"660 115 CURVE SMOOTH",
"660 142 OFFCURVE",
"654 169 OFFCURVE",
"639 193 CURVE",
"609 162 OFFCURVE",
"500 129 OFFCURVE",
"403 129 CURVE SMOOTH",
"357 129 OFFCURVE",
"320 134 OFFCURVE",
"297 142 CURVE SMOOTH",
"279 149 OFFCURVE",
"276 162 OFFCURVE",
"279 177 CURVE SMOOTH",
"308 306 OFFCURVE",
"383 439 OFFCURVE",
"428 550 CURVE",
"442 549 OFFCURVE",
"458 548 OFFCURVE",
"475 548 CURVE SMOOTH",
"668 548 OFFCURVE",
"784 565 OFFCURVE",
"784 700 CURVE SMOOTH",
"784 727 OFFCURVE",
"782 754 OFFCURVE",
"769 779 CURVE",
"708 761 OFFCURVE",
"674 756 OFFCURVE",
"576 756 CURVE SMOOTH",
"531 756 OFFCURVE",
"426 772 OFFCURVE",
"364 773 CURVE SMOOTH",
"360 773 LINE SMOOTH",
"288 773 OFFCURVE",
"206 750 OFFCURVE",
"132 705 CURVE",
"151 670 OFFCURVE",
"155 634 OFFCURVE",
"155 603 CURVE SMOOTH",
"155 385 OFFCURVE",
"9 229 OFFCURVE",
"7 130 CURVE SMOOTH"
);
},
{
closed = 1;
nodes = (
"182 272 OFFCURVE",
"221 266 OFFCURVE",
"363 266 CURVE SMOOTH",
"535 266 OFFCURVE",
"638 281 OFFCURVE",
"638 401 CURVE SMOOTH",
"638 425 OFFCURVE",
"636 449 OFFCURVE",
"624 471 CURVE",
"539 453 OFFCURVE",
"469 441 OFFCURVE",
"276 441 CURVE SMOOTH",
"211 441 OFFCURVE",
"185 410 OFFCURVE",
"184 356 CURVE SMOOTH"
);
}
);
width = 720;
},
{
associatedMasterId = "BE599D47-15C2-4DC8-BE97-05FFE6CA3179";
background = {
paths = (
{
closed = 1;
nodes = (
"6 -31 OFFCURVE",
"137 -67 OFFCURVE",
"363 -67 CURVE SMOOTH",
"555 -67 OFFCURVE",
"660 -50 OFFCURVE",
"660 115 CURVE SMOOTH",
"660 142 OFFCURVE",
"654 169 OFFCURVE",
"639 193 CURVE",
"609 162 OFFCURVE",
"500 129 OFFCURVE",
"403 129 CURVE SMOOTH",
"357 129 OFFCURVE",
"320 134 OFFCURVE",
"297 142 CURVE SMOOTH",
"279 149 OFFCURVE",
"276 162 OFFCURVE",
"279 177 CURVE SMOOTH",
"308 306 OFFCURVE",
"383 439 OFFCURVE",
"428 550 CURVE",
"442 549 OFFCURVE",
"458 548 OFFCURVE",
"475 548 CURVE SMOOTH",
"668 548 OFFCURVE",
"784 565 OFFCURVE",
"784 700 CURVE SMOOTH",
"784 727 OFFCURVE",
"782 754 OFFCURVE",
"769 779 CURVE",
"708 761 OFFCURVE",
"674 756 OFFCURVE",
"576 756 CURVE SMOOTH",
"531 756 OFFCURVE",
"426 772 OFFCURVE",
"364 773 CURVE SMOOTH",
"360 773 LINE SMOOTH",
"288 773 OFFCURVE",
"206 750 OFFCURVE",
"132 705 CURVE",
"151 670 OFFCURVE",
"155 634 OFFCURVE",
"155 603 CURVE SMOOTH",
"155 385 OFFCURVE",
"9 229 OFFCURVE",
"7 130 CURVE SMOOTH"
);
},
{
closed = 1;
nodes = (
"182 272 OFFCURVE",
"221 266 OFFCURVE",
"363 266 CURVE SMOOTH",
"535 266 OFFCURVE",
"638 281 OFFCURVE",
"638 401 CURVE SMOOTH",
"638 425 OFFCURVE",
"636 449 OFFCURVE",
"624 471 CURVE",
"539 453 OFFCURVE",
"469 441 OFFCURVE",
"276 441 CURVE SMOOTH",
"211 441 OFFCURVE",
"185 410 OFFCURVE",
"184 356 CURVE SMOOTH"
);
}
);
};
layerId = "4C8E2084-5746-4CA2-BF8F-39A6E5FC7649";
name = "Regular Italic Mar 23 16, 21:41";
paths = (
{
closed = 1;
nodes = (
"7 -32 OFFCURVE",
"139 -67 OFFCURVE",
"363 -67 CURVE SMOOTH",
"555 -67 OFFCURVE",
"660 -50 OFFCURVE",
"660 115 CURVE SMOOTH",
"660 142 OFFCURVE",
"654 169 OFFCURVE",
"639 193 CURVE",
"609 162 OFFCURVE",
"500 129 OFFCURVE",
"403 129 CURVE SMOOTH",
"357 129 OFFCURVE",
"320 134 OFFCURVE",
"297 142 CURVE SMOOTH",
"283 147 OFFCURVE",
"278 157 OFFCURVE",
"278 167 CURVE SMOOTH",
"278 170 OFFCURVE",
"278 173 OFFCURVE",
"279 177 CURVE SMOOTH",
"308 306 OFFCURVE",
"383 439 OFFCURVE",
"428 550 CURVE",
"442 549 OFFCURVE",
"458 548 OFFCURVE",
"475 548 CURVE SMOOTH",
"668 548 OFFCURVE",
"784 573 OFFCURVE",
"784 708 CURVE SMOOTH",
"784 735 OFFCURVE",
"782 762 OFFCURVE",
"769 787 CURVE",
"687 761 OFFCURVE",
"622 753 OFFCURVE",
"563 753 CURVE SMOOTH",
"483 753 OFFCURVE",
"416 775 OFFCURVE",
"336 773 CURVE SMOOTH",
"190 768 OFFCURVE",
"107 761 OFFCURVE",
"73 598 CURVE",
"79 598 OFFCURVE",
"85 598 OFFCURVE",
"90 598 CURVE SMOOTH",
"121 598 OFFCURVE",
"143 591 OFFCURVE",
"143 563 CURVE SMOOTH",
"143 404 OFFCURVE",
"7 226 OFFCURVE",
"7 88 CURVE SMOOTH"
);
},
{
closed = 1;
nodes = (
"184 272 OFFCURVE",
"224 266 OFFCURVE",
"363 266 CURVE SMOOTH",
"535 266 OFFCURVE",
"638 281 OFFCURVE",
"638 401 CURVE SMOOTH",
"638 425 OFFCURVE",
"636 449 OFFCURVE",
"624 471 CURVE",
"539 453 OFFCURVE",
"469 441 OFFCURVE",
"276 441 CURVE SMOOTH",
"209 441 OFFCURVE",
"184 408 OFFCURVE",
"184 351 CURVE SMOOTH"
);
}
);
width = 720;
}
);
unicode = 0045;
},
{
color = 1;
glyphname = F;
lastChange = "2016-04-03 04:18:10 +0000";
layers = (
{
background = {
paths = (
{
closed = 1;
nodes = (
"202 272 OFFCURVE",
"242 266 OFFCURVE",
"366 266 CURVE SMOOTH",
"556 266 OFFCURVE",
"658 280 OFFCURVE",
"662 388 CURVE SMOOTH",
"663 412 OFFCURVE",
"660 434 OFFCURVE",
"649 461 CURVE",
"562 443 OFFCURVE",
"494 431 OFFCURVE",
"302 431 CURVE SMOOTH",
"234 431 OFFCURVE",
"208 402 OFFCURVE",
"205 348 CURVE SMOOTH"
);
},
{
closed = 1;
nodes = (
"17 -29 OFFCURVE",
"135 -63 OFFCURVE",
"361 -63 CURVE SMOOTH",
"524 -63 OFFCURVE",
"658 -46 OFFCURVE",
"658 117 CURVE SMOOTH",
"658 143 OFFCURVE",
"655 169 OFFCURVE",
"641 193 CURVE",
"609 164 OFFCURVE",
"508 133 OFFCURVE",
"411 133 CURVE SMOOTH",
"371 133 OFFCURVE",
"335 137 OFFCURVE",
"316 144 CURVE SMOOTH",
"298 150 OFFCURVE",
"293 160 OFFCURVE",
"293 170 CURVE SMOOTH",
"293 221 OFFCURVE",
"417 475 OFFCURVE",
"457 550 CURVE",
"471 549 OFFCURVE",
"486 548 OFFCURVE",
"503 548 CURVE SMOOTH",
"697 548 OFFCURVE",
"824 575 OFFCURVE",
"824 703 CURVE SMOOTH",
"824 730 OFFCURVE",
"818 758 OFFCURVE",
"806 787 CURVE",
"723 761 OFFCURVE",
"649 753 OFFCURVE",
"590 753 CURVE SMOOTH",
"498 753 OFFCURVE",
"391 773 OFFCURVE",
"287 773 CURVE SMOOTH",
"208 773 OFFCURVE",
"142 761 OFFCURVE",
"103 598 CURVE",
"158 598 OFFCURVE",
"172 590 OFFCURVE",
"172 547 CURVE SMOOTH",
"172 404 OFFCURVE",
"22 209 OFFCURVE",
"20 84 CURVE SMOOTH"
);
}
);
};
layerId = "BE599D47-15C2-4DC8-BE97-05FFE6CA3179";
paths = (
{
closed = 1;
nodes = (
"14 26 OFFCURVE",
"61 -13 OFFCURVE",
"135 -13 CURVE SMOOTH",
"199 -13 OFFCURVE",
"261 17 OFFCURVE",
"306 58 CURVE",
"291 85 OFFCURVE",
"282 113 OFFCURVE",
"282 152 CURVE SMOOTH",
"282 292 OFFCURVE",
"399 505 OFFCURVE",
"455 599 CURVE",
"502 598 LINE SMOOTH",
"676 592 OFFCURVE",
"777 614 OFFCURVE",
"777 744 CURVE SMOOTH",
"777 777 OFFCURVE",
"771 803 OFFCURVE",
"759 829 CURVE",
"707 811 OFFCURVE",
"659 803 OFFCURVE",
"609 803 CURVE SMOOTH",
"534 803 OFFCURVE",
"373 822 OFFCURVE",
"298 822 CURVE SMOOTH",
"184 822 OFFCURVE",
"136 781 OFFCURVE",
"105 650 CURVE",
"158 644 OFFCURVE",
"172 638 OFFCURVE",
"172 595 CURVE SMOOTH",
"172 453 OFFCURVE",
"14 246 OFFCURVE",
"14 104 CURVE SMOOTH"
);
},
{
closed = 1;
nodes = (
"205 320 OFFCURVE",
"247 316 OFFCURVE",
"366 316 CURVE SMOOTH",
"523 316 OFFCURVE",
"606 329 OFFCURVE",
"606 443 CURVE SMOOTH",
"606 463 OFFCURVE",
"603 484 OFFCURVE",
"593 509 CURVE",
"506 491 OFFCURVE",
"463 480 OFFCURVE",
"302 480 CURVE SMOOTH",
"231 480 OFFCURVE",
"205 448 OFFCURVE",
"205 389 CURVE SMOOTH"
);
}
);
width = 642;
}
);
unicode = 0046;
},
{
color = 1;
glyphname = G;
lastChange = "2016-04-03 04:18:10 +0000";
layers = (
{
background = {
paths = (
{
closed = 1;
nodes = (
"36 30 OFFCURVE",
"154 -73 OFFCURVE",
"375 -73 CURVE SMOOTH",
"564 -73 OFFCURVE",
"689 2 OFFCURVE",
"789 355 CURVE",
"730 368 OFFCURVE",
"574 379 OFFCURVE",
"521 368 CURVE SMOOTH",
"477 359 OFFCURVE",
"443 324 OFFCURVE",
"414 216 CURVE",
"543 215 LINE",
"522 161 OFFCURVE",
"477 134 OFFCURVE",
"434 134 CURVE SMOOTH",
"383 134 OFFCURVE",
"335 171 OFFCURVE",
"335 257 CURVE SMOOTH",
"335 380 OFFCURVE",
"434 578 OFFCURVE",
"549 578 CURVE SMOOTH",
"597 578 OFFCURVE",
"630 543 OFFCURVE",
"630 497 CURVE SMOOTH",
"630 490 OFFCURVE",
"629 480 OFFCURVE",
"627 471 CURVE",
"638 469 OFFCURVE",
"660 465 OFFCURVE",
"682 465 CURVE SMOOTH",
"743 465 OFFCURVE",
"821 494 OFFCURVE",
"821 594 CURVE SMOOTH",
"821 721 OFFCURVE",
"693 773 OFFCURVE",
"557 773 CURVE SMOOTH",
"266 773 OFFCURVE",
"36 539 OFFCURVE",
"36 243 CURVE SMOOTH"
);
}
);
};
layerId = "BE599D47-15C2-4DC8-BE97-05FFE6CA3179";
paths = (
{
closed = 1;
nodes = (
"36 80 OFFCURVE",
"154 -23 OFFCURVE",
"359 -23 CURVE SMOOTH",
"565 -23 OFFCURVE",
"723 75 OFFCURVE",
"793 404 CURVE",
"733 418 OFFCURVE",
"575 428 OFFCURVE",
"521 417 CURVE SMOOTH",
"477 408 OFFCURVE",
"443 374 OFFCURVE",
"414 265 CURVE",
"543 264 LINE",
"522 210 OFFCURVE",
"477 184 OFFCURVE",
"434 184 CURVE SMOOTH",
"383 184 OFFCURVE",
"335 221 OFFCURVE",
"335 307 CURVE SMOOTH",
"335 430 OFFCURVE",
"434 627 OFFCURVE",
"549 627 CURVE SMOOTH",
"597 627 OFFCURVE",
"630 593 OFFCURVE",
"630 547 CURVE SMOOTH",
"630 539 OFFCURVE",
"629 530 OFFCURVE",
"627 521 CURVE",
"638 519 OFFCURVE",
"660 515 OFFCURVE",
"682 515 CURVE SMOOTH",
"743 515 OFFCURVE",
"821 543 OFFCURVE",
"821 643 CURVE SMOOTH",
"821 770 OFFCURVE",
"693 822 OFFCURVE",
"557 822 CURVE SMOOTH",
"266 822 OFFCURVE",
"36 589 OFFCURVE",
"36 292 CURVE SMOOTH"
);
}
);
width = 763;
},
{
associatedMasterId = "BE599D47-15C2-4DC8-BE97-05FFE6CA3179";
layerId = "529CB9E8-6538-447A-948A-752476FF5489";
name = "Regular Italic Mar 27 16, 16:27";
paths = (
{
closed = 1;
nodes = (
"62 30 OFFCURVE",
"182 -73 OFFCURVE",
"397 -73 CURVE SMOOTH",
"569 -73 OFFCURVE",
"734 -6 OFFCURVE",
"734 146 CURVE SMOOTH",
"734 172 OFFCURVE",
"730 207 OFFCURVE",
"708 252 CURVE",
"646 190 OFFCURVE",
"558 157 OFFCURVE",
"467 157 CURVE SMOOTH",
"432 157 OFFCURVE",
"372 176 OFFCURVE",
"372 266 CURVE SMOOTH",
"372 382 OFFCURVE",
"472 586 OFFCURVE",
"575 586 CURVE SMOOTH",
"609 586 OFFCURVE",
"622 563 OFFCURVE",
"622 531 CURVE SMOOTH",
"622 484 OFFCURVE",
"595 431 OFFCURVE",
"554 384 CURVE",
"585 367 OFFCURVE",
"617 359 OFFCURVE",
"648 359 CURVE SMOOTH",
"745 359 OFFCURVE",
"834 443 OFFCURVE",
"834 567 CURVE SMOOTH",
"834 699 OFFCURVE",
"736 773 OFFCURVE",
"579 773 CURVE SMOOTH",
"296 773 OFFCURVE",
"62 539 OFFCURVE",
"62 245 CURVE SMOOTH"
);
}
);
width = 776;
},
{
associatedMasterId = "BE599D47-15C2-4DC8-BE97-05FFE6CA3179";
background = {
paths = (
{
closed = 1;
nodes = (
"62 30 OFFCURVE",
"182 -73 OFFCURVE",
"397 -73 CURVE SMOOTH",
"569 -73 OFFCURVE",
"734 -6 OFFCURVE",
"734 146 CURVE SMOOTH",
"734 172 OFFCURVE",
"730 207 OFFCURVE",
"708 252 CURVE",
"646 190 OFFCURVE",
"558 157 OFFCURVE",
"467 157 CURVE SMOOTH",
"432 157 OFFCURVE",
"372 176 OFFCURVE",
"372 266 CURVE SMOOTH",
"372 382 OFFCURVE",
"472 586 OFFCURVE",
"575 586 CURVE SMOOTH",
"609 586 OFFCURVE",
"622 563 OFFCURVE",
"622 531 CURVE SMOOTH",
"622 484 OFFCURVE",
"595 431 OFFCURVE",
"554 384 CURVE",
"585 367 OFFCURVE",
"617 359 OFFCURVE",
"648 359 CURVE SMOOTH",
"745 359 OFFCURVE",
"834 443 OFFCURVE",
"834 567 CURVE SMOOTH",
"834 699 OFFCURVE",
"736 773 OFFCURVE",
"579 773 CURVE SMOOTH",
"296 773 OFFCURVE",
"62 539 OFFCURVE",
"62 245 CURVE SMOOTH"
);
}
);
};
layerId = "ABCC03B8-054B-4498-A1B0-800F370B2A89";
name = "Regular Italic Mar 27 16, 16:30";
paths = (
{
closed = 1;
nodes = (
"62 30 OFFCURVE",
"182 -73 OFFCURVE",
"397 -73 CURVE SMOOTH",
"585 -73 OFFCURVE",
"742 6 OFFCURVE",
"742 189 CURVE",
"581 250 LINE",
"607 141 OFFCURVE",
"558 109 OFFCURVE",
"467 109 CURVE SMOOTH",
"432 109 OFFCURVE",
"372 136 OFFCURVE",
"372 266 CURVE SMOOTH",
"372 388 OFFCURVE",
"480 602 OFFCURVE",
"590 602 CURVE SMOOTH",
"625 602 OFFCURVE",
"640 578 OFFCURVE",
"641 547 CURVE SMOOTH",
"642 490 OFFCURVE",
"638 468 OFFCURVE",
"596 422 CURVE",
"627 404 OFFCURVE",
"659 396 OFFCURVE",
"690 396 CURVE SMOOTH",
"771 396 OFFCURVE",
"834 471 OFFCURVE",
"834 567 CURVE SMOOTH",
"834 699 OFFCURVE",
"736 773 OFFCURVE",
"579 773 CURVE SMOOTH",
"296 773 OFFCURVE",
"62 539 OFFCURVE",
"62 245 CURVE SMOOTH"
);
},
{
closed = 1;
nodes = (
"796 176 OFFCURVE",
"849 226 OFFCURVE",
"864 356 CURVE",
"829 340 OFFCURVE",
"798 336 OFFCURVE",
"770 336 CURVE SMOOTH",
"713 336 OFFCURVE",
"650 353 OFFCURVE",
"598 353 CURVE SMOOTH",
"510 353 OFFCURVE",
"454 254 OFFCURVE",
"455 181 CURVE",
"479 189 OFFCURVE",
"501 190 OFFCURVE",
"530 190 CURVE SMOOTH",
"606 190 OFFCURVE",
"650 176 OFFCURVE",
"711 176 CURVE SMOOTH"
);
}
);
width = 800;
},
{
associatedMasterId = "BE599D47-15C2-4DC8-BE97-05FFE6CA3179";
background = {
paths = (
{
closed = 1;
nodes = (
"62 30 OFFCURVE",
"182 -73 OFFCURVE",
"397 -73 CURVE SMOOTH",
"569 -73 OFFCURVE",
"734 -6 OFFCURVE",
"734 146 CURVE SMOOTH",
"734 172 OFFCURVE",
"730 207 OFFCURVE",
"708 252 CURVE",
"646 190 OFFCURVE",
"558 157 OFFCURVE",
"467 157 CURVE SMOOTH",
"432 157 OFFCURVE",
"372 176 OFFCURVE",
"372 266 CURVE SMOOTH",
"372 382 OFFCURVE",
"472 586 OFFCURVE",
"575 586 CURVE SMOOTH",
"609 586 OFFCURVE",
"622 563 OFFCURVE",
"622 531 CURVE SMOOTH",
"622 484 OFFCURVE",
"595 431 OFFCURVE",
"554 384 CURVE",
"585 367 OFFCURVE",
"617 359 OFFCURVE",
"648 359 CURVE SMOOTH",
"745 359 OFFCURVE",
"834 443 OFFCURVE",
"834 567 CURVE SMOOTH",
"834 699 OFFCURVE",
"736 773 OFFCURVE",
"579 773 CURVE SMOOTH",
"296 773 OFFCURVE",
"62 539 OFFCURVE",
"62 245 CURVE SMOOTH"
);
}
);
};
layerId = "D02F85D7-0836-43C9-8621-D4214BDB811B";
name = "Regular Italic Mar 27 16, 16:31";
paths = (
{
closed = 1;
nodes = (
"62 30 OFFCURVE",
"182 -73 OFFCURVE",
"397 -73 CURVE SMOOTH",
"533 -73 OFFCURVE",
"602 -15 OFFCURVE",
"669 -95 CURVE",
"678 -28 OFFCURVE",
"750 186 OFFCURVE",
"817 332 CURVE",
"782 316 OFFCURVE",
"752 312 OFFCURVE",
"724 312 CURVE SMOOTH",
"666 312 OFFCURVE",
"587 337 OFFCURVE",
"535 337 CURVE SMOOTH",
"447 337 OFFCURVE",
"454 244 OFFCURVE",
"455 181 CURVE",
"490 192 OFFCURVE",
"530 192 OFFCURVE",
"578 188 CURVE",
"573 129 OFFCURVE",
"513 109 OFFCURVE",
"467 109 CURVE SMOOTH",
"432 109 OFFCURVE",
"372 136 OFFCURVE",
"372 266 CURVE SMOOTH",
"372 388 OFFCURVE",
"480 602 OFFCURVE",
"590 602 CURVE SMOOTH",
"625 602 OFFCURVE",
"640 578 OFFCURVE",
"641 547 CURVE SMOOTH",
"642 490 OFFCURVE",
"638 468 OFFCURVE",
"596 422 CURVE",
"627 404 OFFCURVE",
"659 396 OFFCURVE",
"690 396 CURVE SMOOTH",
"771 396 OFFCURVE",
"834 471 OFFCURVE",
"834 567 CURVE SMOOTH",
"834 699 OFFCURVE",
"736 773 OFFCURVE",
"579 773 CURVE SMOOTH",
"296 773 OFFCURVE",
"62 539 OFFCURVE",
"62 245 CURVE SMOOTH"
);
}
);
width = 800;
},
{
associatedMasterId = "BE599D47-15C2-4DC8-BE97-05FFE6CA3179";
background = {
paths = (
{
closed = 1;
nodes = (
"62 30 OFFCURVE",
"182 -73 OFFCURVE",
"397 -73 CURVE SMOOTH",
"569 -73 OFFCURVE",
"734 -6 OFFCURVE",
"734 146 CURVE SMOOTH",
"734 172 OFFCURVE",
"730 207 OFFCURVE",
"708 252 CURVE",
"646 190 OFFCURVE",
"558 157 OFFCURVE",
"467 157 CURVE SMOOTH",
"432 157 OFFCURVE",
"372 176 OFFCURVE",
"372 266 CURVE SMOOTH",
"372 382 OFFCURVE",
"472 586 OFFCURVE",
"575 586 CURVE SMOOTH",
"609 586 OFFCURVE",
"622 563 OFFCURVE",
"622 531 CURVE SMOOTH",
"622 484 OFFCURVE",
"595 431 OFFCURVE",
"554 384 CURVE",
"585 367 OFFCURVE",
"617 359 OFFCURVE",
"648 359 CURVE SMOOTH",
"745 359 OFFCURVE",
"834 443 OFFCURVE",
"834 567 CURVE SMOOTH",
"834 699 OFFCURVE",
"736 773 OFFCURVE",
"579 773 CURVE SMOOTH",
"296 773 OFFCURVE",
"62 539 OFFCURVE",
"62 245 CURVE SMOOTH"
);
}
);
};
layerId = "32DBA38F-B4E2-4B64-BD66-70E9E3D40764";
name = "Regular Italic Mar 27 16, 16:31";
paths = (
{
closed = 1;
nodes = (
"62 30 OFFCURVE",
"182 -73 OFFCURVE",
"397 -73 CURVE SMOOTH",
"533 -73 OFFCURVE",
"602 -15 OFFCURVE",
"669 -95 CURVE",
"745 165 OFFCURVE",
"817 288 OFFCURVE",
"724 312 CURVE SMOOTH",
"668 327 OFFCURVE",
"587 337 OFFCURVE",
"535 337 CURVE SMOOTH",
"447 337 OFFCURVE",
"454 244 OFFCURVE",
"455 181 CURVE",
"490 192 OFFCURVE",
"530 192 OFFCURVE",
"578 188 CURVE",
"573 129 OFFCURVE",
"513 109 OFFCURVE",
"467 109 CURVE SMOOTH",
"432 109 OFFCURVE",
"372 136 OFFCURVE",
"372 266 CURVE SMOOTH",
"372 388 OFFCURVE",
"480 602 OFFCURVE",
"590 602 CURVE SMOOTH",
"625 602 OFFCURVE",
"640 578 OFFCURVE",
"641 547 CURVE SMOOTH",
"642 490 OFFCURVE",
"638 468 OFFCURVE",
"596 422 CURVE",
"627 404 OFFCURVE",
"659 396 OFFCURVE",
"690 396 CURVE SMOOTH",
"771 396 OFFCURVE",
"834 471 OFFCURVE",
"834 567 CURVE SMOOTH",
"834 699 OFFCURVE",
"736 773 OFFCURVE",
"579 773 CURVE SMOOTH",
"296 773 OFFCURVE",
"62 539 OFFCURVE",
"62 245 CURVE SMOOTH"
);
}
);
width = 800;
},
{
associatedMasterId = "BE599D47-15C2-4DC8-BE97-05FFE6CA3179";
background = {
paths = (
{
closed = 1;
nodes = (
"62 30 OFFCURVE",
"182 -73 OFFCURVE",
"397 -73 CURVE SMOOTH",
"569 -73 OFFCURVE",
"734 -6 OFFCURVE",
"734 146 CURVE SMOOTH",
"734 172 OFFCURVE",
"730 207 OFFCURVE",
"708 252 CURVE",
"646 190 OFFCURVE",
"558 157 OFFCURVE",
"467 157 CURVE SMOOTH",
"432 157 OFFCURVE",
"372 176 OFFCURVE",
"372 266 CURVE SMOOTH",
"372 382 OFFCURVE",
"472 586 OFFCURVE",
"575 586 CURVE SMOOTH",
"609 586 OFFCURVE",
"622 563 OFFCURVE",
"622 531 CURVE SMOOTH",
"622 484 OFFCURVE",
"595 431 OFFCURVE",
"554 384 CURVE",
"585 367 OFFCURVE",
"617 359 OFFCURVE",
"648 359 CURVE SMOOTH",
"745 359 OFFCURVE",
"834 443 OFFCURVE",
"834 567 CURVE SMOOTH",
"834 699 OFFCURVE",
"736 773 OFFCURVE",
"579 773 CURVE SMOOTH",
"296 773 OFFCURVE",
"62 539 OFFCURVE",
"62 245 CURVE SMOOTH"
);
}
);
};
layerId = "6D725111-3A13-414D-BA80-2F5641CDDF89";
name = "Regular Italic Mar 27 16, 16:34";
paths = (
{
closed = 1;
nodes = (
"62 30 OFFCURVE",
"182 -73 OFFCURVE",
"397 -73 CURVE SMOOTH",
"636 -73 OFFCURVE",
"761 38 OFFCURVE",
"777 324 CURVE",
"721 339 OFFCURVE",
"595 361 OFFCURVE",
"543 361 CURVE SMOOTH",
"468 361 OFFCURVE",
"427 304 OFFCURVE",
"455 197 CURVE",
"477 204 OFFCURVE",
"507 206 OFFCURVE",
"538 206 CURVE SMOOTH",
"557 206 OFFCURVE",
"576 205 OFFCURVE",
"594 204 CURVE",
"589 145 OFFCURVE",
"511 120 OFFCURVE",
"467 124 CURVE SMOOTH",
"432 127 OFFCURVE",
"372 152 OFFCURVE",
"372 266 CURVE SMOOTH",
"372 388 OFFCURVE",
"464 578 OFFCURVE",
"575 578 CURVE SMOOTH",
"642 578 OFFCURVE",
"691 559 OFFCURVE",
"691 483 CURVE",
"728 475 OFFCURVE",
"848 487 OFFCURVE",
"848 606 CURVE SMOOTH",
"848 706 OFFCURVE",
"736 773 OFFCURVE",
"579 773 CURVE SMOOTH",
"296 773 OFFCURVE",
"62 539 OFFCURVE",
"62 245 CURVE SMOOTH"
);
}
);
width = 800;
},
{
associatedMasterId = "BE599D47-15C2-4DC8-BE97-05FFE6CA3179";
background = {
paths = (
{
closed = 1;
nodes = (
"62 30 OFFCURVE",
"182 -73 OFFCURVE",
"397 -73 CURVE SMOOTH",
"569 -73 OFFCURVE",
"734 -6 OFFCURVE",
"734 146 CURVE SMOOTH",
"734 172 OFFCURVE",
"730 207 OFFCURVE",
"708 252 CURVE",
"646 190 OFFCURVE",
"558 157 OFFCURVE",
"467 157 CURVE SMOOTH",
"432 157 OFFCURVE",
"372 176 OFFCURVE",
"372 266 CURVE SMOOTH",
"372 382 OFFCURVE",
"472 586 OFFCURVE",
"575 586 CURVE SMOOTH",
"609 586 OFFCURVE",
"622 563 OFFCURVE",
"622 531 CURVE SMOOTH",
"622 484 OFFCURVE",
"595 431 OFFCURVE",
"554 384 CURVE",
"585 367 OFFCURVE",
"617 359 OFFCURVE",
"648 359 CURVE SMOOTH",
"745 359 OFFCURVE",
"834 443 OFFCURVE",
"834 567 CURVE SMOOTH",
"834 699 OFFCURVE",
"736 773 OFFCURVE",
"579 773 CURVE SMOOTH",
"296 773 OFFCURVE",
"62 539 OFFCURVE",
"62 245 CURVE SMOOTH"
);
}
);
};
layerId = "AD1684EF-E613-46A6-AF9E-6C75B606CB11";
name = "Regular Italic Mar 27 16, 16:35";
paths = (
{
closed = 1;
nodes = (
"62 30 OFFCURVE",
"182 -73 OFFCURVE",
"397 -73 CURVE SMOOTH",
"636 -73 OFFCURVE",
"786 45 OFFCURVE",
"788 347 CURVE",
"732 361 OFFCURVE",
"606 384 OFFCURVE",
"555 384 CURVE SMOOTH",
"493 384 OFFCURVE",
"447 338 OFFCURVE",
"447 263 CURVE SMOOTH",
"447 246 OFFCURVE",
"449 228 OFFCURVE",
"455 208 CURVE",
"472 214 OFFCURVE",
"499 217 OFFCURVE",
"527 217 CURVE SMOOTH",
"542 217 OFFCURVE",
"556 217 OFFCURVE",
"570 215 CURVE",
"566 156 OFFCURVE",
"503 135 OFFCURVE",
"467 135 CURVE SMOOTH",
"432 135 OFFCURVE",
"372 152 OFFCURVE",
"372 266 CURVE SMOOTH",
"372 388 OFFCURVE",
"464 578 OFFCURVE",
"575 578 CURVE SMOOTH",
"625 578 OFFCURVE",
"657 543 OFFCURVE",
"657 498 CURVE SMOOTH",
"657 490 OFFCURVE",
"656 480 OFFCURVE",
"654 471 CURVE",
"665 469 OFFCURVE",
"686 465 OFFCURVE",
"710 465 CURVE SMOOTH",
"769 465 OFFCURVE",
"848 487 OFFCURVE",
"848 606 CURVE SMOOTH",
"848 706 OFFCURVE",
"736 773 OFFCURVE",
"579 773 CURVE SMOOTH",
"296 773 OFFCURVE",
"62 539 OFFCURVE",
"62 245 CURVE SMOOTH"
);
}
);
width = 800;
},
{
associatedMasterId = "BE599D47-15C2-4DC8-BE97-05FFE6CA3179";
background = {
paths = (
{
closed = 1;
nodes = (
"62 30 OFFCURVE",
"182 -73 OFFCURVE",
"397 -73 CURVE SMOOTH",
"636 -73 OFFCURVE",
"786 45 OFFCURVE",
"788 347 CURVE",
"732 361 OFFCURVE",
"606 384 OFFCURVE",
"555 384 CURVE SMOOTH",
"493 384 OFFCURVE",
"447 338 OFFCURVE",
"447 263 CURVE SMOOTH",
"447 246 OFFCURVE",
"449 228 OFFCURVE",
"455 208 CURVE",
"472 214 OFFCURVE",
"499 217 OFFCURVE",
"527 217 CURVE SMOOTH",
"542 217 OFFCURVE",
"556 217 OFFCURVE",
"570 215 CURVE",
"566 156 OFFCURVE",
"503 135 OFFCURVE",
"467 135 CURVE SMOOTH",
"432 135 OFFCURVE",
"372 152 OFFCURVE",
"372 266 CURVE SMOOTH",
"372 388 OFFCURVE",
"464 578 OFFCURVE",
"575 578 CURVE SMOOTH",
"625 578 OFFCURVE",
"657 543 OFFCURVE",
"657 498 CURVE SMOOTH",
"657 490 OFFCURVE",
"656 480 OFFCURVE",
"654 471 CURVE",
"665 469 OFFCURVE",
"686 465 OFFCURVE",
"710 465 CURVE SMOOTH",
"769 465 OFFCURVE",
"848 487 OFFCURVE",
"848 606 CURVE SMOOTH",
"848 706 OFFCURVE",
"736 773 OFFCURVE",
"579 773 CURVE SMOOTH",
"296 773 OFFCURVE",
"62 539 OFFCURVE",
"62 245 CURVE SMOOTH"
);
}
);
};
layerId = "897CF628-6DFD-4C95-B5FD-C12008AACFF1";
name = "Regular Italic Mar 27 16, 16:36";
paths = (
{
closed = 1;
nodes = (
"62 30 OFFCURVE",
"181 -73 OFFCURVE",
"400 -73 CURVE SMOOTH",
"638 -73 OFFCURVE",
"787 49 OFFCURVE",
"788 347 CURVE",
"732 361 OFFCURVE",
"605 384 OFFCURVE",
"558 384 CURVE SMOOTH",
"491 384 OFFCURVE",
"447 338 OFFCURVE",
"447 263 CURVE SMOOTH",
"447 246 OFFCURVE",
"449 228 OFFCURVE",
"455 208 CURVE",
"472 214 OFFCURVE",
"499 217 OFFCURVE",
"527 217 CURVE SMOOTH",
"542 217 OFFCURVE",
"556 217 OFFCURVE",
"570 215 CURVE",
"566 158 OFFCURVE",
"509 135 OFFCURVE",
"470 135 CURVE SMOOTH",
"433 135 OFFCURVE",
"372 155 OFFCURVE",
"372 261 CURVE SMOOTH",
"372 392 OFFCURVE",
"464 578 OFFCURVE",
"576 578 CURVE SMOOTH",
"624 578 OFFCURVE",
"657 543 OFFCURVE",
"657 497 CURVE SMOOTH",
"657 490 OFFCURVE",
"656 480 OFFCURVE",
"654 471 CURVE",
"665 469 OFFCURVE",
"686 465 OFFCURVE",
"709 465 CURVE SMOOTH",
"769 465 OFFCURVE",
"848 494 OFFCURVE",
"848 594 CURVE SMOOTH",
"848 721 OFFCURVE",
"720 773 OFFCURVE",
"583 773 CURVE SMOOTH",
"293 773 OFFCURVE",
"62 539 OFFCURVE",
"62 243 CURVE SMOOTH"
);
}
);
width = 800;
},
{
associatedMasterId = "BE599D47-15C2-4DC8-BE97-05FFE6CA3179";
background = {
paths = (
{
closed = 1;
nodes = (
"62 30 OFFCURVE",
"182 -73 OFFCURVE",
"397 -73 CURVE SMOOTH",
"636 -73 OFFCURVE",
"786 45 OFFCURVE",
"788 347 CURVE",
"732 361 OFFCURVE",
"606 384 OFFCURVE",
"555 384 CURVE SMOOTH",
"493 384 OFFCURVE",
"447 338 OFFCURVE",
"447 263 CURVE SMOOTH",
"447 246 OFFCURVE",
"449 228 OFFCURVE",
"455 208 CURVE",
"472 214 OFFCURVE",
"499 217 OFFCURVE",
"527 217 CURVE SMOOTH",
"542 217 OFFCURVE",
"556 217 OFFCURVE",
"570 215 CURVE",
"566 156 OFFCURVE",
"503 135 OFFCURVE",
"467 135 CURVE SMOOTH",
"432 135 OFFCURVE",
"372 152 OFFCURVE",
"372 266 CURVE SMOOTH",
"372 388 OFFCURVE",
"464 578 OFFCURVE",
"575 578 CURVE SMOOTH",
"625 578 OFFCURVE",
"657 543 OFFCURVE",
"657 498 CURVE SMOOTH",
"657 490 OFFCURVE",
"656 480 OFFCURVE",
"654 471 CURVE",
"665 469 OFFCURVE",
"686 465 OFFCURVE",
"710 465 CURVE SMOOTH",
"769 465 OFFCURVE",
"848 487 OFFCURVE",
"848 606 CURVE SMOOTH",
"848 706 OFFCURVE",
"736 773 OFFCURVE",
"579 773 CURVE SMOOTH",
"296 773 OFFCURVE",
"62 539 OFFCURVE",
"62 245 CURVE SMOOTH"
);
}
);
};
layerId = "E9BEE757-DD55-4DEF-B10D-16427650F74F";
name = "Regular Italic Mar 27 16, 16:37";
paths = (
{
closed = 1;
nodes = (
"62 30 OFFCURVE",
"181 -73 OFFCURVE",
"400 -73 CURVE SMOOTH",
"638 -73 OFFCURVE",
"787 49 OFFCURVE",
"788 347 CURVE",
"732 361 OFFCURVE",
"605 384 OFFCURVE",
"558 384 CURVE SMOOTH",
"491 384 OFFCURVE",
"447 338 OFFCURVE",
"447 263 CURVE SMOOTH",
"447 246 OFFCURVE",
"449 228 OFFCURVE",
"455 208 CURVE",
"472 214 OFFCURVE",
"499 217 OFFCURVE",
"527 217 CURVE SMOOTH",
"542 217 OFFCURVE",
"556 217 OFFCURVE",
"570 215 CURVE",
"549 161 OFFCURVE",
"504 134 OFFCURVE",
"461 134 CURVE SMOOTH",
"410 134 OFFCURVE",
"362 171 OFFCURVE",
"362 243 CURVE SMOOTH",
"362 248 OFFCURVE",
"362 255 OFFCURVE",
"363 261 CURVE SMOOTH",
"376 392 OFFCURVE",
"456 578 OFFCURVE",
"576 578 CURVE SMOOTH",
"624 578 OFFCURVE",
"657 543 OFFCURVE",
"657 497 CURVE SMOOTH",
"657 490 OFFCURVE",
"656 480 OFFCURVE",
"654 471 CURVE",
"665 469 OFFCURVE",
"686 465 OFFCURVE",
"709 465 CURVE SMOOTH",
"769 465 OFFCURVE",
"848 494 OFFCURVE",
"848 594 CURVE SMOOTH",
"848 721 OFFCURVE",
"720 773 OFFCURVE",
"583 773 CURVE SMOOTH",
"293 773 OFFCURVE",
"62 539 OFFCURVE",
"62 243 CURVE SMOOTH"
);
}
);
width = 800;
},
{
associatedMasterId = "BE599D47-15C2-4DC8-BE97-05FFE6CA3179";
background = {
paths = (
{
closed = 1;
nodes = (
"62 30 OFFCURVE",
"181 -73 OFFCURVE",
"400 -73 CURVE SMOOTH",
"638 -73 OFFCURVE",
"787 49 OFFCURVE",
"788 347 CURVE",
"732 361 OFFCURVE",
"605 384 OFFCURVE",
"558 384 CURVE SMOOTH",
"491 384 OFFCURVE",
"447 338 OFFCURVE",
"447 263 CURVE SMOOTH",
"447 246 OFFCURVE",
"449 228 OFFCURVE",
"455 208 CURVE",
"472 214 OFFCURVE",
"499 217 OFFCURVE",
"527 217 CURVE SMOOTH",
"542 217 OFFCURVE",
"556 217 OFFCURVE",
"570 215 CURVE",
"549 161 OFFCURVE",
"504 134 OFFCURVE",
"461 134 CURVE SMOOTH",
"410 134 OFFCURVE",
"362 171 OFFCURVE",
"362 243 CURVE SMOOTH",
"362 248 OFFCURVE",
"362 255 OFFCURVE",
"363 261 CURVE SMOOTH",
"376 392 OFFCURVE",
"456 578 OFFCURVE",
"576 578 CURVE SMOOTH",
"624 578 OFFCURVE",
"657 543 OFFCURVE",
"657 497 CURVE SMOOTH",
"657 490 OFFCURVE",
"656 480 OFFCURVE",
"654 471 CURVE",
"665 469 OFFCURVE",
"686 465 OFFCURVE",
"709 465 CURVE SMOOTH",
"769 465 OFFCURVE",
"848 494 OFFCURVE",
"848 594 CURVE SMOOTH",
"848 721 OFFCURVE",
"720 773 OFFCURVE",
"583 773 CURVE SMOOTH",
"293 773 OFFCURVE",
"62 539 OFFCURVE",
"62 243 CURVE SMOOTH"
);
}
);
};
layerId = "F0BFB48A-FE12-442E-8BCB-C5A3C3D4BFD6";
name = "Regular Italic Mar 27 16, 16:43";
paths = (
{
closed = 1;
nodes = (
"62 30 OFFCURVE",
"181 -73 OFFCURVE",
"400 -73 CURVE SMOOTH",
"638 -73 OFFCURVE",
"787 49 OFFCURVE",
"788 347 CURVE",
"732 361 OFFCURVE",
"605 384 OFFCURVE",
"558 384 CURVE SMOOTH",
"491 384 OFFCURVE",
"447 338 OFFCURVE",
"447 263 CURVE SMOOTH",
"447 246 OFFCURVE",
"449 228 OFFCURVE",
"455 208 CURVE",
"472 214 OFFCURVE",
"499 217 OFFCURVE",
"527 217 CURVE SMOOTH",
"542 217 OFFCURVE",
"556 217 OFFCURVE",
"570 215 CURVE",
"549 161 OFFCURVE",
"504 134 OFFCURVE",
"461 134 CURVE SMOOTH",
"410 134 OFFCURVE",
"362 171 OFFCURVE",
"362 257 CURVE SMOOTH",
"362 380 OFFCURVE",
"461 578 OFFCURVE",
"576 578 CURVE SMOOTH",
"624 578 OFFCURVE",
"657 543 OFFCURVE",
"657 497 CURVE SMOOTH",
"657 490 OFFCURVE",
"656 480 OFFCURVE",
"654 471 CURVE",
"665 469 OFFCURVE",
"686 465 OFFCURVE",
"709 465 CURVE SMOOTH",
"769 465 OFFCURVE",
"848 494 OFFCURVE",
"848 594 CURVE SMOOTH",
"848 721 OFFCURVE",
"720 773 OFFCURVE",
"583 773 CURVE SMOOTH",
"293 773 OFFCURVE",
"62 539 OFFCURVE",
"62 243 CURVE SMOOTH"
);
}
);
width = 800;
},
{
associatedMasterId = "BE599D47-15C2-4DC8-BE97-05FFE6CA3179";
background = {
paths = (
{
closed = 1;
nodes = (
"62 30 OFFCURVE",
"181 -73 OFFCURVE",
"400 -73 CURVE SMOOTH",
"638 -73 OFFCURVE",
"787 49 OFFCURVE",
"788 347 CURVE",
"732 361 OFFCURVE",
"605 384 OFFCURVE",
"558 384 CURVE SMOOTH",
"491 384 OFFCURVE",
"447 338 OFFCURVE",
"447 263 CURVE SMOOTH",
"447 246 OFFCURVE",
"449 228 OFFCURVE",
"455 208 CURVE",
"472 214 OFFCURVE",
"499 217 OFFCURVE",
"527 217 CURVE SMOOTH",
"542 217 OFFCURVE",
"556 217 OFFCURVE",
"570 215 CURVE",
"549 161 OFFCURVE",
"504 134 OFFCURVE",
"461 134 CURVE SMOOTH",
"410 134 OFFCURVE",
"362 171 OFFCURVE",
"362 243 CURVE SMOOTH",
"362 248 OFFCURVE",
"362 255 OFFCURVE",
"363 261 CURVE SMOOTH",
"376 392 OFFCURVE",
"456 578 OFFCURVE",
"576 578 CURVE SMOOTH",
"624 578 OFFCURVE",
"657 543 OFFCURVE",
"657 497 CURVE SMOOTH",
"657 490 OFFCURVE",
"656 480 OFFCURVE",
"654 471 CURVE",
"665 469 OFFCURVE",
"686 465 OFFCURVE",
"709 465 CURVE SMOOTH",
"769 465 OFFCURVE",
"848 494 OFFCURVE",
"848 594 CURVE SMOOTH",
"848 721 OFFCURVE",
"720 773 OFFCURVE",
"583 773 CURVE SMOOTH",
"293 773 OFFCURVE",
"62 539 OFFCURVE",
"62 243 CURVE SMOOTH"
);
}
);
};
layerId = "0F069C50-FF73-4A7C-940A-0C0B45FB5818";
name = "Regular Italic Mar 27 16, 16:47";
paths = (
{
closed = 1;
nodes = (
"62 30 OFFCURVE",
"181 -73 OFFCURVE",
"402 -73 CURVE SMOOTH",
"590 -73 OFFCURVE",
"716 2 OFFCURVE",
"816 355 CURVE",
"757 368 OFFCURVE",
"601 379 OFFCURVE",
"547 368 CURVE SMOOTH",
"504 359 OFFCURVE",
"470 324 OFFCURVE",
"440 216 CURVE",
"570 215 LINE",
"549 161 OFFCURVE",
"504 134 OFFCURVE",
"461 134 CURVE SMOOTH",
"410 134 OFFCURVE",
"362 171 OFFCURVE",
"362 257 CURVE SMOOTH",
"362 380 OFFCURVE",
"461 578 OFFCURVE",
"576 578 CURVE SMOOTH",
"624 578 OFFCURVE",
"657 543 OFFCURVE",
"657 497 CURVE SMOOTH",
"657 490 OFFCURVE",
"656 480 OFFCURVE",
"654 471 CURVE",
"665 469 OFFCURVE",
"686 465 OFFCURVE",
"709 465 CURVE SMOOTH",
"769 465 OFFCURVE",
"848 494 OFFCURVE",
"848 594 CURVE SMOOTH",
"848 721 OFFCURVE",
"720 773 OFFCURVE",
"583 773 CURVE SMOOTH",
"293 773 OFFCURVE",
"62 539 OFFCURVE",
"62 243 CURVE SMOOTH"
);
}
);
width = 800;
}
);
unicode = 0047;
},
{
color = 1;
glyphname = H;
lastChange = "2016-04-03 04:18:10 +0000";
layers = (
{
background = {
paths = (
{
closed = 1;
nodes = (
"221 296 LINE",
"619 296 LINE",
"641 403 LINE",
"242 403 LINE"
);
},
{
closed = 1;
nodes = (
"166 -86 OFFCURVE",
"226 -54 OFFCURVE",
"279 -16 CURVE",
"273 2 OFFCURVE",
"270 22 OFFCURVE",
"270 48 CURVE SMOOTH",
"270 277 OFFCURVE",
"476 553 OFFCURVE",
"468 695 CURVE SMOOTH",
"465 757 OFFCURVE",
"424 773 OFFCURVE",
"365 773 CURVE SMOOTH",
"292 773 OFFCURVE",
"205 750 OFFCURVE",
"128 705 CURVE",
"147 670 OFFCURVE",
"151 634 OFFCURVE",
"151 603 CURVE SMOOTH",
"151 376 OFFCURVE",
"-10 213 OFFCURVE",
"-12 26 CURVE SMOOTH",
"-13 -47 OFFCURVE",
"38 -86 OFFCURVE",
"106 -86 CURVE SMOOTH"
);
},
{
closed = 1;
nodes = (
"594 -86 OFFCURVE",
"653 -54 OFFCURVE",
"707 -16 CURVE",
"701 2 OFFCURVE",
"698 22 OFFCURVE",
"698 48 CURVE SMOOTH",
"698 277 OFFCURVE",
"903 553 OFFCURVE",
"896 695 CURVE SMOOTH",
"893 757 OFFCURVE",
"852 773 OFFCURVE",
"792 773 CURVE SMOOTH",
"719 773 OFFCURVE",
"632 750 OFFCURVE",
"556 705 CURVE",
"575 670 OFFCURVE",
"579 634 OFFCURVE",
"579 603 CURVE SMOOTH",
"579 376 OFFCURVE",
"418 213 OFFCURVE",
"416 26 CURVE SMOOTH",
"415 -47 OFFCURVE",
"465 -86 OFFCURVE",
"534 -86 CURVE SMOOTH"
);
}
);
};
layerId = "BE599D47-15C2-4DC8-BE97-05FFE6CA3179";
paths = (
{
closed = 1;
nodes = (
"173 -37 OFFCURVE",
"232 -5 OFFCURVE",
"285 34 CURVE",
"280 52 OFFCURVE",
"277 71 OFFCURVE",
"277 97 CURVE SMOOTH",
"277 319 OFFCURVE",
"482 602 OFFCURVE",
"475 745 CURVE SMOOTH",
"472 807 OFFCURVE",
"431 822 OFFCURVE",
"371 822 CURVE SMOOTH",
"298 822 OFFCURVE",
"211 800 OFFCURVE",
"134 754 CURVE",
"154 719 OFFCURVE",
"158 683 OFFCURVE",
"158 653 CURVE SMOOTH",
"158 425 OFFCURVE",
"-3 262 OFFCURVE",
"-5 75 CURVE SMOOTH",
"-6 2 OFFCURVE",
"44 -37 OFFCURVE",
"113 -37 CURVE SMOOTH"
);
},
{
closed = 1;
nodes = (
"600 -37 OFFCURVE",
"659 -5 OFFCURVE",
"713 34 CURVE",
"707 52 OFFCURVE",
"704 71 OFFCURVE",
"704 97 CURVE SMOOTH",
"704 327 OFFCURVE",
"910 602 OFFCURVE",
"902 745 CURVE SMOOTH",
"899 807 OFFCURVE",
"858 822 OFFCURVE",
"798 822 CURVE SMOOTH",
"726 822 OFFCURVE",
"639 800 OFFCURVE",
"562 754 CURVE",
"581 719 OFFCURVE",
"585 683 OFFCURVE",
"585 653 CURVE SMOOTH",
"585 433 OFFCURVE",
"424 262 OFFCURVE",
"422 75 CURVE SMOOTH",
"421 2 OFFCURVE",
"472 -37 OFFCURVE",
"540 -37 CURVE SMOOTH"
);
},
{
closed = 1;
nodes = (
"255 308 LINE",
"583 308 LINE",
"603 471 LINE",
"275 471 LINE"
);
}
);
width = 801;
},
{
associatedMasterId = "BE599D47-15C2-4DC8-BE97-05FFE6CA3179";
layerId = "D1255F81-47FD-4292-A4D5-2E2F74A5A84D";
name = "Regular Italic Mar 24 16, 01:10";
paths = (
{
closed = 1;
nodes = (
"162 -62 OFFCURVE",
"229 -30 OFFCURVE",
"275 8 CURVE",
"269 26 OFFCURVE",
"266 46 OFFCURVE",
"266 72 CURVE SMOOTH",
"266 292 OFFCURVE",
"471 559 OFFCURVE",
"464 695 CURVE SMOOTH",
"461 757 OFFCURVE",
"420 773 OFFCURVE",
"360 773 CURVE SMOOTH",
"288 773 OFFCURVE",
"206 750 OFFCURVE",
"132 705 CURVE",
"151 670 OFFCURVE",
"155 634 OFFCURVE",
"155 603 CURVE SMOOTH",
"155 385 OFFCURVE",
"-6 229 OFFCURVE",
"-8 50 CURVE SMOOTH",
"-9 -23 OFFCURVE",
"38 -62 OFFCURVE",
"102 -62 CURVE SMOOTH"
);
},
{
closed = 1;
nodes = (
"602 -62 OFFCURVE",
"669 -30 OFFCURVE",
"714 8 CURVE",
"709 26 OFFCURVE",
"706 46 OFFCURVE",
"706 72 CURVE SMOOTH",
"706 292 OFFCURVE",
"911 559 OFFCURVE",
"904 695 CURVE SMOOTH",
"901 757 OFFCURVE",
"860 773 OFFCURVE",
"800 773 CURVE SMOOTH",
"727 773 OFFCURVE",
"646 750 OFFCURVE",
"571 705 CURVE",
"590 670 OFFCURVE",
"594 634 OFFCURVE",
"594 603 CURVE SMOOTH",
"594 385 OFFCURVE",
"433 229 OFFCURVE",
"431 50 CURVE SMOOTH",
"431 -23 OFFCURVE",
"478 -62 OFFCURVE",
"542 -62 CURVE SMOOTH"
);
},
{
closed = 1;
nodes = (
"225 296 LINE",
"622 296 LINE",
"645 403 LINE",
"246 403 LINE"
);
}
);
width = 791;
}
);
unicode = 0048;
},
{
color = 1;
glyphname = I;
lastChange = "2016-04-03 04:18:10 +0000";
layers = (
{
layerId = "BE599D47-15C2-4DC8-BE97-05FFE6CA3179";
paths = (
{
closed = 1;
nodes = (
"173 -37 OFFCURVE",
"232 -5 OFFCURVE",
"285 34 CURVE",
"280 52 OFFCURVE",
"277 71 OFFCURVE",
"277 97 CURVE SMOOTH",
"277 327 OFFCURVE",
"482 602 OFFCURVE",
"475 745 CURVE SMOOTH",
"472 807 OFFCURVE",
"431 822 OFFCURVE",
"371 822 CURVE SMOOTH",
"298 822 OFFCURVE",
"211 800 OFFCURVE",
"134 754 CURVE",
"154 719 OFFCURVE",
"158 683 OFFCURVE",
"158 653 CURVE SMOOTH",
"158 425 OFFCURVE",
"-4 262 OFFCURVE",
"-5 75 CURVE SMOOTH",
"-6 2 OFFCURVE",
"44 -37 OFFCURVE",
"113 -37 CURVE SMOOTH"
);
}
);
width = 374;
},
{
associatedMasterId = "BE599D47-15C2-4DC8-BE97-05FFE6CA3179";
layerId = "5FAE9B01-1040-49BE-AB96-8A465C40B196";
name = "Regular Italic Mar 24 16, 01:01";
paths = (
{
closed = 1;
nodes = (
"162 -62 OFFCURVE",
"229 -30 OFFCURVE",
"275 8 CURVE",
"269 26 OFFCURVE",
"266 46 OFFCURVE",
"266 72 CURVE SMOOTH",
"266 292 OFFCURVE",
"471 559 OFFCURVE",
"464 695 CURVE SMOOTH",
"461 757 OFFCURVE",
"420 773 OFFCURVE",
"360 773 CURVE SMOOTH",
"288 773 OFFCURVE",
"206 750 OFFCURVE",
"132 705 CURVE",
"151 670 OFFCURVE",
"155 634 OFFCURVE",
"155 603 CURVE SMOOTH",
"155 385 OFFCURVE",
"-6 229 OFFCURVE",
"-8 50 CURVE SMOOTH",
"-9 -23 OFFCURVE",
"38 -62 OFFCURVE",
"102 -62 CURVE SMOOTH"
);
}
);
width = 352;
}
);
unicode = 0049;
},
{
color = 1;
glyphname = J;
lastChange = "2016-04-03 04:18:10 +0000";
layers = (
{
background = {
paths = (
{
closed = 1;
nodes = (
"58 -256 OFFCURVE",
"175 -197 OFFCURVE",
"278 8 CURVE SMOOTH",
"363 175 OFFCURVE",
"457 480 OFFCURVE",
"457 645 CURVE SMOOTH",
"457 757 OFFCURVE",
"414 773 OFFCURVE",
"358 773 CURVE SMOOTH",
"290 773 OFFCURVE",
"215 750 OFFCURVE",
"149 705 CURVE",
"168 670 OFFCURVE",
"172 634 OFFCURVE",
"172 603 CURVE SMOOTH",
"172 492 OFFCURVE",
"115 146 OFFCURVE",
"8 14 CURVE SMOOTH",
"-35 -39 OFFCURVE",
"-87 -59 OFFCURVE",
"-143 -59 CURVE SMOOTH",
"-159 -59 OFFCURVE",
"-176 -58 OFFCURVE",
"-193 -54 CURVE",
"-198 -70 OFFCURVE",
"-203 -89 OFFCURVE",
"-203 -110 CURVE SMOOTH",
"-203 -183 OFFCURVE",
"-148 -256 OFFCURVE",
"-40 -256 CURVE SMOOTH"
);
}
);
};
layerId = "BE599D47-15C2-4DC8-BE97-05FFE6CA3179";
paths = (
{
closed = 1;
nodes = (
"149 -222 OFFCURVE",
"239 -78 OFFCURVE",
"306 101 CURVE SMOOTH",
"417 395 OFFCURVE",
"501 625 OFFCURVE",
"501 728 CURVE SMOOTH",
"501 805 OFFCURVE",
"458 821 OFFCURVE",
"326 821 CURVE SMOOTH",
"233 821 OFFCURVE",
"149 815 OFFCURVE",
"107 647 CURVE",
"165 647 OFFCURVE",
"207 637 OFFCURVE",
"207 602 CURVE SMOOTH",
"207 552 OFFCURVE",
"140 310 OFFCURVE",
"73 163 CURVE SMOOTH",
"-8 -15 OFFCURVE",
"-80 -41 OFFCURVE",
"-207 -58 CURVE",
"-207 -175 OFFCURVE",
"-103 -222 OFFCURVE",
"-12 -222 CURVE SMOOTH"
);
}
);
width = 416;
},
{
associatedMasterId = "BE599D47-15C2-4DC8-BE97-05FFE6CA3179";
background = {
paths = (
{
closed = 1;
nodes = (
"174 -256 OFFCURVE",
"290 -197 OFFCURVE",
"395 8 CURVE SMOOTH",
"479 175 OFFCURVE",
"574 480 OFFCURVE",
"574 645 CURVE SMOOTH",
"574 757 OFFCURVE",
"530 773 OFFCURVE",
"474 773 CURVE SMOOTH",
"407 773 OFFCURVE",
"332 750 OFFCURVE",
"265 705 CURVE",
"284 670 OFFCURVE",
"288 634 OFFCURVE",
"288 603 CURVE SMOOTH",
"288 492 OFFCURVE",
"232 146 OFFCURVE",
"125 14 CURVE SMOOTH",
"82 -39 OFFCURVE",
"29 -59 OFFCURVE",
"-27 -59 CURVE SMOOTH",
"-43 -59 OFFCURVE",
"-60 -58 OFFCURVE",
"-77 -54 CURVE",
"-82 -70 OFFCURVE",
"-86 -89 OFFCURVE",
"-86 -110 CURVE SMOOTH",
"-86 -183 OFFCURVE",
"-32 -256 OFFCURVE",
"77 -256 CURVE SMOOTH"
);
}
);
};
layerId = "ACAB985A-2741-46CC-8BA9-6F7C0E7DC47B";
name = "Regular Italic Apr 1 16, 04:05";
paths = (
{
closed = 1;
nodes = (
"174 -256 OFFCURVE",
"290 -197 OFFCURVE",
"395 8 CURVE SMOOTH",
"479 175 OFFCURVE",
"574 480 OFFCURVE",
"574 645 CURVE SMOOTH",
"574 757 OFFCURVE",
"530 773 OFFCURVE",
"474 773 CURVE SMOOTH",
"407 773 OFFCURVE",
"332 750 OFFCURVE",
"265 705 CURVE",
"284 670 OFFCURVE",
"288 634 OFFCURVE",
"288 603 CURVE SMOOTH",
"288 492 OFFCURVE",
"232 146 OFFCURVE",
"125 14 CURVE SMOOTH",
"82 -39 OFFCURVE",
"29 -59 OFFCURVE",
"-27 -59 CURVE SMOOTH",
"-43 -59 OFFCURVE",
"-60 -58 OFFCURVE",
"-77 -54 CURVE",
"-82 -70 OFFCURVE",
"-86 -89 OFFCURVE",
"-86 -110 CURVE SMOOTH",
"-86 -183 OFFCURVE",
"-32 -256 OFFCURVE",
"77 -256 CURVE SMOOTH"
);
}
);
width = 521;
}
);
unicode = 004A;
},
{
color = 1;
glyphname = K;
lastChange = "2016-04-03 04:18:10 +0000";
layers = (
{
background = {
paths = (
{
closed = 1;
nodes = (
"173 -86 OFFCURVE",
"232 -54 OFFCURVE",
"285 -16 CURVE",
"280 2 OFFCURVE",
"277 22 OFFCURVE",
"277 48 CURVE SMOOTH",
"277 277 OFFCURVE",
"482 553 OFFCURVE",
"475 695 CURVE SMOOTH",
"472 757 OFFCURVE",
"431 773 OFFCURVE",
"371 773 CURVE SMOOTH",
"298 773 OFFCURVE",
"211 750 OFFCURVE",
"134 705 CURVE",
"154 670 OFFCURVE",
"158 634 OFFCURVE",
"158 603 CURVE SMOOTH",
"158 376 OFFCURVE",
"-4 213 OFFCURVE",
"-5 26 CURVE SMOOTH",
"-6 -47 OFFCURVE",
"44 -86 OFFCURVE",
"113 -86 CURVE SMOOTH"
);
},
{
closed = 1;
nodes = (
"316 300 OFFCURVE",
"332 300 OFFCURVE",
"347 300 CURVE SMOOTH",
"546 300 OFFCURVE",
"815 419 OFFCURVE",
"815 644 CURVE SMOOTH",
"815 730 OFFCURVE",
"733 773 OFFCURVE",
"635 773 CURVE",
"566 586 OFFCURVE",
"464 451 OFFCURVE",
"326 410 CURVE",
"301 301 LINE"
);
},
{
closed = 1;
nodes = (
"354 80 OFFCURVE",
"468 -62 OFFCURVE",
"581 -62 CURVE SMOOTH",
"720 -62 OFFCURVE",
"772 55 OFFCURVE",
"757 155 CURVE",
"658 175 OFFCURVE",
"583 205 OFFCURVE",
"520 342 CURVE",
"285 308 LINE"
);
}
);
};
layerId = "BE599D47-15C2-4DC8-BE97-05FFE6CA3179";
paths = (
{
closed = 1;
nodes = (
"173 -37 OFFCURVE",
"232 -5 OFFCURVE",
"285 34 CURVE",
"280 52 OFFCURVE",
"277 71 OFFCURVE",
"277 97 CURVE SMOOTH",
"277 327 OFFCURVE",
"482 602 OFFCURVE",
"475 745 CURVE SMOOTH",
"472 807 OFFCURVE",
"431 822 OFFCURVE",
"371 822 CURVE SMOOTH",
"298 822 OFFCURVE",
"211 800 OFFCURVE",
"134 754 CURVE",
"154 719 OFFCURVE",
"158 683 OFFCURVE",
"158 653 CURVE SMOOTH",
"158 425 OFFCURVE",
"-4 262 OFFCURVE",
"-5 75 CURVE SMOOTH",
"-6 2 OFFCURVE",
"44 -37 OFFCURVE",
"113 -37 CURVE SMOOTH"
);
},
{
closed = 1;
nodes = (
"316 350 OFFCURVE",
"332 350 OFFCURVE",
"347 350 CURVE SMOOTH",
"546 350 OFFCURVE",
"815 468 OFFCURVE",
"815 694 CURVE SMOOTH",
"815 780 OFFCURVE",
"733 823 OFFCURVE",
"635 822 CURVE",
"566 636 OFFCURVE",
"464 501 OFFCURVE",
"326 459 CURVE",
"301 351 LINE"
);
},
{
closed = 1;
nodes = (
"354 129 OFFCURVE",
"468 -13 OFFCURVE",
"581 -13 CURVE SMOOTH",
"720 -13 OFFCURVE",
"772 154 OFFCURVE",
"757 296 CURVE",
"726 276 OFFCURVE",
"694 265 OFFCURVE",
"662 265 CURVE SMOOTH",
"599 265 OFFCURVE",
"549 303 OFFCURVE",
"520 392 CURVE",
"285 358 LINE"
);
}
);
width = 782;
},
{
associatedMasterId = "BE599D47-15C2-4DC8-BE97-05FFE6CA3179";
layerId = "F6CBF3D6-7712-4EE2-AC38-762D28A0D85E";
name = "Regular Italic Mar 28 16, 04:43";
paths = (
{
closed = 1;
nodes = (
"170 -86 OFFCURVE",
"229 -54 OFFCURVE",
"283 -16 CURVE",
"277 2 OFFCURVE",
"274 22 OFFCURVE",
"274 48 CURVE SMOOTH",
"274 277 OFFCURVE",
"479 553 OFFCURVE",
"472 695 CURVE SMOOTH",
"469 757 OFFCURVE",
"428 773 OFFCURVE",
"368 773 CURVE SMOOTH",
"296 773 OFFCURVE",
"209 750 OFFCURVE",
"132 705 CURVE",
"151 670 OFFCURVE",
"155 634 OFFCURVE",
"155 603 CURVE SMOOTH",
"155 376 OFFCURVE",
"-6 213 OFFCURVE",
"-8 26 CURVE SMOOTH",
"-9 -47 OFFCURVE",
"42 -86 OFFCURVE",
"110 -86 CURVE SMOOTH"
);
},
{
closed = 1;
nodes = (
"313 300 OFFCURVE",
"329 300 OFFCURVE",
"344 300 CURVE SMOOTH",
"543 300 OFFCURVE",
"813 383 OFFCURVE",
"813 540 CURVE SMOOTH",
"813 626 OFFCURVE",
"730 669 OFFCURVE",
"632 668 CURVE",
"563 535 OFFCURVE",
"462 439 OFFCURVE",
"324 410 CURVE",
"298 301 LINE"
);
},
{
closed = 1;
nodes = (
"352 80 OFFCURVE",
"465 -62 OFFCURVE",
"578 -62 CURVE SMOOTH",
"718 -62 OFFCURVE",
"769 105 OFFCURVE",
"754 247 CURVE",
"723 226 OFFCURVE",
"691 216 OFFCURVE",
"659 216 CURVE SMOOTH",
"596 216 OFFCURVE",
"547 253 OFFCURVE",
"518 342 CURVE",
"282 308 LINE"
);
}
);
width = 799;
},
{
associatedMasterId = "BE599D47-15C2-4DC8-BE97-05FFE6CA3179";
background = {
paths = (
{
closed = 1;
nodes = (
"170 -86 OFFCURVE",
"229 -54 OFFCURVE",
"283 -16 CURVE",
"277 2 OFFCURVE",
"274 22 OFFCURVE",
"274 48 CURVE SMOOTH",
"274 277 OFFCURVE",
"479 553 OFFCURVE",
"472 695 CURVE SMOOTH",
"469 757 OFFCURVE",
"428 773 OFFCURVE",
"368 773 CURVE SMOOTH",
"296 773 OFFCURVE",
"209 750 OFFCURVE",
"132 705 CURVE",
"151 670 OFFCURVE",
"155 634 OFFCURVE",
"155 603 CURVE SMOOTH",
"155 376 OFFCURVE",
"-6 213 OFFCURVE",
"-8 26 CURVE SMOOTH",
"-9 -47 OFFCURVE",
"42 -86 OFFCURVE",
"110 -86 CURVE SMOOTH"
);
},
{
closed = 1;
nodes = (
"313 300 OFFCURVE",
"329 300 OFFCURVE",
"344 300 CURVE SMOOTH",
"543 300 OFFCURVE",
"813 383 OFFCURVE",
"813 540 CURVE SMOOTH",
"813 626 OFFCURVE",
"730 669 OFFCURVE",
"632 668 CURVE",
"563 535 OFFCURVE",
"462 439 OFFCURVE",
"324 410 CURVE",
"298 301 LINE"
);
},
{
closed = 1;
nodes = (
"352 80 OFFCURVE",
"465 -62 OFFCURVE",
"578 -62 CURVE SMOOTH",
"718 -62 OFFCURVE",
"769 105 OFFCURVE",
"754 247 CURVE",
"723 226 OFFCURVE",
"691 216 OFFCURVE",
"659 216 CURVE SMOOTH",
"596 216 OFFCURVE",
"547 253 OFFCURVE",
"518 342 CURVE",
"282 308 LINE"
);
}
);
};
layerId = "A98F2DEB-9BD7-4BE4-83A2-C726E3E192FF";
name = "Regular Italic Mar 28 16, 04:44";
paths = (
{
closed = 1;
nodes = (
"170 -86 OFFCURVE",
"229 -54 OFFCURVE",
"283 -16 CURVE",
"277 2 OFFCURVE",
"274 22 OFFCURVE",
"274 48 CURVE SMOOTH",
"274 277 OFFCURVE",
"479 553 OFFCURVE",
"472 695 CURVE SMOOTH",
"469 757 OFFCURVE",
"428 773 OFFCURVE",
"368 773 CURVE SMOOTH",
"296 773 OFFCURVE",
"209 750 OFFCURVE",
"132 705 CURVE",
"151 670 OFFCURVE",
"155 634 OFFCURVE",
"155 603 CURVE SMOOTH",
"155 376 OFFCURVE",
"-6 213 OFFCURVE",
"-8 26 CURVE SMOOTH",
"-9 -47 OFFCURVE",
"42 -86 OFFCURVE",
"110 -86 CURVE SMOOTH"
);
},
{
closed = 1;
nodes = (
"313 300 OFFCURVE",
"329 300 OFFCURVE",
"344 300 CURVE SMOOTH",
"543 300 OFFCURVE",
"813 419 OFFCURVE",
"813 644 CURVE SMOOTH",
"813 730 OFFCURVE",
"730 773 OFFCURVE",
"632 773 CURVE",
"563 586 OFFCURVE",
"462 451 OFFCURVE",
"324 410 CURVE",
"298 301 LINE"
);
},
{
closed = 1;
nodes = (
"352 80 OFFCURVE",
"465 -62 OFFCURVE",
"578 -62 CURVE SMOOTH",
"718 -62 OFFCURVE",
"769 105 OFFCURVE",
"754 247 CURVE",
"723 226 OFFCURVE",
"691 216 OFFCURVE",
"659 216 CURVE SMOOTH",
"596 216 OFFCURVE",
"547 253 OFFCURVE",
"518 342 CURVE",
"282 308 LINE"
);
}
);
width = 799;
},
{
associatedMasterId = "BE599D47-15C2-4DC8-BE97-05FFE6CA3179";
background = {
paths = (
{
closed = 1;
nodes = (
"170 -86 OFFCURVE",
"229 -54 OFFCURVE",
"283 -16 CURVE",
"277 2 OFFCURVE",
"274 22 OFFCURVE",
"274 48 CURVE SMOOTH",
"274 277 OFFCURVE",
"479 553 OFFCURVE",
"472 695 CURVE SMOOTH",
"469 757 OFFCURVE",
"428 773 OFFCURVE",
"368 773 CURVE SMOOTH",
"296 773 OFFCURVE",
"209 750 OFFCURVE",
"132 705 CURVE",
"151 670 OFFCURVE",
"155 634 OFFCURVE",
"155 603 CURVE SMOOTH",
"155 376 OFFCURVE",
"-6 213 OFFCURVE",
"-8 26 CURVE SMOOTH",
"-9 -47 OFFCURVE",
"42 -86 OFFCURVE",
"110 -86 CURVE SMOOTH"
);
},
{
closed = 1;
nodes = (
"313 300 OFFCURVE",
"329 300 OFFCURVE",
"344 300 CURVE SMOOTH",
"543 300 OFFCURVE",
"813 419 OFFCURVE",
"813 644 CURVE SMOOTH",
"813 730 OFFCURVE",
"730 773 OFFCURVE",
"632 773 CURVE",
"563 586 OFFCURVE",
"462 451 OFFCURVE",
"324 410 CURVE",
"298 301 LINE"
);
},
{
closed = 1;
nodes = (
"352 80 OFFCURVE",
"465 -62 OFFCURVE",
"578 -62 CURVE SMOOTH",
"718 -62 OFFCURVE",
"769 105 OFFCURVE",
"754 247 CURVE",
"723 226 OFFCURVE",
"691 216 OFFCURVE",
"659 216 CURVE SMOOTH",
"596 216 OFFCURVE",
"547 253 OFFCURVE",
"518 342 CURVE",
"282 308 LINE"
);
}
);
};
layerId = "3CD0A2FB-EF22-4968-A6B2-2293E0AD5B54";
name = "Regular Italic Mar 28 16, 04:45";
paths = (
{
closed = 1;
nodes = (
"170 -86 OFFCURVE",
"229 -54 OFFCURVE",
"283 -16 CURVE",
"277 2 OFFCURVE",
"274 22 OFFCURVE",
"274 48 CURVE SMOOTH",
"274 277 OFFCURVE",
"479 553 OFFCURVE",
"472 695 CURVE SMOOTH",
"469 757 OFFCURVE",
"428 773 OFFCURVE",
"368 773 CURVE SMOOTH",
"296 773 OFFCURVE",
"209 750 OFFCURVE",
"132 705 CURVE",
"151 670 OFFCURVE",
"155 634 OFFCURVE",
"155 603 CURVE SMOOTH",
"155 376 OFFCURVE",
"-6 213 OFFCURVE",
"-8 26 CURVE SMOOTH",
"-9 -47 OFFCURVE",
"42 -86 OFFCURVE",
"110 -86 CURVE SMOOTH"
);
},
{
closed = 1;
nodes = (
"313 300 OFFCURVE",
"329 300 OFFCURVE",
"344 300 CURVE SMOOTH",
"543 300 OFFCURVE",
"813 419 OFFCURVE",
"813 644 CURVE SMOOTH",
"813 730 OFFCURVE",
"730 773 OFFCURVE",
"632 773 CURVE",
"563 586 OFFCURVE",
"462 451 OFFCURVE",
"324 410 CURVE",
"298 301 LINE"
);
},
{
closed = 1;
nodes = (
"352 80 OFFCURVE",
"465 -62 OFFCURVE",
"578 -62 CURVE SMOOTH",
"718 -62 OFFCURVE",
"769 55 OFFCURVE",
"754 155 CURVE",
"655 175 OFFCURVE",
"581 205 OFFCURVE",
"518 342 CURVE",
"282 308 LINE"
);
}
);
width = 799;
}
);
unicode = 004B;
},
{
color = 1;
glyphname = L;
lastChange = "2016-04-03 04:18:10 +0000";
layers = (
{
background = {
paths = (
{
closed = 1;
nodes = (
"8 -31 OFFCURVE",
"131 -67 OFFCURVE",
"341 -67 CURVE SMOOTH",
"479 -67 OFFCURVE",
"574 -50 OFFCURVE",
"574 112 CURVE SMOOTH",
"574 145 OFFCURVE",
"572 182 OFFCURVE",
"557 205 CURVE",
"524 175 OFFCURVE",
"460 145 OFFCURVE",
"392 145 CURVE SMOOTH",
"354 145 OFFCURVE",
"322 150 OFFCURVE",
"302 158 CURVE SMOOTH",
"284 165 OFFCURVE",
"281 178 OFFCURVE",
"284 193 CURVE SMOOTH",
"326 378 OFFCURVE",
"466 569 OFFCURVE",
"466 688 CURVE SMOOTH",
"466 757 OFFCURVE",
"425 773 OFFCURVE",
"362 773 CURVE SMOOTH",
"290 773 OFFCURVE",
"208 750 OFFCURVE",
"134 705 CURVE",
"153 670 OFFCURVE",
"157 634 OFFCURVE",
"157 603 CURVE SMOOTH",
"157 385 OFFCURVE",
"11 229 OFFCURVE",
"9 130 CURVE SMOOTH"
);
}
);
};
layerId = "BE599D47-15C2-4DC8-BE97-05FFE6CA3179";
paths = (
{
closed = 1;
nodes = (
"8 18 OFFCURVE",
"119 -18 OFFCURVE",
"309 -18 CURVE SMOOTH",
"471 -18 OFFCURVE",
"548 -1 OFFCURVE",
"548 161 CURVE SMOOTH",
"548 194 OFFCURVE",
"543 212 OFFCURVE",
"525 235 CURVE",
"493 210 OFFCURVE",
"449 197 OFFCURVE",
"398 197 CURVE SMOOTH",
"359 197 OFFCURVE",
"326 201 OFFCURVE",
"306 209 CURVE SMOOTH",
"287 216 OFFCURVE",
"284 229 OFFCURVE",
"287 243 CURVE SMOOTH",
"329 428 OFFCURVE",
"466 618 OFFCURVE",
"466 738 CURVE SMOOTH",
"466 806 OFFCURVE",
"425 822 OFFCURVE",
"362 822 CURVE SMOOTH",
"290 822 OFFCURVE",
"208 800 OFFCURVE",
"134 754 CURVE",
"153 719 OFFCURVE",
"157 683 OFFCURVE",
"157 653 CURVE SMOOTH",
"157 435 OFFCURVE",
"11 278 OFFCURVE",
"9 140 CURVE SMOOTH"
);
}
);
width = 588;
},
{
associatedMasterId = "BE599D47-15C2-4DC8-BE97-05FFE6CA3179";
layerId = "0CBCE923-702A-441B-A9D4-99FFB1224413";
name = "Regular Italic Mar 24 16, 03:09";
paths = (
{
closed = 1;
nodes = (
"6 -31 OFFCURVE",
"129 -67 OFFCURVE",
"339 -67 CURVE SMOOTH",
"491 -67 OFFCURVE",
"596 -50 OFFCURVE",
"596 115 CURVE SMOOTH",
"596 142 OFFCURVE",
"590 169 OFFCURVE",
"575 193 CURVE",
"543 162 OFFCURVE",
"464 129 OFFCURVE",
"387 129 CURVE SMOOTH",
"348 129 OFFCURVE",
"317 134 OFFCURVE",
"297 142 CURVE SMOOTH",
"279 149 OFFCURVE",
"276 162 OFFCURVE",
"279 177 CURVE SMOOTH",
"321 368 OFFCURVE",
"464 565 OFFCURVE",
"464 688 CURVE SMOOTH",
"464 757 OFFCURVE",
"423 773 OFFCURVE",
"360 773 CURVE SMOOTH",
"288 773 OFFCURVE",
"206 750 OFFCURVE",
"132 705 CURVE",
"151 670 OFFCURVE",
"155 634 OFFCURVE",
"155 603 CURVE SMOOTH",
"155 385 OFFCURVE",
"9 229 OFFCURVE",
"7 130 CURVE SMOOTH"
);
}
);
width = 639;
},
{
associatedMasterId = "BE599D47-15C2-4DC8-BE97-05FFE6CA3179";
background = {
paths = (
{
closed = 1;
nodes = (
"6 -31 OFFCURVE",
"129 -67 OFFCURVE",
"339 -67 CURVE SMOOTH",
"491 -67 OFFCURVE",
"596 -50 OFFCURVE",
"596 115 CURVE SMOOTH",
"596 142 OFFCURVE",
"590 169 OFFCURVE",
"575 193 CURVE",
"543 162 OFFCURVE",
"464 129 OFFCURVE",
"387 129 CURVE SMOOTH",
"348 129 OFFCURVE",
"317 134 OFFCURVE",
"297 142 CURVE SMOOTH",
"279 149 OFFCURVE",
"276 162 OFFCURVE",
"279 177 CURVE SMOOTH",
"321 368 OFFCURVE",
"464 565 OFFCURVE",
"464 688 CURVE SMOOTH",
"464 757 OFFCURVE",
"423 773 OFFCURVE",
"360 773 CURVE SMOOTH",
"288 773 OFFCURVE",
"206 750 OFFCURVE",
"132 705 CURVE",
"151 670 OFFCURVE",
"155 634 OFFCURVE",
"155 603 CURVE SMOOTH",
"155 385 OFFCURVE",
"9 229 OFFCURVE",
"7 130 CURVE SMOOTH"
);
}
);
};
layerId = "A2550379-674D-4E9D-8256-665B917E3168";
name = "Regular Italic Mar 25 16, 02:30";
paths = (
{
closed = 1;
nodes = (
"6 -31 OFFCURVE",
"129 -67 OFFCURVE",
"339 -67 CURVE SMOOTH",
"477 -67 OFFCURVE",
"572 -50 OFFCURVE",
"572 112 CURVE SMOOTH",
"572 145 OFFCURVE",
"570 182 OFFCURVE",
"555 205 CURVE",
"522 175 OFFCURVE",
"458 145 OFFCURVE",
"390 145 CURVE SMOOTH",
"352 145 OFFCURVE",
"320 150 OFFCURVE",
"300 158 CURVE SMOOTH",
"282 165 OFFCURVE",
"279 178 OFFCURVE",
"282 193 CURVE SMOOTH",
"324 378 OFFCURVE",
"464 569 OFFCURVE",
"464 688 CURVE SMOOTH",
"464 757 OFFCURVE",
"423 773 OFFCURVE",
"360 773 CURVE SMOOTH",
"288 773 OFFCURVE",
"206 750 OFFCURVE",
"132 705 CURVE",
"151 670 OFFCURVE",
"155 634 OFFCURVE",
"155 603 CURVE SMOOTH",
"155 385 OFFCURVE",
"9 229 OFFCURVE",
"7 130 CURVE SMOOTH"
);
}
);
width = 618;
}
);
unicode = 004C;
},
{
color = 1;
glyphname = M;
lastChange = "2016-04-03 04:18:10 +0000";
layers = (
{
background = {
paths = (
{
closed = 1;
nodes = (
"-27 -38 OFFCURVE",
"4 -77 OFFCURVE",
"72 -78 CURVE SMOOTH",
"135 -78 OFFCURVE",
"211 -48 OFFCURVE",
"251 -10 CURVE",
"246 8 OFFCURVE",
"243 28 OFFCURVE",
"245 51 CURVE SMOOTH",
"251 161 OFFCURVE",
"338 426 OFFCURVE",
"382 529 CURVE",
"308 515 LINE",
"349 87 LINE SMOOTH",
"356 10 OFFCURVE",
"395 -2 OFFCURVE",
"453 -3 CURVE SMOOTH",
"511 -5 OFFCURVE",
"583 6 OFFCURVE",
"644 35 CURVE",
"643 38 OFFCURVE",
"643 42 OFFCURVE",
"644 47 CURVE SMOOTH",
"645 82 OFFCURVE",
"675 185 OFFCURVE",
"946 542 CURVE",
"914 543 LINE",
"876 455 OFFCURVE",
"752 188 OFFCURVE",
"744 40 CURVE SMOOTH",
"740 -59 OFFCURVE",
"787 -90 OFFCURVE",
"853 -91 CURVE SMOOTH",
"917 -92 OFFCURVE",
"973 -64 OFFCURVE",
"1032 -24 CURVE",
"1028 -6 OFFCURVE",
"1026 12 OFFCURVE",
"1027 46 CURVE SMOOTH",
"1038 256 OFFCURVE",
"1172 547 OFFCURVE",
"1178 668 CURVE SMOOTH",
"1182 746 OFFCURVE",
"1133 763 OFFCURVE",
"1013 765 CURVE SMOOTH",
"913 767 OFFCURVE",
"833 757 OFFCURVE",
"762 724 CURVE",
"768 714 OFFCURVE",
"771 698 OFFCURVE",
"771 687 CURVE SMOOTH",
"767 613 OFFCURVE",
"630 381 OFFCURVE",
"533 250 CURVE",
"591 221 LINE",
"557 600 LINE SMOOTH",
"543 745 OFFCURVE",
"522 773 OFFCURVE",
"415 776 CURVE SMOOTH",
"319 777 OFFCURVE",
"246 755 OFFCURVE",
"156 712 CURVE",
"173 677 OFFCURVE",
"175 642 OFFCURVE",
"174 607 CURVE SMOOTH",
"162 387 OFFCURVE",
"-13 213 OFFCURVE",
"-22 39 CURVE SMOOTH"
);
}
);
};
layerId = "BE599D47-15C2-4DC8-BE97-05FFE6CA3179";
paths = (
{
closed = 1;
nodes = (
"-27 2 OFFCURVE",
"4 -36 OFFCURVE",
"72 -37 CURVE SMOOTH",
"135 -38 OFFCURVE",
"211 -7 OFFCURVE",
"251 30 CURVE",
"246 49 OFFCURVE",
"243 69 OFFCURVE",
"245 92 CURVE SMOOTH",
"251 205 OFFCURVE",
"338 474 OFFCURVE",
"382 578 CURVE",
"308 564 LINE",
"349 137 LINE SMOOTH",
"356 60 OFFCURVE",
"395 47 OFFCURVE",
"453 46 CURVE SMOOTH",
"511 45 OFFCURVE",
"583 56 OFFCURVE",
"644 85 CURVE",
"643 88 OFFCURVE",
"643 91 OFFCURVE",
"644 97 CURVE SMOOTH",
"645 131 OFFCURVE",
"675 234 OFFCURVE",
"946 591 CURVE",
"914 592 LINE",
"876 505 OFFCURVE",
"752 241 OFFCURVE",
"744 94 CURVE SMOOTH",
"740 -5 OFFCURVE",
"787 -36 OFFCURVE",
"853 -37 CURVE SMOOTH",
"917 -38 OFFCURVE",
"973 -10 OFFCURVE",
"1032 30 CURVE",
"1028 49 OFFCURVE",
"1026 66 OFFCURVE",
"1027 101 CURVE SMOOTH",
"1038 311 OFFCURVE",
"1172 605 OFFCURVE",
"1178 725 CURVE SMOOTH",
"1182 803 OFFCURVE",
"1133 820 OFFCURVE",
"1013 822 CURVE SMOOTH",
"913 824 OFFCURVE",
"833 813 OFFCURVE",
"762 781 CURVE",
"768 771 OFFCURVE",
"771 755 OFFCURVE",
"771 744 CURVE SMOOTH",
"767 670 OFFCURVE",
"630 433 OFFCURVE",
"533 300 CURVE",
"591 271 LINE",
"557 646 LINE SMOOTH",
"543 791 OFFCURVE",
"522 820 OFFCURVE",
"415 822 CURVE SMOOTH",
"319 824 OFFCURVE",
"246 801 OFFCURVE",
"156 758 CURVE",
"173 723 OFFCURVE",
"175 688 OFFCURVE",
"174 654 CURVE SMOOTH",
"162 431 OFFCURVE",
"-13 255 OFFCURVE",
"-22 80 CURVE SMOOTH"
);
}
);
width = 1107;
},
{
associatedMasterId = "BE599D47-15C2-4DC8-BE97-05FFE6CA3179";
background = {
paths = (
{
closed = 1;
nodes = (
"201 -86 OFFCURVE",
"260 -54 OFFCURVE",
"313 -16 CURVE",
"308 2 OFFCURVE",
"304 22 OFFCURVE",
"304 48 CURVE SMOOTH",
"304 269 OFFCURVE",
"510 553 OFFCURVE",
"503 695 CURVE SMOOTH",
"499 757 OFFCURVE",
"459 773 OFFCURVE",
"399 773 CURVE SMOOTH",
"326 773 OFFCURVE",
"239 750 OFFCURVE",
"162 705 CURVE",
"181 670 OFFCURVE",
"185 634 OFFCURVE",
"185 603 CURVE SMOOTH",
"185 376 OFFCURVE",
"25 213 OFFCURVE",
"22 26 CURVE SMOOTH",
"22 -47 OFFCURVE",
"72 -86 OFFCURVE",
"141 -86 CURVE SMOOTH"
);
},
{
closed = 1;
nodes = (
"628 -86 OFFCURVE",
"687 -54 OFFCURVE",
"741 -16 CURVE",
"735 2 OFFCURVE",
"732 22 OFFCURVE",
"732 48 CURVE SMOOTH",
"732 277 OFFCURVE",
"937 553 OFFCURVE",
"930 695 CURVE SMOOTH",
"927 757 OFFCURVE",
"886 773 OFFCURVE",
"826 773 CURVE SMOOTH",
"753 773 OFFCURVE",
"666 750 OFFCURVE",
"590 705 CURVE",
"609 670 OFFCURVE",
"613 634 OFFCURVE",
"613 603 CURVE SMOOTH",
"613 384 OFFCURVE",
"452 213 OFFCURVE",
"450 26 CURVE SMOOTH",
"449 -47 OFFCURVE",
"499 -86 OFFCURVE",
"568 -86 CURVE SMOOTH"
);
},
{
closed = 1;
nodes = (
"284 280 LINE",
"612 280 LINE",
"632 404 LINE",
"304 404 LINE"
);
}
);
};
layerId = "C7EBF0CD-920A-4D11-9742-411A01A64211";
name = "Regular Italic Mar 28 16, 20:41";
paths = (
{
closed = 1;
nodes = (
"201 -86 OFFCURVE",
"260 -54 OFFCURVE",
"313 -16 CURVE",
"308 2 OFFCURVE",
"304 22 OFFCURVE",
"304 48 CURVE SMOOTH",
"304 269 OFFCURVE",
"510 553 OFFCURVE",
"503 695 CURVE SMOOTH",
"499 757 OFFCURVE",
"459 773 OFFCURVE",
"399 773 CURVE SMOOTH",
"326 773 OFFCURVE",
"239 750 OFFCURVE",
"162 705 CURVE",
"181 670 OFFCURVE",
"185 634 OFFCURVE",
"185 603 CURVE SMOOTH",
"185 376 OFFCURVE",
"25 213 OFFCURVE",
"22 26 CURVE SMOOTH",
"22 -47 OFFCURVE",
"72 -86 OFFCURVE",
"141 -86 CURVE SMOOTH"
);
},
{
closed = 1;
nodes = (
"1107 -86 OFFCURVE",
"1167 -54 OFFCURVE",
"1220 -16 CURVE",
"1215 2 OFFCURVE",
"1211 22 OFFCURVE",
"1211 48 CURVE SMOOTH",
"1211 277 OFFCURVE",
"1417 553 OFFCURVE",
"1409 695 CURVE SMOOTH",
"1406 757 OFFCURVE",
"1366 773 OFFCURVE",
"1306 773 CURVE SMOOTH",
"1233 773 OFFCURVE",
"1146 750 OFFCURVE",
"1069 705 CURVE",
"1088 670 OFFCURVE",
"1092 634 OFFCURVE",
"1092 603 CURVE SMOOTH",
"1092 384 OFFCURVE",
"932 213 OFFCURVE",
"929 26 CURVE SMOOTH",
"928 -47 OFFCURVE",
"979 -86 OFFCURVE",
"1048 -86 CURVE SMOOTH"
);
},
{
closed = 1;
nodes = (
"927 749 OFFCURVE",
"892 622 OFFCURVE",
"873 575 CURVE SMOOTH",
"826 453 OFFCURVE",
"744 340 OFFCURVE",
"662 206 CURVE",
"658 206 LINE",
"658 219 OFFCURVE",
"657 231 OFFCURVE",
"657 243 CURVE SMOOTH",
"657 373 OFFCURVE",
"705 476 OFFCURVE",
"705 602 CURVE SMOOTH",
"705 705 OFFCURVE",
"681 761 OFFCURVE",
"593 761 CURVE SMOOTH",
"516 761 OFFCURVE",
"450 726 OFFCURVE",
"398 681 CURVE",
"423 635 OFFCURVE",
"431 582 OFFCURVE",
"431 519 CURVE SMOOTH",
"431 344 OFFCURVE",
"382 181 OFFCURVE",
"382 55 CURVE SMOOTH",
"382 -46 OFFCURVE",
"419 -80 OFFCURVE",
"499 -80 CURVE SMOOTH",
"613 -80 OFFCURVE",
"722 -68 OFFCURVE",
"805 -37 CURVE",
"773 22 OFFCURVE",
"904 191 OFFCURVE",
"975 306 CURVE SMOOTH",
"1055 435 OFFCURVE",
"1138 555 OFFCURVE",
"1138 650 CURVE SMOOTH",
"1138 736 OFFCURVE",
"1078 761 OFFCURVE",
"925 779 CURVE"
);
}
);
width = 1310;
},
{
associatedMasterId = "BE599D47-15C2-4DC8-BE97-05FFE6CA3179";
background = {
paths = (
{
closed = 1;
nodes = (
"201 -86 OFFCURVE",
"260 -54 OFFCURVE",
"313 -16 CURVE",
"308 2 OFFCURVE",
"304 22 OFFCURVE",
"304 48 CURVE SMOOTH",
"304 269 OFFCURVE",
"510 553 OFFCURVE",
"503 695 CURVE SMOOTH",
"499 757 OFFCURVE",
"459 773 OFFCURVE",
"399 773 CURVE SMOOTH",
"326 773 OFFCURVE",
"239 750 OFFCURVE",
"162 705 CURVE",
"181 670 OFFCURVE",
"185 634 OFFCURVE",
"185 603 CURVE SMOOTH",
"185 376 OFFCURVE",
"25 213 OFFCURVE",
"22 26 CURVE SMOOTH",
"22 -47 OFFCURVE",
"72 -86 OFFCURVE",
"141 -86 CURVE SMOOTH"
);
},
{
closed = 1;
nodes = (
"628 -86 OFFCURVE",
"687 -54 OFFCURVE",
"741 -16 CURVE",
"735 2 OFFCURVE",
"732 22 OFFCURVE",
"732 48 CURVE SMOOTH",
"732 277 OFFCURVE",
"937 553 OFFCURVE",
"930 695 CURVE SMOOTH",
"927 757 OFFCURVE",
"886 773 OFFCURVE",
"826 773 CURVE SMOOTH",
"753 773 OFFCURVE",
"666 750 OFFCURVE",
"590 705 CURVE",
"609 670 OFFCURVE",
"613 634 OFFCURVE",
"613 603 CURVE SMOOTH",
"613 384 OFFCURVE",
"452 213 OFFCURVE",
"450 26 CURVE SMOOTH",
"449 -47 OFFCURVE",
"499 -86 OFFCURVE",
"568 -86 CURVE SMOOTH"
);
},
{
closed = 1;
nodes = (
"284 280 LINE",
"612 280 LINE",
"632 404 LINE",
"304 404 LINE"
);
}
);
};
layerId = "A28237D4-9A91-4B54-A39A-A9BB7E4F2330";
name = "Regular Italic Mar 28 16, 20:43";
paths = (
{
closed = 1;
nodes = (
"182 -86 OFFCURVE",
"254 -54 OFFCURVE",
"289 -16 CURVE",
"284 2 OFFCURVE",
"280 22 OFFCURVE",
"280 48 CURVE SMOOTH",
"280 269 OFFCURVE",
"479 553 OFFCURVE",
"479 695 CURVE SMOOTH",
"479 757 OFFCURVE",
"438 773 OFFCURVE",
"383 773 CURVE SMOOTH",
"310 773 OFFCURVE",
"234 750 OFFCURVE",
"162 705 CURVE",
"181 670 OFFCURVE",
"185 634 OFFCURVE",
"185 603 CURVE SMOOTH",
"185 376 OFFCURVE",
"25 213 OFFCURVE",
"22 26 CURVE SMOOTH",
"22 -47 OFFCURVE",
"56 -86 OFFCURVE",
"125 -86 CURVE SMOOTH"
);
},
{
closed = 1;
nodes = (
"1044 -86 OFFCURVE",
"1103 -54 OFFCURVE",
"1156 -16 CURVE",
"1151 2 OFFCURVE",
"1147 22 OFFCURVE",
"1147 48 CURVE SMOOTH",
"1147 277 OFFCURVE",
"1353 553 OFFCURVE",
"1346 695 CURVE SMOOTH",
"1342 757 OFFCURVE",
"1302 773 OFFCURVE",
"1242 773 CURVE SMOOTH",
"1169 773 OFFCURVE",
"1082 750 OFFCURVE",
"1005 705 CURVE",
"1024 670 OFFCURVE",
"1028 634 OFFCURVE",
"1028 603 CURVE SMOOTH",
"1028 384 OFFCURVE",
"868 213 OFFCURVE",
"865 26 CURVE SMOOTH",
"865 -47 OFFCURVE",
"915 -86 OFFCURVE",
"984 -86 CURVE SMOOTH"
);
},
{
closed = 1;
nodes = (
"889 749 OFFCURVE",
"855 622 OFFCURVE",
"837 575 CURVE SMOOTH",
"789 453 OFFCURVE",
"710 340 OFFCURVE",
"630 206 CURVE",
"627 206 LINE",
"626 219 OFFCURVE",
"626 231 OFFCURVE",
"626 243 CURVE SMOOTH",
"626 373 OFFCURVE",
"672 476 OFFCURVE",
"672 602 CURVE SMOOTH",
"672 705 OFFCURVE",
"649 761 OFFCURVE",
"563 761 CURVE SMOOTH",
"488 761 OFFCURVE",
"423 726 OFFCURVE",
"372 681 CURVE",
"398 635 OFFCURVE",
"405 582 OFFCURVE",
"405 519 CURVE SMOOTH",
"405 344 OFFCURVE",
"357 181 OFFCURVE",
"357 55 CURVE SMOOTH",
"357 -46 OFFCURVE",
"393 -80 OFFCURVE",
"471 -80 CURVE SMOOTH",
"574 -80 OFFCURVE",
"672 -68 OFFCURVE",
"746 -37 CURVE",
"738 22 OFFCURVE",
"843 191 OFFCURVE",
"912 306 CURVE SMOOTH",
"990 435 OFFCURVE",
"1072 555 OFFCURVE",
"1072 650 CURVE SMOOTH",
"1072 736 OFFCURVE",
"1020 761 OFFCURVE",
"888 779 CURVE"
);
}
);
width = 1246;
},
{
associatedMasterId = "BE599D47-15C2-4DC8-BE97-05FFE6CA3179";
background = {
paths = (
{
closed = 1;
nodes = (
"182 -86 OFFCURVE",
"254 -54 OFFCURVE",
"289 -16 CURVE",
"284 2 OFFCURVE",
"280 22 OFFCURVE",
"280 48 CURVE SMOOTH",
"280 269 OFFCURVE",
"479 553 OFFCURVE",
"479 695 CURVE SMOOTH",
"479 757 OFFCURVE",
"438 773 OFFCURVE",
"383 773 CURVE SMOOTH",
"310 773 OFFCURVE",
"234 750 OFFCURVE",
"162 705 CURVE",
"181 670 OFFCURVE",
"185 634 OFFCURVE",
"185 603 CURVE SMOOTH",
"185 376 OFFCURVE",
"25 213 OFFCURVE",
"22 26 CURVE SMOOTH",
"22 -47 OFFCURVE",
"56 -86 OFFCURVE",
"125 -86 CURVE SMOOTH"
);
},
{
closed = 1;
nodes = (
"1044 -86 OFFCURVE",
"1103 -54 OFFCURVE",
"1156 -16 CURVE",
"1151 2 OFFCURVE",
"1147 22 OFFCURVE",
"1147 48 CURVE SMOOTH",
"1147 277 OFFCURVE",
"1353 553 OFFCURVE",
"1346 695 CURVE SMOOTH",
"1342 757 OFFCURVE",
"1302 773 OFFCURVE",
"1242 773 CURVE SMOOTH",
"1169 773 OFFCURVE",
"1082 750 OFFCURVE",
"1005 705 CURVE",
"1024 670 OFFCURVE",
"1028 634 OFFCURVE",
"1028 603 CURVE SMOOTH",
"1028 384 OFFCURVE",
"868 213 OFFCURVE",
"865 26 CURVE SMOOTH",
"865 -47 OFFCURVE",
"915 -86 OFFCURVE",
"984 -86 CURVE SMOOTH"
);
},
{
closed = 1;
nodes = (
"889 749 OFFCURVE",
"855 622 OFFCURVE",
"837 575 CURVE SMOOTH",
"789 453 OFFCURVE",
"710 340 OFFCURVE",
"630 206 CURVE",
"627 206 LINE",
"626 219 OFFCURVE",
"626 231 OFFCURVE",
"626 243 CURVE SMOOTH",
"626 373 OFFCURVE",
"672 476 OFFCURVE",
"672 602 CURVE SMOOTH",
"672 705 OFFCURVE",
"649 761 OFFCURVE",
"563 761 CURVE SMOOTH",
"488 761 OFFCURVE",
"423 726 OFFCURVE",
"372 681 CURVE",
"398 635 OFFCURVE",
"405 582 OFFCURVE",
"405 519 CURVE SMOOTH",
"405 344 OFFCURVE",
"357 181 OFFCURVE",
"357 55 CURVE SMOOTH",
"357 -46 OFFCURVE",
"393 -80 OFFCURVE",
"471 -80 CURVE SMOOTH",
"574 -80 OFFCURVE",
"672 -68 OFFCURVE",
"746 -37 CURVE",
"738 22 OFFCURVE",
"843 191 OFFCURVE",
"912 306 CURVE SMOOTH",
"990 435 OFFCURVE",
"1072 555 OFFCURVE",
"1072 650 CURVE SMOOTH",
"1072 736 OFFCURVE",
"1020 761 OFFCURVE",
"888 779 CURVE"
);
}
);
};
layerId = "64356029-7413-45D4-94AB-25E993607381";
name = "Regular Italic Mar 28 16, 20:46";
paths = (
{
closed = 1;
nodes = (
"182 -86 OFFCURVE",
"254 -54 OFFCURVE",
"289 -16 CURVE",
"284 2 OFFCURVE",
"280 22 OFFCURVE",
"280 48 CURVE SMOOTH",
"280 269 OFFCURVE",
"479 553 OFFCURVE",
"479 695 CURVE SMOOTH",
"479 757 OFFCURVE",
"438 773 OFFCURVE",
"383 773 CURVE SMOOTH",
"310 773 OFFCURVE",
"234 750 OFFCURVE",
"162 705 CURVE",
"181 670 OFFCURVE",
"185 634 OFFCURVE",
"185 603 CURVE SMOOTH",
"185 376 OFFCURVE",
"25 213 OFFCURVE",
"22 26 CURVE SMOOTH",
"22 -47 OFFCURVE",
"56 -86 OFFCURVE",
"125 -86 CURVE SMOOTH"
);
},
{
closed = 1;
nodes = (
"964 -86 OFFCURVE",
"1023 -54 OFFCURVE",
"1076 -16 CURVE",
"1071 2 OFFCURVE",
"1068 22 OFFCURVE",
"1068 48 CURVE SMOOTH",
"1068 277 OFFCURVE",
"1273 553 OFFCURVE",
"1266 695 CURVE SMOOTH",
"1262 757 OFFCURVE",
"1222 773 OFFCURVE",
"1162 773 CURVE SMOOTH",
"1089 773 OFFCURVE",
"879 777 OFFCURVE",
"802 732 CURVE",
"821 697 OFFCURVE",
"948 634 OFFCURVE",
"948 603 CURVE SMOOTH",
"948 384 OFFCURVE",
"788 213 OFFCURVE",
"785 26 CURVE SMOOTH",
"785 -47 OFFCURVE",
"835 -86 OFFCURVE",
"904 -86 CURVE SMOOTH"
);
},
{
closed = 1;
nodes = (
"805 702 OFFCURVE",
"777 629 OFFCURVE",
"761 581 CURVE SMOOTH",
"722 460 OFFCURVE",
"657 339 OFFCURVE",
"607 201 CURVE",
"604 201 LINE",
"602 214 OFFCURVE",
"601 226 OFFCURVE",
"600 238 CURVE SMOOTH",
"591 368 OFFCURVE",
"634 473 OFFCURVE",
"628 599 CURVE SMOOTH",
"623 702 OFFCURVE",
"596 745 OFFCURVE",
"511 752 CURVE SMOOTH",
"435 757 OFFCURVE",
"411 757 OFFCURVE",
"330 754 CURVE",
"358 710 OFFCURVE",
"362 565 OFFCURVE",
"365 502 CURVE SMOOTH",
"373 339 OFFCURVE",
"349 194 OFFCURVE",
"356 77 CURVE SMOOTH",
"361 -24 OFFCURVE",
"392 -49 OFFCURVE",
"469 -44 CURVE SMOOTH",
"566 -38 OFFCURVE",
"642 -46 OFFCURVE",
"710 -12 CURVE",
"713 92 OFFCURVE",
"992 552 OFFCURVE",
"992 669 CURVE SMOOTH",
"992 754 OFFCURVE",
"999 721 OFFCURVE",
"802 732 CURVE"
);
}
);
width = 1246;
},
{
associatedMasterId = "BE599D47-15C2-4DC8-BE97-05FFE6CA3179";
background = {
paths = (
{
closed = 1;
nodes = (
"22 -47 OFFCURVE",
"56 -86 OFFCURVE",
"125 -86 CURVE SMOOTH",
"182 -86 OFFCURVE",
"254 -54 OFFCURVE",
"289 -16 CURVE",
"284 2 OFFCURVE",
"280 22 OFFCURVE",
"280 48 CURVE SMOOTH",
"280 148 OFFCURVE",
"321 261 OFFCURVE",
"366 368 CURVE",
"362 259 OFFCURVE",
"351 161 OFFCURVE",
"356 77 CURVE SMOOTH",
"361 -24 OFFCURVE",
"392 -49 OFFCURVE",
"469 -44 CURVE SMOOTH",
"566 -38 OFFCURVE",
"642 -46 OFFCURVE",
"710 -12 CURVE",
"712 62 OFFCURVE",
"856 320 OFFCURVE",
"938 503 CURVE",
"902 329 OFFCURVE",
"787 183 OFFCURVE",
"785 26 CURVE SMOOTH",
"785 -47 OFFCURVE",
"835 -86 OFFCURVE",
"904 -86 CURVE SMOOTH",
"964 -86 OFFCURVE",
"1023 -54 OFFCURVE",
"1076 -16 CURVE",
"1071 2 OFFCURVE",
"1068 22 OFFCURVE",
"1068 48 CURVE SMOOTH",
"1068 277 OFFCURVE",
"1273 553 OFFCURVE",
"1266 695 CURVE SMOOTH",
"1262 757 OFFCURVE",
"1222 773 OFFCURVE",
"1162 773 CURVE SMOOTH",
"1089 773 OFFCURVE",
"879 777 OFFCURVE",
"802 732 CURVE",
"805 702 OFFCURVE",
"777 629 OFFCURVE",
"761 581 CURVE SMOOTH",
"722 460 OFFCURVE",
"657 339 OFFCURVE",
"607 201 CURVE",
"604 201 LINE",
"602 214 OFFCURVE",
"601 226 OFFCURVE",
"600 238 CURVE SMOOTH",
"591 368 OFFCURVE",
"634 473 OFFCURVE",
"628 599 CURVE SMOOTH",
"622 733 OFFCURVE",
"550 773 OFFCURVE",
"383 773 CURVE SMOOTH",
"310 773 OFFCURVE",
"234 750 OFFCURVE",
"162 705 CURVE",
"181 670 OFFCURVE",
"185 634 OFFCURVE",
"185 603 CURVE SMOOTH",
"185 376 OFFCURVE",
"25 213 OFFCURVE",
"22 26 CURVE SMOOTH"
);
}
);
};
layerId = "BF9CDBD3-583E-4400-8F56-8965FFEFAE31";
name = "Regular Italic Mar 28 16, 20:51";
paths = (
{
closed = 1;
nodes = (
"22 -47 OFFCURVE",
"56 -86 OFFCURVE",
"125 -86 CURVE SMOOTH",
"177 -86 OFFCURVE",
"241 -54 OFFCURVE",
"273 -16 CURVE",
"268 2 OFFCURVE",
"264 22 OFFCURVE",
"264 48 CURVE SMOOTH",
"264 155 OFFCURVE",
"352 422 OFFCURVE",
"398 526 CURVE",
"367 526 LINE",
"363 413 OFFCURVE",
"359 198 OFFCURVE",
"364 107 CURVE SMOOTH",
"372 -35 OFFCURVE",
"496 -39 OFFCURVE",
"681 4 CURVE",
"670 76 OFFCURVE",
"861 423 OFFCURVE",
"960 548 CURVE",
"928 548 LINE",
"857 379 OFFCURVE",
"772 191 OFFCURVE",
"769 26 CURVE SMOOTH",
"769 -47 OFFCURVE",
"819 -86 OFFCURVE",
"888 -86 CURVE SMOOTH",
"948 -86 OFFCURVE",
"1007 -54 OFFCURVE",
"1060 -16 CURVE",
"1055 2 OFFCURVE",
"1052 22 OFFCURVE",
"1052 48 CURVE SMOOTH",
"1052 277 OFFCURVE",
"1257 553 OFFCURVE",
"1250 695 CURVE SMOOTH",
"1244 757 OFFCURVE",
"1168 773 OFFCURVE",
"1058 773 CURVE SMOOTH",
"1004 773 OFFCURVE",
"847 777 OFFCURVE",
"789 732 CURVE",
"793 628 OFFCURVE",
"670 364 OFFCURVE",
"569 213 CURVE",
"617 213 LINE",
"616 338 OFFCURVE",
"607 474 OFFCURVE",
"594 599 CURVE SMOOTH",
"582 733 OFFCURVE",
"550 773 OFFCURVE",
"423 773 CURVE SMOOTH",
"321 773 OFFCURVE",
"245 750 OFFCURVE",
"162 705 CURVE",
"181 670 OFFCURVE",
"185 634 OFFCURVE",
"185 603 CURVE SMOOTH",
"185 376 OFFCURVE",
"25 213 OFFCURVE",
"22 26 CURVE SMOOTH"
);
}
);
width = 1151;
},
{
associatedMasterId = "BE599D47-15C2-4DC8-BE97-05FFE6CA3179";
background = {
paths = (
{
closed = 1;
nodes = (
"22 -47 OFFCURVE",
"56 -86 OFFCURVE",
"125 -86 CURVE SMOOTH",
"182 -86 OFFCURVE",
"254 -54 OFFCURVE",
"289 -16 CURVE",
"284 2 OFFCURVE",
"280 22 OFFCURVE",
"280 48 CURVE SMOOTH",
"280 148 OFFCURVE",
"321 261 OFFCURVE",
"366 368 CURVE",
"362 259 OFFCURVE",
"351 161 OFFCURVE",
"356 77 CURVE SMOOTH",
"361 -24 OFFCURVE",
"392 -49 OFFCURVE",
"469 -44 CURVE SMOOTH",
"566 -38 OFFCURVE",
"642 -46 OFFCURVE",
"710 -12 CURVE",
"712 62 OFFCURVE",
"856 320 OFFCURVE",
"938 503 CURVE",
"902 329 OFFCURVE",
"787 183 OFFCURVE",
"785 26 CURVE SMOOTH",
"785 -47 OFFCURVE",
"835 -86 OFFCURVE",
"904 -86 CURVE SMOOTH",
"964 -86 OFFCURVE",
"1023 -54 OFFCURVE",
"1076 -16 CURVE",
"1071 2 OFFCURVE",
"1068 22 OFFCURVE",
"1068 48 CURVE SMOOTH",
"1068 277 OFFCURVE",
"1273 553 OFFCURVE",
"1266 695 CURVE SMOOTH",
"1262 757 OFFCURVE",
"1222 773 OFFCURVE",
"1162 773 CURVE SMOOTH",
"1089 773 OFFCURVE",
"879 777 OFFCURVE",
"802 732 CURVE",
"805 702 OFFCURVE",
"777 629 OFFCURVE",
"761 581 CURVE SMOOTH",
"722 460 OFFCURVE",
"657 339 OFFCURVE",
"607 201 CURVE",
"604 201 LINE",
"602 214 OFFCURVE",
"601 226 OFFCURVE",
"600 238 CURVE SMOOTH",
"591 368 OFFCURVE",
"634 473 OFFCURVE",
"628 599 CURVE SMOOTH",
"622 733 OFFCURVE",
"550 773 OFFCURVE",
"383 773 CURVE SMOOTH",
"310 773 OFFCURVE",
"234 750 OFFCURVE",
"162 705 CURVE",
"181 670 OFFCURVE",
"185 634 OFFCURVE",
"185 603 CURVE SMOOTH",
"185 376 OFFCURVE",
"25 213 OFFCURVE",
"22 26 CURVE SMOOTH"
);
}
);
};
layerId = "2B18E96C-CCB0-49CC-889D-DFCCD9933577";
name = "Regular Italic Mar 28 16, 20:54";
paths = (
{
closed = 1;
nodes = (
"22 -48 OFFCURVE",
"57 -86 OFFCURVE",
"125 -86 CURVE SMOOTH",
"185 -86 OFFCURVE",
"260 -54 OFFCURVE",
"297 -16 CURVE",
"292 2 OFFCURVE",
"288 22 OFFCURVE",
"288 48 CURVE SMOOTH",
"288 155 OFFCURVE",
"360 422 OFFCURVE",
"398 526 CURVE",
"340 510 LINE",
"376 131 LINE SMOOTH",
"382 42 OFFCURVE",
"433 4 OFFCURVE",
"523 4 CURVE SMOOTH",
"570 4 OFFCURVE",
"626 13 OFFCURVE",
"690 28 CURVE",
"678 100 OFFCURVE",
"864 429 OFFCURVE",
"960 548 CURVE",
"928 548 LINE",
"861 377 OFFCURVE",
"777 188 OFFCURVE",
"777 24 CURVE SMOOTH",
"777 -48 OFFCURVE",
"828 -86 OFFCURVE",
"896 -86 CURVE SMOOTH",
"956 -86 OFFCURVE",
"1015 -54 OFFCURVE",
"1068 -16 CURVE",
"1063 2 OFFCURVE",
"1060 22 OFFCURVE",
"1060 48 CURVE SMOOTH",
"1060 273 OFFCURVE",
"1218 543 OFFCURVE",
"1218 688 CURVE SMOOTH",
"1218 757 OFFCURVE",
"1153 773 OFFCURVE",
"1058 773 CURVE SMOOTH",
"928 773 OFFCURVE",
"852 761 OFFCURVE",
"773 724 CURVE",
"803 680 OFFCURVE",
"662 400 OFFCURVE",
"563 249 CURVE",
"606 213 LINE",
"606 339 OFFCURVE",
"593 474 OFFCURVE",
"586 599 CURVE SMOOTH",
"574 733 OFFCURVE",
"542 773 OFFCURVE",
"415 773 CURVE SMOOTH",
"313 773 OFFCURVE",
"245 750 OFFCURVE",
"162 705 CURVE",
"181 670 OFFCURVE",
"185 634 OFFCURVE",
"185 603 CURVE SMOOTH",
"185 374 OFFCURVE",
"22 210 OFFCURVE",
"22 23 CURVE SMOOTH"
);
}
);
width = 1151;
},
{
associatedMasterId = "BE599D47-15C2-4DC8-BE97-05FFE6CA3179";
background = {
paths = (
{
closed = 1;
nodes = (
"22 -48 OFFCURVE",
"57 -86 OFFCURVE",
"125 -86 CURVE SMOOTH",
"185 -86 OFFCURVE",
"260 -54 OFFCURVE",
"297 -16 CURVE",
"292 2 OFFCURVE",
"288 22 OFFCURVE",
"288 48 CURVE SMOOTH",
"288 155 OFFCURVE",
"360 422 OFFCURVE",
"398 526 CURVE",
"340 510 LINE",
"376 131 LINE SMOOTH",
"382 42 OFFCURVE",
"433 4 OFFCURVE",
"523 4 CURVE SMOOTH",
"570 4 OFFCURVE",
"626 13 OFFCURVE",
"690 28 CURVE",
"678 100 OFFCURVE",
"864 429 OFFCURVE",
"960 548 CURVE",
"928 548 LINE",
"861 377 OFFCURVE",
"777 188 OFFCURVE",
"777 24 CURVE SMOOTH",
"777 -48 OFFCURVE",
"828 -86 OFFCURVE",
"896 -86 CURVE SMOOTH",
"956 -86 OFFCURVE",
"1015 -54 OFFCURVE",
"1068 -16 CURVE",
"1063 2 OFFCURVE",
"1060 22 OFFCURVE",
"1060 48 CURVE SMOOTH",
"1060 273 OFFCURVE",
"1218 543 OFFCURVE",
"1218 688 CURVE SMOOTH",
"1218 757 OFFCURVE",
"1153 773 OFFCURVE",
"1058 773 CURVE SMOOTH",
"928 773 OFFCURVE",
"852 761 OFFCURVE",
"773 724 CURVE",
"803 680 OFFCURVE",
"662 400 OFFCURVE",
"563 249 CURVE",
"606 213 LINE",
"606 339 OFFCURVE",
"593 474 OFFCURVE",
"586 599 CURVE SMOOTH",
"574 733 OFFCURVE",
"542 773 OFFCURVE",
"415 773 CURVE SMOOTH",
"313 773 OFFCURVE",
"245 750 OFFCURVE",
"162 705 CURVE",
"181 670 OFFCURVE",
"185 634 OFFCURVE",
"185 603 CURVE SMOOTH",
"185 374 OFFCURVE",
"22 210 OFFCURVE",
"22 23 CURVE SMOOTH"
);
}
);
};
layerId = "FB05D59A-F259-440E-AC2C-E0BCFAECF65D";
name = "Regular Italic Mar 28 16, 20:59";
paths = (
{
closed = 1;
nodes = (
"19 -49 OFFCURVE",
"52 -86 OFFCURVE",
"120 -86 CURVE SMOOTH",
"182 -86 OFFCURVE",
"257 -54 OFFCURVE",
"294 -16 CURVE",
"288 2 OFFCURVE",
"285 22 OFFCURVE",
"285 46 CURVE SMOOTH",
"285 156 OFFCURVE",
"360 422 OFFCURVE",
"398 526 CURVE",
"324 510 LINE",
"388 83 LINE SMOOTH",
"400 6 OFFCURVE",
"437 -6 OFFCURVE",
"496 -6 CURVE SMOOTH",
"555 -6 OFFCURVE",
"626 6 OFFCURVE",
"685 36 CURVE",
"684 42 OFFCURVE",
"685 61 OFFCURVE",
"690 82 CURVE SMOOTH",
"699 122 OFFCURVE",
"738 229 OFFCURVE",
"960 548 CURVE",
"928 548 LINE",
"895 459 OFFCURVE",
"785 191 OFFCURVE",
"785 43 CURVE SMOOTH",
"785 -56 OFFCURVE",
"835 -86 OFFCURVE",
"901 -86 CURVE SMOOTH",
"964 -86 OFFCURVE",
"1019 -57 OFFCURVE",
"1076 -16 CURVE",
"1071 2 OFFCURVE",
"1068 20 OFFCURVE",
"1068 54 CURVE SMOOTH",
"1068 264 OFFCURVE",
"1186 558 OFFCURVE",
"1186 678 CURVE SMOOTH",
"1186 757 OFFCURVE",
"1136 773 OFFCURVE",
"1016 773 CURVE SMOOTH",
"916 773 OFFCURVE",
"837 761 OFFCURVE",
"767 727 CURVE",
"774 718 OFFCURVE",
"777 702 OFFCURVE",
"777 690 CURVE SMOOTH",
"777 616 OFFCURVE",
"653 382 OFFCURVE",
"563 249 CURVE",
"622 221 LINE",
"571 599 LINE SMOOTH",
"551 743 OFFCURVE",
"528 773 OFFCURVE",
"420 773 CURVE SMOOTH",
"325 773 OFFCURVE",
"249 749 OFFCURVE",
"162 705 CURVE",
"181 670 OFFCURVE",
"185 634 OFFCURVE",
"185 600 CURVE SMOOTH",
"185 380 OFFCURVE",
"19 202 OFFCURVE",
"19 29 CURVE SMOOTH"
);
}
);
width = 1151;
},
{
associatedMasterId = "BE599D47-15C2-4DC8-BE97-05FFE6CA3179";
background = {
paths = (
{
closed = 1;
nodes = (
"19 -49 OFFCURVE",
"52 -86 OFFCURVE",
"120 -86 CURVE SMOOTH",
"182 -86 OFFCURVE",
"257 -54 OFFCURVE",
"294 -16 CURVE",
"288 2 OFFCURVE",
"285 22 OFFCURVE",
"285 46 CURVE SMOOTH",
"285 156 OFFCURVE",
"360 422 OFFCURVE",
"398 526 CURVE",
"324 510 LINE",
"388 83 LINE SMOOTH",
"400 6 OFFCURVE",
"437 -6 OFFCURVE",
"496 -6 CURVE SMOOTH",
"555 -6 OFFCURVE",
"626 6 OFFCURVE",
"685 36 CURVE",
"684 42 OFFCURVE",
"685 61 OFFCURVE",
"690 82 CURVE SMOOTH",
"699 122 OFFCURVE",
"738 229 OFFCURVE",
"960 548 CURVE",
"928 548 LINE",
"895 459 OFFCURVE",
"785 191 OFFCURVE",
"785 43 CURVE SMOOTH",
"785 -56 OFFCURVE",
"835 -86 OFFCURVE",
"901 -86 CURVE SMOOTH",
"964 -86 OFFCURVE",
"1019 -57 OFFCURVE",
"1076 -16 CURVE",
"1071 2 OFFCURVE",
"1068 20 OFFCURVE",
"1068 54 CURVE SMOOTH",
"1068 264 OFFCURVE",
"1186 558 OFFCURVE",
"1186 678 CURVE SMOOTH",
"1186 757 OFFCURVE",
"1136 773 OFFCURVE",
"1016 773 CURVE SMOOTH",
"916 773 OFFCURVE",
"837 761 OFFCURVE",
"767 727 CURVE",
"774 718 OFFCURVE",
"777 702 OFFCURVE",
"777 690 CURVE SMOOTH",
"777 616 OFFCURVE",
"653 382 OFFCURVE",
"563 249 CURVE",
"622 221 LINE",
"568 599 LINE SMOOTH",
"547 744 OFFCURVE",
"525 773 OFFCURVE",
"417 773 CURVE SMOOTH",
"322 773 OFFCURVE",
"249 749 OFFCURVE",
"162 705 CURVE",
"181 670 OFFCURVE",
"185 634 OFFCURVE",
"185 600 CURVE SMOOTH",
"185 380 OFFCURVE",
"19 202 OFFCURVE",
"19 29 CURVE SMOOTH"
);
}
);
};
layerId = "E488F9AB-FFEF-4535-AFDD-DAF0A5F4901E";
name = "Regular Italic Mar 28 16, 21:01";
paths = (
{
closed = 1;
nodes = (
"19 -49 OFFCURVE",
"52 -86 OFFCURVE",
"120 -86 CURVE SMOOTH",
"182 -86 OFFCURVE",
"257 -54 OFFCURVE",
"294 -16 CURVE",
"288 2 OFFCURVE",
"285 22 OFFCURVE",
"285 46 CURVE SMOOTH",
"285 156 OFFCURVE",
"360 422 OFFCURVE",
"398 526 CURVE",
"324 510 LINE",
"388 83 LINE SMOOTH",
"399 6 OFFCURVE",
"439 -6 OFFCURVE",
"496 -6 CURVE SMOOTH",
"555 -6 OFFCURVE",
"626 6 OFFCURVE",
"685 36 CURVE",
"684 39 OFFCURVE",
"684 42 OFFCURVE",
"684 48 CURVE SMOOTH",
"684 83 OFFCURVE",
"708 186 OFFCURVE",
"960 548 CURVE",
"928 548 LINE",
"895 459 OFFCURVE",
"785 191 OFFCURVE",
"785 43 CURVE SMOOTH",
"785 -56 OFFCURVE",
"835 -86 OFFCURVE",
"901 -86 CURVE SMOOTH",
"964 -86 OFFCURVE",
"1019 -57 OFFCURVE",
"1076 -16 CURVE",
"1071 2 OFFCURVE",
"1068 20 OFFCURVE",
"1068 54 CURVE SMOOTH",
"1068 264 OFFCURVE",
"1186 558 OFFCURVE",
"1186 678 CURVE SMOOTH",
"1186 757 OFFCURVE",
"1136 773 OFFCURVE",
"1016 773 CURVE SMOOTH",
"916 773 OFFCURVE",
"837 761 OFFCURVE",
"767 727 CURVE",
"774 718 OFFCURVE",
"777 702 OFFCURVE",
"777 690 CURVE SMOOTH",
"777 616 OFFCURVE",
"653 382 OFFCURVE",
"563 249 CURVE",
"622 221 LINE",
"568 599 LINE SMOOTH",
"547 744 OFFCURVE",
"525 773 OFFCURVE",
"418 773 CURVE SMOOTH",
"322 773 OFFCURVE",
"249 749 OFFCURVE",
"162 705 CURVE",
"181 670 OFFCURVE",
"185 634 OFFCURVE",
"185 600 CURVE SMOOTH",
"185 380 OFFCURVE",
"19 202 OFFCURVE",
"19 29 CURVE SMOOTH"
);
}
);
width = 1151;
},
{
associatedMasterId = "BE599D47-15C2-4DC8-BE97-05FFE6CA3179";
background = {
paths = (
{
closed = 1;
nodes = (
"19 -49 OFFCURVE",
"52 -86 OFFCURVE",
"120 -86 CURVE SMOOTH",
"182 -86 OFFCURVE",
"257 -54 OFFCURVE",
"294 -16 CURVE",
"288 2 OFFCURVE",
"285 22 OFFCURVE",
"285 46 CURVE SMOOTH",
"285 156 OFFCURVE",
"360 422 OFFCURVE",
"398 526 CURVE",
"324 510 LINE",
"388 83 LINE SMOOTH",
"400 6 OFFCURVE",
"437 -6 OFFCURVE",
"496 -6 CURVE SMOOTH",
"555 -6 OFFCURVE",
"626 6 OFFCURVE",
"685 36 CURVE",
"684 42 OFFCURVE",
"685 61 OFFCURVE",
"690 82 CURVE SMOOTH",
"699 122 OFFCURVE",
"738 229 OFFCURVE",
"960 548 CURVE",
"928 548 LINE",
"895 459 OFFCURVE",
"785 191 OFFCURVE",
"785 43 CURVE SMOOTH",
"785 -56 OFFCURVE",
"835 -86 OFFCURVE",
"901 -86 CURVE SMOOTH",
"964 -86 OFFCURVE",
"1019 -57 OFFCURVE",
"1076 -16 CURVE",
"1071 2 OFFCURVE",
"1068 20 OFFCURVE",
"1068 54 CURVE SMOOTH",
"1068 264 OFFCURVE",
"1186 558 OFFCURVE",
"1186 678 CURVE SMOOTH",
"1186 757 OFFCURVE",
"1136 773 OFFCURVE",
"1016 773 CURVE SMOOTH",
"916 773 OFFCURVE",
"837 761 OFFCURVE",
"767 727 CURVE",
"774 718 OFFCURVE",
"777 702 OFFCURVE",
"777 690 CURVE SMOOTH",
"777 616 OFFCURVE",
"653 382 OFFCURVE",
"563 249 CURVE",
"622 221 LINE",
"568 599 LINE SMOOTH",
"547 744 OFFCURVE",
"525 773 OFFCURVE",
"417 773 CURVE SMOOTH",
"322 773 OFFCURVE",
"249 749 OFFCURVE",
"162 705 CURVE",
"181 670 OFFCURVE",
"185 634 OFFCURVE",
"185 600 CURVE SMOOTH",
"185 380 OFFCURVE",
"19 202 OFFCURVE",
"19 29 CURVE SMOOTH"
);
}
);
};
layerId = "B9E369AF-D2A9-4ACE-B875-06C54A543747";
name = "Regular Italic Mar 28 16, 21:02";
paths = (
{
closed = 1;
nodes = (
"12 -49 OFFCURVE",
"45 -86 OFFCURVE",
"113 -86 CURVE SMOOTH",
"175 -86 OFFCURVE",
"250 -54 OFFCURVE",
"288 -16 CURVE",
"283 2 OFFCURVE",
"280 22 OFFCURVE",
"280 46 CURVE SMOOTH",
"282 156 OFFCURVE",
"361 422 OFFCURVE",
"401 526 CURVE",
"328 510 LINE",
"383 83 LINE SMOOTH",
"393 6 OFFCURVE",
"432 -6 OFFCURVE",
"490 -6 CURVE SMOOTH",
"548 -6 OFFCURVE",
"620 6 OFFCURVE",
"679 36 CURVE",
"678 39 OFFCURVE",
"678 42 OFFCURVE",
"679 48 CURVE SMOOTH",
"679 83 OFFCURVE",
"706 186 OFFCURVE",
"964 548 CURVE",
"932 548 LINE",
"897 459 OFFCURVE",
"783 191 OFFCURVE",
"780 43 CURVE SMOOTH",
"778 -56 OFFCURVE",
"828 -86 OFFCURVE",
"893 -86 CURVE SMOOTH",
"957 -86 OFFCURVE",
"1012 -57 OFFCURVE",
"1070 -16 CURVE",
"1065 2 OFFCURVE",
"1062 20 OFFCURVE",
"1063 54 CURVE SMOOTH",
"1066 264 OFFCURVE",
"1190 558 OFFCURVE",
"1191 678 CURVE SMOOTH",
"1193 757 OFFCURVE",
"1143 773 OFFCURVE",
"1023 773 CURVE SMOOTH",
"923 773 OFFCURVE",
"844 761 OFFCURVE",
"773 727 CURVE",
"781 718 OFFCURVE",
"784 702 OFFCURVE",
"784 690 CURVE SMOOTH",
"782 616 OFFCURVE",
"654 382 OFFCURVE",
"562 249 CURVE",
"620 221 LINE",
"573 599 LINE SMOOTH",
"555 744 OFFCURVE",
"532 773 OFFCURVE",
"425 773 CURVE SMOOTH",
"329 773 OFFCURVE",
"256 749 OFFCURVE",
"169 705 CURVE",
"187 670 OFFCURVE",
"190 634 OFFCURVE",
"190 600 CURVE SMOOTH",
"186 380 OFFCURVE",
"17 202 OFFCURVE",
"14 29 CURVE SMOOTH"
);
}
);
width = 1151;
},
{
associatedMasterId = "BE599D47-15C2-4DC8-BE97-05FFE6CA3179";
background = {
paths = (
{
closed = 1;
nodes = (
"19 -49 OFFCURVE",
"52 -86 OFFCURVE",
"120 -86 CURVE SMOOTH",
"182 -86 OFFCURVE",
"257 -54 OFFCURVE",
"294 -16 CURVE",
"288 2 OFFCURVE",
"285 22 OFFCURVE",
"285 46 CURVE SMOOTH",
"285 156 OFFCURVE",
"360 422 OFFCURVE",
"398 526 CURVE",
"324 510 LINE",
"388 83 LINE SMOOTH",
"400 6 OFFCURVE",
"437 -6 OFFCURVE",
"496 -6 CURVE SMOOTH",
"555 -6 OFFCURVE",
"626 6 OFFCURVE",
"685 36 CURVE",
"684 42 OFFCURVE",
"685 61 OFFCURVE",
"690 82 CURVE SMOOTH",
"699 122 OFFCURVE",
"738 229 OFFCURVE",
"960 548 CURVE",
"928 548 LINE",
"895 459 OFFCURVE",
"785 191 OFFCURVE",
"785 43 CURVE SMOOTH",
"785 -56 OFFCURVE",
"835 -86 OFFCURVE",
"901 -86 CURVE SMOOTH",
"964 -86 OFFCURVE",
"1019 -57 OFFCURVE",
"1076 -16 CURVE",
"1071 2 OFFCURVE",
"1068 20 OFFCURVE",
"1068 54 CURVE SMOOTH",
"1068 264 OFFCURVE",
"1186 558 OFFCURVE",
"1186 678 CURVE SMOOTH",
"1186 757 OFFCURVE",
"1136 773 OFFCURVE",
"1016 773 CURVE SMOOTH",
"916 773 OFFCURVE",
"837 761 OFFCURVE",
"767 727 CURVE",
"774 718 OFFCURVE",
"777 702 OFFCURVE",
"777 690 CURVE SMOOTH",
"777 616 OFFCURVE",
"653 382 OFFCURVE",
"563 249 CURVE",
"622 221 LINE",
"568 599 LINE SMOOTH",
"547 744 OFFCURVE",
"525 773 OFFCURVE",
"417 773 CURVE SMOOTH",
"322 773 OFFCURVE",
"249 749 OFFCURVE",
"162 705 CURVE",
"181 670 OFFCURVE",
"185 634 OFFCURVE",
"185 600 CURVE SMOOTH",
"185 380 OFFCURVE",
"19 202 OFFCURVE",
"19 29 CURVE SMOOTH"
);
}
);
};
layerId = "F3036CE5-76CD-4EA1-80B4-CB37CC2B7CBE";
name = "Regular Italic Mar 28 16, 21:08";
paths = (
{
closed = 1;
nodes = (
"-2 -38 OFFCURVE",
"30 -77 OFFCURVE",
"97 -78 CURVE SMOOTH",
"160 -78 OFFCURVE",
"237 -48 OFFCURVE",
"276 -10 CURVE",
"271 8 OFFCURVE",
"268 28 OFFCURVE",
"270 51 CURVE SMOOTH",
"276 161 OFFCURVE",
"364 426 OFFCURVE",
"408 529 CURVE",
"333 515 LINE",
"374 87 LINE SMOOTH",
"381 10 OFFCURVE",
"420 -2 OFFCURVE",
"478 -3 CURVE SMOOTH",
"536 -5 OFFCURVE",
"608 6 OFFCURVE",
"669 35 CURVE",
"668 38 OFFCURVE",
"668 42 OFFCURVE",
"669 47 CURVE SMOOTH",
"670 82 OFFCURVE",
"700 185 OFFCURVE",
"971 542 CURVE",
"939 543 LINE",
"901 455 OFFCURVE",
"777 188 OFFCURVE",
"769 40 CURVE SMOOTH",
"765 -59 OFFCURVE",
"813 -90 OFFCURVE",
"878 -91 CURVE SMOOTH",
"942 -92 OFFCURVE",
"998 -64 OFFCURVE",
"1057 -24 CURVE",
"1053 -6 OFFCURVE",
"1051 12 OFFCURVE",
"1052 46 CURVE SMOOTH",
"1064 256 OFFCURVE",
"1197 547 OFFCURVE",
"1203 668 CURVE SMOOTH",
"1207 746 OFFCURVE",
"1159 763 OFFCURVE",
"1038 765 CURVE SMOOTH",
"938 767 OFFCURVE",
"858 757 OFFCURVE",
"787 724 CURVE",
"793 714 OFFCURVE",
"796 698 OFFCURVE",
"796 687 CURVE SMOOTH",
"792 613 OFFCURVE",
"655 381 OFFCURVE",
"559 250 CURVE",
"616 221 LINE",
"582 600 LINE SMOOTH",
"568 745 OFFCURVE",
"547 773 OFFCURVE",
"440 776 CURVE SMOOTH",
"344 777 OFFCURVE",
"271 755 OFFCURVE",
"181 712 CURVE",
"198 677 OFFCURVE",
"201 642 OFFCURVE",
"199 607 CURVE SMOOTH",
"187 387 OFFCURVE",
"12 213 OFFCURVE",
"3 39 CURVE SMOOTH"
);
}
);
width = 1151;
}
);
unicode = 004D;
},
{
color = 1;
glyphname = N;
lastChange = "2016-04-03 04:18:10 +0000";
layers = (
{
background = {
paths = (
{
closed = 1;
nodes = (
"167 -86 OFFCURVE",
"216 -54 OFFCURVE",
"269 -16 CURVE",
"264 2 OFFCURVE",
"261 22 OFFCURVE",
"261 48 CURVE SMOOTH",
"261 269 OFFCURVE",
"466 553 OFFCURVE",
"459 695 CURVE SMOOTH",
"456 757 OFFCURVE",
"415 773 OFFCURVE",
"355 773 CURVE SMOOTH",
"285 773 OFFCURVE",
"206 750 OFFCURVE",
"134 705 CURVE",
"154 670 OFFCURVE",
"158 634 OFFCURVE",
"158 603 CURVE SMOOTH",
"158 376 OFFCURVE",
"-3 213 OFFCURVE",
"-5 26 CURVE SMOOTH",
"-6 -47 OFFCURVE",
"44 -86 OFFCURVE",
"113 -86 CURVE SMOOTH"
);
},
{
closed = 1;
nodes = (
"608 -86 OFFCURVE",
"667 -54 OFFCURVE",
"721 -16 CURVE",
"715 2 OFFCURVE",
"712 22 OFFCURVE",
"712 48 CURVE SMOOTH",
"712 277 OFFCURVE",
"917 553 OFFCURVE",
"910 695 CURVE SMOOTH",
"907 757 OFFCURVE",
"866 773 OFFCURVE",
"806 773 CURVE SMOOTH",
"739 773 OFFCURVE",
"660 750 OFFCURVE",
"586 705 CURVE",
"605 670 OFFCURVE",
"609 634 OFFCURVE",
"609 603 CURVE SMOOTH",
"609 384 OFFCURVE",
"448 213 OFFCURVE",
"446 26 CURVE SMOOTH",
"445 -47 OFFCURVE",
"489 -86 OFFCURVE",
"548 -86 CURVE SMOOTH"
);
},
{
closed = 1;
nodes = (
"275 476 LINE",
"446 26 LINE",
"589 248 LINE",
"459 695 LINE"
);
}
);
};
layerId = "BE599D47-15C2-4DC8-BE97-05FFE6CA3179";
paths = (
{
closed = 1;
nodes = (
"-5 -2 OFFCURVE",
"44 -37 OFFCURVE",
"109 -37 CURVE SMOOTH",
"169 -37 OFFCURVE",
"212 -7 OFFCURVE",
"269 34 CURVE",
"264 52 OFFCURVE",
"261 71 OFFCURVE",
"261 98 CURVE SMOOTH",
"261 196 OFFCURVE",
"301 307 OFFCURVE",
"346 412 CURVE",
"313 438 LINE",
"423 47 OFFCURVE",
"458 -37 OFFCURVE",
"551 -37 CURVE SMOOTH",
"607 -37 OFFCURVE",
"667 -5 OFFCURVE",
"721 34 CURVE",
"715 52 OFFCURVE",
"712 70 OFFCURVE",
"712 98 CURVE SMOOTH",
"712 325 OFFCURVE",
"917 602 OFFCURVE",
"910 745 CURVE SMOOTH",
"907 807 OFFCURVE",
"866 822 OFFCURVE",
"808 822 CURVE SMOOTH",
"738 822 OFFCURVE",
"660 800 OFFCURVE",
"586 754 CURVE",
"605 719 OFFCURVE",
"609 684 OFFCURVE",
"609 651 CURVE SMOOTH",
"609 567 OFFCURVE",
"583 481 OFFCURVE",
"553 408 CURVE",
"572 376 LINE",
"471 758 OFFCURVE",
"472 822 OFFCURVE",
"355 822 CURVE SMOOTH",
"285 822 OFFCURVE",
"206 800 OFFCURVE",
"134 754 CURVE",
"154 719 OFFCURVE",
"158 684 OFFCURVE",
"158 650 CURVE SMOOTH",
"158 432 OFFCURVE",
"-5 243 OFFCURVE",
"-5 85 CURVE SMOOTH"
);
}
);
width = 809;
},
{
associatedMasterId = "BE599D47-15C2-4DC8-BE97-05FFE6CA3179";
background = {
paths = (
{
closed = 1;
nodes = (
"186 -86 OFFCURVE",
"245 -54 OFFCURVE",
"299 -16 CURVE",
"293 2 OFFCURVE",
"290 22 OFFCURVE",
"290 48 CURVE SMOOTH",
"290 269 OFFCURVE",
"495 553 OFFCURVE",
"488 695 CURVE SMOOTH",
"485 757 OFFCURVE",
"444 773 OFFCURVE",
"384 773 CURVE SMOOTH",
"312 773 OFFCURVE",
"225 750 OFFCURVE",
"148 705 CURVE",
"167 670 OFFCURVE",
"171 634 OFFCURVE",
"171 603 CURVE SMOOTH",
"171 376 OFFCURVE",
"10 213 OFFCURVE",
"8 26 CURVE SMOOTH",
"7 -47 OFFCURVE",
"58 -86 OFFCURVE",
"126 -86 CURVE SMOOTH"
);
},
{
closed = 1;
nodes = (
"614 -86 OFFCURVE",
"673 -54 OFFCURVE",
"726 -16 CURVE",
"721 2 OFFCURVE",
"718 22 OFFCURVE",
"718 48 CURVE SMOOTH",
"718 277 OFFCURVE",
"923 553 OFFCURVE",
"916 695 CURVE SMOOTH",
"912 757 OFFCURVE",
"872 773 OFFCURVE",
"812 773 CURVE SMOOTH",
"739 773 OFFCURVE",
"652 750 OFFCURVE",
"575 705 CURVE",
"594 670 OFFCURVE",
"598 634 OFFCURVE",
"598 603 CURVE SMOOTH",
"598 384 OFFCURVE",
"438 213 OFFCURVE",
"435 26 CURVE SMOOTH",
"435 -47 OFFCURVE",
"485 -86 OFFCURVE",
"554 -86 CURVE SMOOTH"
);
},
{
closed = 1;
nodes = (
"269 280 LINE",
"598 280 LINE",
"618 404 LINE",
"289 404 LINE"
);
}
);
};
layerId = "30A8892D-99E0-4ECD-8451-2A604FB84249";
name = "Regular Italic Apr 1 16, 00:48";
paths = (
{
closed = 1;
nodes = (
"186 -86 OFFCURVE",
"245 -54 OFFCURVE",
"299 -16 CURVE",
"293 2 OFFCURVE",
"290 22 OFFCURVE",
"290 48 CURVE SMOOTH",
"290 269 OFFCURVE",
"495 553 OFFCURVE",
"488 695 CURVE SMOOTH",
"485 757 OFFCURVE",
"444 773 OFFCURVE",
"384 773 CURVE SMOOTH",
"312 773 OFFCURVE",
"225 750 OFFCURVE",
"148 705 CURVE",
"167 670 OFFCURVE",
"171 634 OFFCURVE",
"171 603 CURVE SMOOTH",
"171 376 OFFCURVE",
"10 213 OFFCURVE",
"8 26 CURVE SMOOTH",
"7 -47 OFFCURVE",
"58 -86 OFFCURVE",
"126 -86 CURVE SMOOTH"
);
},
{
closed = 1;
nodes = (
"614 -86 OFFCURVE",
"673 -54 OFFCURVE",
"726 -16 CURVE",
"721 2 OFFCURVE",
"718 22 OFFCURVE",
"718 48 CURVE SMOOTH",
"718 277 OFFCURVE",
"923 553 OFFCURVE",
"916 695 CURVE SMOOTH",
"912 757 OFFCURVE",
"872 773 OFFCURVE",
"812 773 CURVE SMOOTH",
"739 773 OFFCURVE",
"652 750 OFFCURVE",
"575 705 CURVE",
"594 670 OFFCURVE",
"598 634 OFFCURVE",
"598 603 CURVE SMOOTH",
"598 384 OFFCURVE",
"438 213 OFFCURVE",
"435 26 CURVE SMOOTH",
"435 -47 OFFCURVE",
"485 -86 OFFCURVE",
"554 -86 CURVE SMOOTH"
);
},
{
closed = 1;
nodes = (
"344 585 LINE",
"501 -27 LINE",
"521 97 LINE",
"364 710 LINE"
);
}
);
width = 823;
},
{
associatedMasterId = "BE599D47-15C2-4DC8-BE97-05FFE6CA3179";
background = {
paths = (
{
closed = 1;
nodes = (
"186 -86 OFFCURVE",
"245 -54 OFFCURVE",
"299 -16 CURVE",
"293 2 OFFCURVE",
"290 22 OFFCURVE",
"290 48 CURVE SMOOTH",
"290 269 OFFCURVE",
"495 553 OFFCURVE",
"488 695 CURVE SMOOTH",
"485 757 OFFCURVE",
"444 773 OFFCURVE",
"384 773 CURVE SMOOTH",
"312 773 OFFCURVE",
"225 750 OFFCURVE",
"148 705 CURVE",
"167 670 OFFCURVE",
"171 634 OFFCURVE",
"171 603 CURVE SMOOTH",
"171 376 OFFCURVE",
"10 213 OFFCURVE",
"8 26 CURVE SMOOTH",
"7 -47 OFFCURVE",
"58 -86 OFFCURVE",
"126 -86 CURVE SMOOTH"
);
},
{
closed = 1;
nodes = (
"614 -86 OFFCURVE",
"673 -54 OFFCURVE",
"726 -16 CURVE",
"721 2 OFFCURVE",
"718 22 OFFCURVE",
"718 48 CURVE SMOOTH",
"718 277 OFFCURVE",
"923 553 OFFCURVE",
"916 695 CURVE SMOOTH",
"912 757 OFFCURVE",
"872 773 OFFCURVE",
"812 773 CURVE SMOOTH",
"739 773 OFFCURVE",
"652 750 OFFCURVE",
"575 705 CURVE",
"594 670 OFFCURVE",
"598 634 OFFCURVE",
"598 603 CURVE SMOOTH",
"598 384 OFFCURVE",
"438 213 OFFCURVE",
"435 26 CURVE SMOOTH",
"435 -47 OFFCURVE",
"485 -86 OFFCURVE",
"554 -86 CURVE SMOOTH"
);
},
{
closed = 1;
nodes = (
"269 280 LINE",
"598 280 LINE",
"618 404 LINE",
"289 404 LINE"
);
}
);
};
layerId = "0BA4C065-D230-45F7-9EC0-609FB2E84399";
name = "Regular Italic Apr 1 16, 00:50";
paths = (
{
closed = 1;
nodes = (
"184 -86 OFFCURVE",
"237 -54 OFFCURVE",
"291 -16 CURVE",
"285 2 OFFCURVE",
"282 22 OFFCURVE",
"282 48 CURVE SMOOTH",
"282 269 OFFCURVE",
"487 553 OFFCURVE",
"480 695 CURVE SMOOTH",
"477 757 OFFCURVE",
"436 773 OFFCURVE",
"376 773 CURVE SMOOTH",
"304 773 OFFCURVE",
"222 750 OFFCURVE",
"148 705 CURVE",
"167 670 OFFCURVE",
"171 634 OFFCURVE",
"171 603 CURVE SMOOTH",
"171 376 OFFCURVE",
"10 213 OFFCURVE",
"8 26 CURVE SMOOTH",
"7 -47 OFFCURVE",
"58 -86 OFFCURVE",
"126 -86 CURVE SMOOTH"
);
},
{
closed = 1;
nodes = (
"622 -86 OFFCURVE",
"681 -54 OFFCURVE",
"734 -16 CURVE",
"729 2 OFFCURVE",
"726 22 OFFCURVE",
"726 48 CURVE SMOOTH",
"726 277 OFFCURVE",
"931 553 OFFCURVE",
"924 695 CURVE SMOOTH",
"920 757 OFFCURVE",
"880 773 OFFCURVE",
"820 773 CURVE SMOOTH",
"749 773 OFFCURVE",
"668 750 OFFCURVE",
"591 705 CURVE",
"610 670 OFFCURVE",
"614 634 OFFCURVE",
"614 603 CURVE SMOOTH",
"614 384 OFFCURVE",
"454 213 OFFCURVE",
"451 26 CURVE SMOOTH",
"451 -47 OFFCURVE",
"498 -86 OFFCURVE",
"562 -86 CURVE SMOOTH"
);
},
{
closed = 1;
nodes = (
"296 476 LINE",
"451 26 LINE",
"594 248 LINE",
"480 695 LINE"
);
}
);
width = 831;
},
{
associatedMasterId = "BE599D47-15C2-4DC8-BE97-05FFE6CA3179";
background = {
paths = (
{
closed = 1;
nodes = (
"181 -86 OFFCURVE",
"229 -54 OFFCURVE",
"283 -16 CURVE",
"277 2 OFFCURVE",
"274 22 OFFCURVE",
"274 48 CURVE SMOOTH",
"274 269 OFFCURVE",
"479 553 OFFCURVE",
"472 695 CURVE SMOOTH",
"469 757 OFFCURVE",
"428 773 OFFCURVE",
"368 773 CURVE SMOOTH",
"298 773 OFFCURVE",
"220 750 OFFCURVE",
"148 705 CURVE",
"167 670 OFFCURVE",
"171 634 OFFCURVE",
"171 603 CURVE SMOOTH",
"171 376 OFFCURVE",
"10 213 OFFCURVE",
"8 26 CURVE SMOOTH",
"7 -47 OFFCURVE",
"58 -86 OFFCURVE",
"126 -86 CURVE SMOOTH"
);
},
{
closed = 1;
nodes = (
"622 -86 OFFCURVE",
"681 -54 OFFCURVE",
"734 -16 CURVE",
"729 2 OFFCURVE",
"726 22 OFFCURVE",
"726 48 CURVE SMOOTH",
"726 277 OFFCURVE",
"931 553 OFFCURVE",
"924 695 CURVE SMOOTH",
"920 757 OFFCURVE",
"880 773 OFFCURVE",
"820 773 CURVE SMOOTH",
"752 773 OFFCURVE",
"674 750 OFFCURVE",
"599 705 CURVE",
"618 670 OFFCURVE",
"622 634 OFFCURVE",
"622 603 CURVE SMOOTH",
"622 384 OFFCURVE",
"462 213 OFFCURVE",
"459 26 CURVE SMOOTH",
"459 -47 OFFCURVE",
"503 -86 OFFCURVE",
"562 -86 CURVE SMOOTH"
);
},
{
closed = 1;
nodes = (
"288 476 LINE",
"459 26 LINE",
"602 248 LINE",
"472 695 LINE"
);
}
);
};
layerId = "F230F2D8-5ECE-4696-B755-9E0991E97455";
name = "Regular Italic Apr 1 16, 00:51";
paths = (
{
closed = 1;
nodes = (
"181 -86 OFFCURVE",
"229 -54 OFFCURVE",
"283 -16 CURVE",
"277 2 OFFCURVE",
"274 22 OFFCURVE",
"274 48 CURVE SMOOTH",
"274 269 OFFCURVE",
"479 553 OFFCURVE",
"472 695 CURVE SMOOTH",
"469 757 OFFCURVE",
"428 773 OFFCURVE",
"368 773 CURVE SMOOTH",
"298 773 OFFCURVE",
"220 750 OFFCURVE",
"148 705 CURVE",
"167 670 OFFCURVE",
"171 634 OFFCURVE",
"171 603 CURVE SMOOTH",
"171 376 OFFCURVE",
"10 213 OFFCURVE",
"8 26 CURVE SMOOTH",
"7 -47 OFFCURVE",
"58 -86 OFFCURVE",
"126 -86 CURVE SMOOTH"
);
},
{
closed = 1;
nodes = (
"622 -86 OFFCURVE",
"681 -54 OFFCURVE",
"734 -16 CURVE",
"729 2 OFFCURVE",
"726 22 OFFCURVE",
"726 48 CURVE SMOOTH",
"726 277 OFFCURVE",
"931 553 OFFCURVE",
"924 695 CURVE SMOOTH",
"920 757 OFFCURVE",
"880 773 OFFCURVE",
"820 773 CURVE SMOOTH",
"752 773 OFFCURVE",
"674 750 OFFCURVE",
"599 705 CURVE",
"618 670 OFFCURVE",
"622 634 OFFCURVE",
"622 603 CURVE SMOOTH",
"622 384 OFFCURVE",
"462 213 OFFCURVE",
"459 26 CURVE SMOOTH",
"459 -47 OFFCURVE",
"503 -86 OFFCURVE",
"562 -86 CURVE SMOOTH"
);
},
{
closed = 1;
nodes = (
"296 492 LINE",
"459 26 LINE",
"618 256 LINE",
"472 695 LINE"
);
}
);
width = 831;
}
);
unicode = 004E;
},
{
color = 1;
glyphname = O;
lastChange = "2016-04-03 04:18:10 +0000";
layers = (
{
background = {
paths = (
{
closed = 1;
nodes = (
"360 128 OFFCURVE",
"351 148 OFFCURVE",
"351 189 CURVE SMOOTH",
"351 330 OFFCURVE",
"454 577 OFFCURVE",
"521 577 CURVE SMOOTH",
"541 577 OFFCURVE",
"545 557 OFFCURVE",
"545 521 CURVE SMOOTH",
"545 368 OFFCURVE",
"445 128 OFFCURVE",
"379 128 CURVE SMOOTH"
);
},
{
closed = 1;
nodes = (
"25 28 OFFCURVE",
"175 -60 OFFCURVE",
"329 -65 CURVE SMOOTH",
"618 -74 OFFCURVE",
"838 190 OFFCURVE",
"848 494 CURVE SMOOTH",
"855 699 OFFCURVE",
"706 773 OFFCURVE",
"565 777 CURVE SMOOTH",
"271 788 OFFCURVE",
"44 536 OFFCURVE",
"33 253 CURVE SMOOTH"
);
}
);
};
layerId = "BE599D47-15C2-4DC8-BE97-05FFE6CA3179";
paths = (
{
closed = 1;
nodes = (
"360 176 OFFCURVE",
"351 196 OFFCURVE",
"351 237 CURVE SMOOTH",
"351 378 OFFCURVE",
"454 625 OFFCURVE",
"521 625 CURVE SMOOTH",
"541 625 OFFCURVE",
"545 605 OFFCURVE",
"545 569 CURVE SMOOTH",
"545 415 OFFCURVE",
"445 176 OFFCURVE",
"379 176 CURVE SMOOTH"
);
},
{
closed = 1;
nodes = (
"24 67 OFFCURVE",
"186 -17 OFFCURVE",
"346 -17 CURVE SMOOTH",
"626 -17 OFFCURVE",
"838 244 OFFCURVE",
"848 542 CURVE SMOOTH",
"855 756 OFFCURVE",
"693 825 OFFCURVE",
"548 825 CURVE SMOOTH",
"262 825 OFFCURVE",
"44 578 OFFCURVE",
"33 301 CURVE SMOOTH"
);
}
);
width = 799;
},
{
associatedMasterId = "BE599D47-15C2-4DC8-BE97-05FFE6CA3179";
layerId = "99127A64-36F0-4EBD-BD71-E4CCDD784759";
name = "Regular Italic Mar 24 16, 01:55";
paths = (
{
closed = 1;
nodes = (
"10 -3 OFFCURVE",
"127 -64 OFFCURVE",
"272 -64 CURVE SMOOTH",
"503 -64 OFFCURVE",
"665 93 OFFCURVE",
"665 281 CURVE SMOOTH",
"665 440 OFFCURVE",
"548 501 OFFCURVE",
"404 501 CURVE SMOOTH",
"172 501 OFFCURVE",
"10 344 OFFCURVE",
"10 157 CURVE SMOOTH"
);
},
{
closed = 1;
nodes = (
"268 72 OFFCURVE",
"260 86 OFFCURVE",
"260 116 CURVE SMOOTH",
"260 209 OFFCURVE",
"340 376 OFFCURVE",
"396 376 CURVE SMOOTH",
"412 376 OFFCURVE",
"415 362 OFFCURVE",
"415 339 CURVE SMOOTH",
"415 234 OFFCURVE",
"337 72 OFFCURVE",
"284 72 CURVE SMOOTH"
);
}
);
width = 791;
},
{
associatedMasterId = "BE599D47-15C2-4DC8-BE97-05FFE6CA3179";
layerId = "EE8527E5-F617-4280-93FC-9474E75AD7BC";
name = "Regular Italic Mar 24 16, 02:03";
paths = (
{
closed = 1;
nodes = (
"386 136 OFFCURVE",
"377 156 OFFCURVE",
"377 197 CURVE SMOOTH",
"377 338 OFFCURVE",
"480 585 OFFCURVE",
"547 585 CURVE SMOOTH",
"567 585 OFFCURVE",
"571 565 OFFCURVE",
"571 529 CURVE SMOOTH",
"571 376 OFFCURVE",
"471 136 OFFCURVE",
"405 136 CURVE SMOOTH"
);
},
{
closed = 1;
nodes = (
"63 26 OFFCURVE",
"220 -61 OFFCURVE",
"385 -61 CURVE SMOOTH",
"667 -61 OFFCURVE",
"867 189 OFFCURVE",
"867 470 CURVE SMOOTH",
"867 711 OFFCURVE",
"720 789 OFFCURVE",
"561 789 CURVE SMOOTH",
"280 789 OFFCURVE",
"63 539 OFFCURVE",
"63 263 CURVE SMOOTH"
);
}
);
width = 849;
},
{
associatedMasterId = "BE599D47-15C2-4DC8-BE97-05FFE6CA3179";
background = {
paths = (
{
closed = 1;
nodes = (
"386 136 OFFCURVE",
"377 156 OFFCURVE",
"377 197 CURVE SMOOTH",
"377 338 OFFCURVE",
"480 585 OFFCURVE",
"547 585 CURVE SMOOTH",
"567 585 OFFCURVE",
"571 565 OFFCURVE",
"571 529 CURVE SMOOTH",
"571 376 OFFCURVE",
"471 136 OFFCURVE",
"405 136 CURVE SMOOTH"
);
},
{
closed = 1;
nodes = (
"56 26 OFFCURVE",
"212 -61 OFFCURVE",
"369 -61 CURVE SMOOTH",
"661 -61 OFFCURVE",
"839 191 OFFCURVE",
"867 470 CURVE SMOOTH",
"891 711 OFFCURVE",
"728 789 OFFCURVE",
"577 789 CURVE SMOOTH",
"287 789 OFFCURVE",
"71 539 OFFCURVE",
"63 263 CURVE SMOOTH"
);
}
);
};
layerId = "65C6D169-50D5-47C4-BE53-1FA551490203";
name = "Regular Italic Mar 24 16, 02:05";
paths = (
{
closed = 1;
nodes = (
"386 136 OFFCURVE",
"377 156 OFFCURVE",
"377 197 CURVE SMOOTH",
"377 338 OFFCURVE",
"480 585 OFFCURVE",
"547 585 CURVE SMOOTH",
"567 585 OFFCURVE",
"571 565 OFFCURVE",
"571 529 CURVE SMOOTH",
"571 376 OFFCURVE",
"471 136 OFFCURVE",
"405 136 CURVE SMOOTH"
);
},
{
closed = 1;
nodes = (
"63 22 OFFCURVE",
"215 -61 OFFCURVE",
"369 -61 CURVE SMOOTH",
"659 -61 OFFCURVE",
"869 212 OFFCURVE",
"869 516 CURVE SMOOTH",
"869 722 OFFCURVE",
"718 789 OFFCURVE",
"577 789 CURVE SMOOTH",
"282 789 OFFCURVE",
"63 531 OFFCURVE",
"63 247 CURVE SMOOTH"
);
}
);
width = 849;
}
);
unicode = 004F;
},
{
color = 1;
glyphname = P;
lastChange = "2016-04-03 04:18:10 +0000";
layers = (
{
background = {
paths = (
{
closed = 1;
nodes = (
"359 330 OFFCURVE",
"319 339 OFFCURVE",
"252 352 CURVE",
"326 273 LINE",
"339 311 OFFCURVE",
"446 559 OFFCURVE",
"470 602 CURVE",
"370 559 LINE",
"425 576 OFFCURVE",
"455 578 OFFCURVE",
"466 578 CURVE SMOOTH",
"515 578 OFFCURVE",
"545 557 OFFCURVE",
"543 506 CURVE SMOOTH",
"542 443 OFFCURVE",
"506 350 OFFCURVE",
"411 337 CURVE SMOOTH"
);
},
{
closed = 1;
nodes = (
"173 404 OFFCURVE",
"14 197 OFFCURVE",
"14 54 CURVE SMOOTH",
"14 -23 OFFCURVE",
"61 -62 OFFCURVE",
"135 -62 CURVE SMOOTH",
"199 -62 OFFCURVE",
"261 -33 OFFCURVE",
"306 8 CURVE",
"291 35 OFFCURVE",
"282 64 OFFCURVE",
"282 102 CURVE SMOOTH",
"282 136 OFFCURVE",
"298 193 OFFCURVE",
"307 229 CURVE",
"197 196 LINE",
"244 173 OFFCURVE",
"305 162 OFFCURVE",
"372 162 CURVE SMOOTH",
"651 162 OFFCURVE",
"775 298 OFFCURVE",
"808 477 CURVE SMOOTH",
"840 653 OFFCURVE",
"716 773 OFFCURVE",
"503 773 CURVE SMOOTH",
"288 773 LINE SMOOTH",
"209 773 OFFCURVE",
"144 761 OFFCURVE",
"104 598 CURVE",
"160 598 OFFCURVE",
"173 590 OFFCURVE",
"173 547 CURVE"
);
}
);
};
layerId = "BE599D47-15C2-4DC8-BE97-05FFE6CA3179";
paths = (
{
closed = 1;
nodes = (
"482 384 OFFCURVE",
"375 384 CURVE SMOOTH",
"338 384 OFFCURVE",
"303 392 OFFCURVE",
"252 402 CURVE",
"326 323 LINE",
"339 360 OFFCURVE",
"446 609 OFFCURVE",
"470 652 CURVE",
"370 609 LINE",
"425 626 OFFCURVE",
"455 627 OFFCURVE",
"466 627 CURVE SMOOTH",
"514 627 OFFCURVE",
"543 607 OFFCURVE",
"543 559 CURVE SMOOTH",
"543 459 OFFCURVE"
);
},
{
closed = 1;
nodes = (
"173 454 OFFCURVE",
"14 246 OFFCURVE",
"14 104 CURVE SMOOTH",
"14 26 OFFCURVE",
"61 -13 OFFCURVE",
"135 -13 CURVE SMOOTH",
"199 -13 OFFCURVE",
"261 17 OFFCURVE",
"306 58 CURVE",
"291 85 OFFCURVE",
"282 113 OFFCURVE",
"282 152 CURVE SMOOTH",
"282 185 OFFCURVE",
"298 243 OFFCURVE",
"307 279 CURVE",
"197 245 LINE",
"244 223 OFFCURVE",
"305 212 OFFCURVE",
"372 212 CURVE SMOOTH",
"628 212 OFFCURVE",
"812 346 OFFCURVE",
"812 580 CURVE SMOOTH",
"812 726 OFFCURVE",
"693 822 OFFCURVE",
"503 822 CURVE SMOOTH",
"288 822 LINE SMOOTH",
"209 822 OFFCURVE",
"144 810 OFFCURVE",
"104 647 CURVE",
"160 647 OFFCURVE",
"173 639 OFFCURVE",
"173 596 CURVE"
);
}
);
width = 740;
},
{
associatedMasterId = "BE599D47-15C2-4DC8-BE97-05FFE6CA3179";
background = {
paths = (
{
closed = 1;
nodes = (
"597 -63 OFFCURVE",
"820 191 OFFCURVE",
"820 463 CURVE SMOOTH",
"820 658 OFFCURVE",
"707 773 OFFCURVE",
"495 773 CURVE SMOOTH",
"280 773 LINE SMOOTH",
"201 773 OFFCURVE",
"136 761 OFFCURVE",
"97 598 CURVE",
"152 598 OFFCURVE",
"165 590 OFFCURVE",
"165 547 CURVE SMOOTH",
"165 404 OFFCURVE",
"14 206 OFFCURVE",
"14 89 CURVE SMOOTH",
"14 -15 OFFCURVE",
"130 -63 OFFCURVE",
"271 -63 CURVE SMOOTH"
);
},
{
closed = 1;
nodes = (
"308 141 OFFCURVE",
"287 149 OFFCURVE",
"287 170 CURVE SMOOTH",
"287 225 OFFCURVE",
"423 516 OFFCURVE",
"463 591 CURVE",
"364 547 LINE",
"419 564 OFFCURVE",
"449 566 OFFCURVE",
"460 566 CURVE SMOOTH",
"508 566 OFFCURVE",
"535 537 OFFCURVE",
"535 467 CURVE SMOOTH",
"535 335 OFFCURVE",
"440 141 OFFCURVE",
"331 141 CURVE SMOOTH"
);
}
);
};
layerId = "8B01F2BE-8006-4B7C-B261-D8CA120AD9AE";
name = "Regular Italic Mar 25 16, 23:36";
paths = (
{
closed = 1;
nodes = (
"351 330 OFFCURVE",
"312 339 OFFCURVE",
"245 352 CURVE",
"318 273 LINE",
"331 311 OFFCURVE",
"439 559 OFFCURVE",
"463 602 CURVE",
"362 559 LINE",
"417 576 OFFCURVE",
"447 578 OFFCURVE",
"459 578 CURVE SMOOTH",
"507 578 OFFCURVE",
"537 557 OFFCURVE",
"535 506 CURVE SMOOTH",
"534 443 OFFCURVE",
"499 350 OFFCURVE",
"404 337 CURVE SMOOTH"
);
},
{
closed = 1;
nodes = (
"165 404 OFFCURVE",
"6 197 OFFCURVE",
"6 54 CURVE SMOOTH",
"6 -23 OFFCURVE",
"53 -62 OFFCURVE",
"127 -62 CURVE SMOOTH",
"191 -62 OFFCURVE",
"253 -33 OFFCURVE",
"298 8 CURVE",
"283 35 OFFCURVE",
"274 64 OFFCURVE",
"274 102 CURVE SMOOTH",
"274 136 OFFCURVE",
"290 193 OFFCURVE",
"300 229 CURVE",
"189 196 LINE",
"236 173 OFFCURVE",
"297 162 OFFCURVE",
"364 162 CURVE SMOOTH",
"643 162 OFFCURVE",
"767 298 OFFCURVE",
"800 477 CURVE SMOOTH",
"832 653 OFFCURVE",
"708 773 OFFCURVE",
"495 773 CURVE SMOOTH",
"280 773 LINE SMOOTH",
"201 773 OFFCURVE",
"136 761 OFFCURVE",
"97 598 CURVE",
"152 598 OFFCURVE",
"165 590 OFFCURVE",
"165 547 CURVE"
);
}
);
width = 831;
},
{
associatedMasterId = "BE599D47-15C2-4DC8-BE97-05FFE6CA3179";
background = {
paths = (
{
closed = 1;
nodes = (
"597 -63 OFFCURVE",
"820 191 OFFCURVE",
"820 463 CURVE SMOOTH",
"820 658 OFFCURVE",
"707 773 OFFCURVE",
"495 773 CURVE SMOOTH",
"280 773 LINE SMOOTH",
"201 773 OFFCURVE",
"136 761 OFFCURVE",
"97 598 CURVE",
"152 598 OFFCURVE",
"165 590 OFFCURVE",
"165 547 CURVE SMOOTH",
"165 404 OFFCURVE",
"14 206 OFFCURVE",
"14 89 CURVE SMOOTH",
"14 -15 OFFCURVE",
"130 -63 OFFCURVE",
"271 -63 CURVE SMOOTH"
);
},
{
closed = 1;
nodes = (
"308 141 OFFCURVE",
"287 149 OFFCURVE",
"287 170 CURVE SMOOTH",
"287 225 OFFCURVE",
"423 516 OFFCURVE",
"463 591 CURVE",
"364 547 LINE",
"419 564 OFFCURVE",
"449 566 OFFCURVE",
"460 566 CURVE SMOOTH",
"508 566 OFFCURVE",
"535 537 OFFCURVE",
"535 467 CURVE SMOOTH",
"535 335 OFFCURVE",
"440 141 OFFCURVE",
"331 141 CURVE SMOOTH"
);
}
);
};
layerId = "80881496-AD5B-4548-82AC-F61A5042D1A1";
name = "Regular Italic Mar 25 16, 23:44";
paths = (
{
closed = 1;
nodes = (
"351 330 OFFCURVE",
"312 339 OFFCURVE",
"245 352 CURVE",
"318 273 LINE",
"331 311 OFFCURVE",
"439 559 OFFCURVE",
"463 602 CURVE",
"362 559 LINE",
"417 576 OFFCURVE",
"447 578 OFFCURVE",
"459 578 CURVE SMOOTH",
"507 578 OFFCURVE",
"537 557 OFFCURVE",
"535 506 CURVE SMOOTH",
"534 443 OFFCURVE",
"499 350 OFFCURVE",
"404 337 CURVE SMOOTH"
);
},
{
closed = 1;
nodes = (
"165 404 OFFCURVE",
"6 197 OFFCURVE",
"6 54 CURVE SMOOTH",
"6 -23 OFFCURVE",
"53 -62 OFFCURVE",
"127 -62 CURVE SMOOTH",
"191 -62 OFFCURVE",
"253 -33 OFFCURVE",
"298 8 CURVE",
"283 35 OFFCURVE",
"274 64 OFFCURVE",
"274 102 CURVE SMOOTH",
"274 136 OFFCURVE",
"290 193 OFFCURVE",
"300 229 CURVE",
"189 196 LINE",
"236 173 OFFCURVE",
"297 162 OFFCURVE",
"364 162 CURVE SMOOTH",
"643 162 OFFCURVE",
"767 298 OFFCURVE",
"800 477 CURVE SMOOTH",
"832 653 OFFCURVE",
"708 773 OFFCURVE",
"495 773 CURVE SMOOTH",
"280 773 LINE SMOOTH",
"201 773 OFFCURVE",
"136 761 OFFCURVE",
"97 598 CURVE",
"152 598 OFFCURVE",
"165 590 OFFCURVE",
"165 547 CURVE"
);
}
);
width = 739;
}
);
unicode = 0050;
},
{
color = 1;
glyphname = Q;
lastChange = "2016-04-03 04:18:10 +0000";
layers = (
{
background = {
paths = (
{
closed = 1;
nodes = (
"434 -271 OFFCURVE",
"562 -271 CURVE SMOOTH",
"644 -271 OFFCURVE",
"701 -229 OFFCURVE",
"745 -104 CURVE",
"721 -109 OFFCURVE",
"699 -111 OFFCURVE",
"677 -111 CURVE SMOOTH",
"538 -111 OFFCURVE",
"367 -40 OFFCURVE",
"307 -40 CURVE SMOOTH",
"191 -40 OFFCURVE",
"112 -79 OFFCURVE",
"112 -175 CURVE",
"120 -174 OFFCURVE",
"129 -174 OFFCURVE",
"138 -174 CURVE SMOOTH",
"276 -174 OFFCURVE"
);
},
{
closed = 1;
nodes = (
"360 126 OFFCURVE",
"351 146 OFFCURVE",
"351 188 CURVE SMOOTH",
"351 328 OFFCURVE",
"454 575 OFFCURVE",
"522 575 CURVE SMOOTH",
"541 575 OFFCURVE",
"546 555 OFFCURVE",
"546 519 CURVE SMOOTH",
"546 366 OFFCURVE",
"446 126 OFFCURVE",
"379 126 CURVE SMOOTH"
);
},
{
closed = 1;
nodes = (
"25 18 OFFCURVE",
"186 -66 OFFCURVE",
"346 -66 CURVE SMOOTH",
"626 -66 OFFCURVE",
"838 194 OFFCURVE",
"848 492 CURVE SMOOTH",
"856 706 OFFCURVE",
"693 776 OFFCURVE",
"548 776 CURVE SMOOTH",
"263 776 OFFCURVE",
"44 529 OFFCURVE",
"33 252 CURVE SMOOTH"
);
}
);
};
layerId = "BE599D47-15C2-4DC8-BE97-05FFE6CA3179";
paths = (
{
closed = 1;
nodes = (
"434 -245 OFFCURVE",
"562 -245 CURVE SMOOTH",
"644 -245 OFFCURVE",
"701 -185 OFFCURVE",
"745 -54 CURVE",
"721 -59 OFFCURVE",
"699 -62 OFFCURVE",
"677 -62 CURVE SMOOTH",
"538 -62 OFFCURVE",
"367 10 OFFCURVE",
"307 10 CURVE SMOOTH",
"191 10 OFFCURVE",
"112 -15 OFFCURVE",
"112 -149 CURVE",
"120 -149 OFFCURVE",
"129 -149 OFFCURVE",
"138 -149 CURVE SMOOTH",
"276 -149 OFFCURVE"
);
},
{
closed = 1;
nodes = (
"360 176 OFFCURVE",
"351 196 OFFCURVE",
"351 237 CURVE SMOOTH",
"351 378 OFFCURVE",
"454 625 OFFCURVE",
"522 625 CURVE SMOOTH",
"541 625 OFFCURVE",
"546 605 OFFCURVE",
"546 569 CURVE SMOOTH",
"546 415 OFFCURVE",
"446 176 OFFCURVE",
"379 176 CURVE SMOOTH"
);
},
{
closed = 1;
nodes = (
"25 67 OFFCURVE",
"186 -17 OFFCURVE",
"346 -17 CURVE SMOOTH",
"626 -17 OFFCURVE",
"838 244 OFFCURVE",
"848 542 CURVE SMOOTH",
"856 756 OFFCURVE",
"693 825 OFFCURVE",
"548 825 CURVE SMOOTH",
"263 825 OFFCURVE",
"44 578 OFFCURVE",
"33 301 CURVE SMOOTH"
);
}
);
width = 799;
},
{
associatedMasterId = "BE599D47-15C2-4DC8-BE97-05FFE6CA3179";
layerId = "9FE25CE0-8305-4FC9-BE72-D53589CB2B38";
name = "Regular Italic Mar 25 16, 02:37";
paths = (
{
closed = 1;
nodes = (
"459 -271 OFFCURVE",
"588 -271 CURVE SMOOTH",
"670 -271 OFFCURVE",
"726 -229 OFFCURVE",
"771 -104 CURVE",
"747 -109 OFFCURVE",
"725 -111 OFFCURVE",
"703 -111 CURVE SMOOTH",
"564 -111 OFFCURVE",
"392 -40 OFFCURVE",
"332 -40 CURVE SMOOTH",
"217 -40 OFFCURVE",
"137 -79 OFFCURVE",
"137 -175 CURVE",
"146 -174 OFFCURVE",
"155 -174 OFFCURVE",
"164 -174 CURVE SMOOTH",
"302 -174 OFFCURVE"
);
},
{
closed = 1;
nodes = (
"386 126 OFFCURVE",
"377 146 OFFCURVE",
"377 188 CURVE SMOOTH",
"377 328 OFFCURVE",
"480 575 OFFCURVE",
"547 575 CURVE SMOOTH",
"567 575 OFFCURVE",
"571 555 OFFCURVE",
"571 519 CURVE SMOOTH",
"571 366 OFFCURVE",
"471 126 OFFCURVE",
"405 126 CURVE SMOOTH"
);
},
{
closed = 1;
nodes = (
"50 18 OFFCURVE",
"212 -66 OFFCURVE",
"372 -66 CURVE SMOOTH",
"652 -66 OFFCURVE",
"864 194 OFFCURVE",
"874 492 CURVE SMOOTH",
"881 706 OFFCURVE",
"719 776 OFFCURVE",
"574 776 CURVE SMOOTH",
"288 776 OFFCURVE",
"70 529 OFFCURVE",
"59 252 CURVE SMOOTH"
);
}
);
width = 849;
}
);
unicode = 0051;
},
{
color = 1;
glyphname = R;
lastChange = "2016-04-03 04:18:10 +0000";
layers = (
{
background = {
paths = (
{
closed = 1;
nodes = (
"358 370 OFFCURVE",
"319 379 OFFCURVE",
"252 392 CURVE",
"325 313 LINE",
"338 346 OFFCURVE",
"446 565 OFFCURVE",
"470 602 CURVE",
"369 559 LINE",
"424 576 OFFCURVE",
"454 578 OFFCURVE",
"466 578 CURVE SMOOTH",
"514 578 OFFCURVE",
"544 557 OFFCURVE",
"542 506 CURVE SMOOTH",
"541 458 OFFCURVE",
"506 387 OFFCURVE",
"411 377 CURVE SMOOTH"
);
},
{
closed = 1;
nodes = (
"172 404 OFFCURVE",
"13 197 OFFCURVE",
"13 54 CURVE SMOOTH",
"13 -23 OFFCURVE",
"60 -62 OFFCURVE",
"134 -62 CURVE SMOOTH",
"198 -62 OFFCURVE",
"260 -33 OFFCURVE",
"305 8 CURVE",
"290 35 OFFCURVE",
"281 64 OFFCURVE",
"281 102 CURVE SMOOTH",
"281 146 OFFCURVE",
"297 222 OFFCURVE",
"307 269 CURVE",
"196 236 LINE",
"243 213 OFFCURVE",
"304 202 OFFCURVE",
"371 202 CURVE SMOOTH",
"650 202 OFFCURVE",
"774 320 OFFCURVE",
"807 477 CURVE SMOOTH",
"839 653 OFFCURVE",
"715 773 OFFCURVE",
"502 773 CURVE SMOOTH",
"287 773 LINE SMOOTH",
"208 773 OFFCURVE",
"143 761 OFFCURVE",
"104 598 CURVE",
"159 598 OFFCURVE",
"172 590 OFFCURVE",
"172 547 CURVE"
);
},
{
closed = 1;
nodes = (
"312 302 LINE",
"360 111 OFFCURVE",
"445 -78 OFFCURVE",
"535 -78 CURVE SMOOTH",
"614 -78 OFFCURVE",
"666 -14 OFFCURVE",
"710 74 CURVE",
"621 98 OFFCURVE",
"586 153 OFFCURVE",
"492 356 CURVE"
);
}
);
};
layerId = "BE599D47-15C2-4DC8-BE97-05FFE6CA3179";
paths = (
{
closed = 1;
nodes = (
"475 424 OFFCURVE",
"374 424 CURVE SMOOTH",
"345 424 OFFCURVE",
"321 427 OFFCURVE",
"252 442 CURVE",
"325 363 LINE",
"341 403 OFFCURVE",
"450 620 OFFCURVE",
"470 652 CURVE",
"369 609 LINE",
"406 620 OFFCURVE",
"443 627 OFFCURVE",
"466 627 CURVE SMOOTH",
"516 627 OFFCURVE",
"542 604 OFFCURVE",
"542 559 CURVE SMOOTH",
"542 479 OFFCURVE"
);
},
{
closed = 1;
nodes = (
"172 454 OFFCURVE",
"13 246 OFFCURVE",
"13 104 CURVE SMOOTH",
"13 26 OFFCURVE",
"60 -13 OFFCURVE",
"134 -13 CURVE SMOOTH",
"198 -13 OFFCURVE",
"260 17 OFFCURVE",
"305 58 CURVE",
"290 85 OFFCURVE",
"281 113 OFFCURVE",
"281 152 CURVE SMOOTH",
"281 196 OFFCURVE",
"297 272 OFFCURVE",
"307 319 CURVE",
"196 285 LINE",
"243 263 OFFCURVE",
"304 252 OFFCURVE",
"371 252 CURVE SMOOTH",
"620 252 OFFCURVE",
"812 372 OFFCURVE",
"812 591 CURVE SMOOTH",
"812 725 OFFCURVE",
"693 822 OFFCURVE",
"502 822 CURVE SMOOTH",
"287 822 LINE SMOOTH",
"208 822 OFFCURVE",
"143 810 OFFCURVE",
"104 647 CURVE",
"159 647 OFFCURVE",
"172 639 OFFCURVE",
"172 596 CURVE"
);
},
{
closed = 1;
nodes = (
"312 352 LINE",
"360 161 OFFCURVE",
"445 -29 OFFCURVE",
"535 -29 CURVE SMOOTH",
"614 -29 OFFCURVE",
"666 36 OFFCURVE",
"710 124 CURVE",
"621 148 OFFCURVE",
"586 203 OFFCURVE",
"492 406 CURVE"
);
}
);
width = 753;
},
{
associatedMasterId = "BE599D47-15C2-4DC8-BE97-05FFE6CA3179";
background = {
paths = (
{
closed = 1;
nodes = (
"62 -29 OFFCURVE",
"113 -71 OFFCURVE",
"165 -70 CURVE SMOOTH",
"215 -68 OFFCURVE",
"276 -17 OFFCURVE",
"348 55 CURVE",
"380 1 OFFCURVE",
"411 -66 OFFCURVE",
"462 -65 CURVE SMOOTH",
"544 -62 OFFCURVE",
"599 0 OFFCURVE",
"645 88 CURVE",
"588 102 OFFCURVE",
"547 150 OFFCURVE",
"522 205 CURVE",
"608 272 OFFCURVE",
"672 350 OFFCURVE",
"671 415 CURVE SMOOTH",
"670 461 OFFCURVE",
"620 503 OFFCURVE",
"521 513 CURVE",
"517 467 OFFCURVE",
"487 419 OFFCURVE",
"439 368 CURVE",
"404 466 OFFCURVE",
"368 501 OFFCURVE",
"257 497 CURVE SMOOTH",
"209 495 OFFCURVE",
"151 466 OFFCURVE",
"117 435 CURVE",
"168 385 OFFCURVE",
"207 318 OFFCURVE",
"253 212 CURVE",
"185 161 OFFCURVE",
"114 103 OFFCURVE",
"46 81 CURVE"
);
}
);
};
layerId = "78BC9198-40C6-4CB7-89EA-647C92FB6CB8";
name = "Regular Italic Mar 25 16, 23:41";
paths = (
{
closed = 1;
nodes = (
"351 330 OFFCURVE",
"312 339 OFFCURVE",
"245 352 CURVE",
"318 273 LINE",
"331 311 OFFCURVE",
"439 559 OFFCURVE",
"463 602 CURVE",
"362 559 LINE",
"417 576 OFFCURVE",
"447 578 OFFCURVE",
"459 578 CURVE SMOOTH",
"507 578 OFFCURVE",
"537 557 OFFCURVE",
"535 506 CURVE SMOOTH",
"534 443 OFFCURVE",
"499 350 OFFCURVE",
"404 337 CURVE SMOOTH"
);
},
{
closed = 1;
nodes = (
"165 404 OFFCURVE",
"6 197 OFFCURVE",
"6 54 CURVE SMOOTH",
"6 -23 OFFCURVE",
"53 -62 OFFCURVE",
"127 -62 CURVE SMOOTH",
"191 -62 OFFCURVE",
"253 -33 OFFCURVE",
"298 8 CURVE",
"283 35 OFFCURVE",
"274 64 OFFCURVE",
"274 102 CURVE SMOOTH",
"274 136 OFFCURVE",
"290 193 OFFCURVE",
"300 229 CURVE",
"189 196 LINE",
"236 173 OFFCURVE",
"297 162 OFFCURVE",
"364 162 CURVE SMOOTH",
"643 162 OFFCURVE",
"767 298 OFFCURVE",
"800 477 CURVE SMOOTH",
"832 653 OFFCURVE",
"708 773 OFFCURVE",
"495 773 CURVE SMOOTH",
"280 773 LINE SMOOTH",
"201 773 OFFCURVE",
"136 761 OFFCURVE",
"97 598 CURVE",
"152 598 OFFCURVE",
"165 590 OFFCURVE",
"165 547 CURVE"
);
},
{
closed = 1;
nodes = (
"281 246 LINE",
"286 236 OFFCURVE",
"291 225 OFFCURVE",
"296 214 CURVE",
"390 58 LINE",
"422 3 OFFCURVE",
"453 -62 OFFCURVE",
"504 -62 CURVE SMOOTH",
"586 -62 OFFCURVE",
"642 2 OFFCURVE",
"687 90 CURVE",
"630 105 OFFCURVE",
"589 153 OFFCURVE",
"564 207 CURVE",
"517 300 LINE"
);
}
);
width = 739;
},
{
associatedMasterId = "BE599D47-15C2-4DC8-BE97-05FFE6CA3179";
background = {
paths = (
{
closed = 1;
nodes = (
"351 330 OFFCURVE",
"312 339 OFFCURVE",
"245 352 CURVE",
"318 273 LINE",
"331 311 OFFCURVE",
"439 559 OFFCURVE",
"463 602 CURVE",
"362 559 LINE",
"417 576 OFFCURVE",
"447 578 OFFCURVE",
"459 578 CURVE SMOOTH",
"507 578 OFFCURVE",
"537 557 OFFCURVE",
"535 506 CURVE SMOOTH",
"534 443 OFFCURVE",
"499 350 OFFCURVE",
"404 337 CURVE SMOOTH"
);
},
{
closed = 1;
nodes = (
"165 404 OFFCURVE",
"6 197 OFFCURVE",
"6 54 CURVE SMOOTH",
"6 -23 OFFCURVE",
"53 -62 OFFCURVE",
"127 -62 CURVE SMOOTH",
"191 -62 OFFCURVE",
"253 -33 OFFCURVE",
"298 8 CURVE",
"283 35 OFFCURVE",
"274 64 OFFCURVE",
"274 102 CURVE SMOOTH",
"274 136 OFFCURVE",
"290 193 OFFCURVE",
"300 229 CURVE",
"189 196 LINE",
"236 173 OFFCURVE",
"297 162 OFFCURVE",
"364 162 CURVE SMOOTH",
"643 162 OFFCURVE",
"767 298 OFFCURVE",
"800 477 CURVE SMOOTH",
"832 653 OFFCURVE",
"708 773 OFFCURVE",
"495 773 CURVE SMOOTH",
"280 773 LINE SMOOTH",
"201 773 OFFCURVE",
"136 761 OFFCURVE",
"97 598 CURVE",
"152 598 OFFCURVE",
"165 590 OFFCURVE",
"165 547 CURVE"
);
},
{
closed = 1;
nodes = (
"281 246 LINE",
"286 236 OFFCURVE",
"291 225 OFFCURVE",
"296 214 CURVE",
"390 58 LINE",
"422 3 OFFCURVE",
"453 -62 OFFCURVE",
"504 -62 CURVE SMOOTH",
"586 -62 OFFCURVE",
"642 2 OFFCURVE",
"687 90 CURVE",
"630 105 OFFCURVE",
"589 153 OFFCURVE",
"564 207 CURVE",
"517 300 LINE"
);
}
);
};
layerId = "D902065B-5AB6-48B9-9279-E29860DA9991";
name = "Regular Italic Mar 25 16, 23:41";
paths = (
{
closed = 1;
nodes = (
"351 330 OFFCURVE",
"312 339 OFFCURVE",
"245 352 CURVE",
"318 273 LINE",
"331 311 OFFCURVE",
"439 559 OFFCURVE",
"463 602 CURVE",
"362 559 LINE",
"417 576 OFFCURVE",
"447 578 OFFCURVE",
"459 578 CURVE SMOOTH",
"507 578 OFFCURVE",
"537 557 OFFCURVE",
"535 506 CURVE SMOOTH",
"534 443 OFFCURVE",
"499 350 OFFCURVE",
"404 337 CURVE SMOOTH"
);
},
{
closed = 1;
nodes = (
"165 404 OFFCURVE",
"6 197 OFFCURVE",
"6 54 CURVE SMOOTH",
"6 -23 OFFCURVE",
"53 -62 OFFCURVE",
"127 -62 CURVE SMOOTH",
"191 -62 OFFCURVE",
"253 -33 OFFCURVE",
"298 8 CURVE",
"283 35 OFFCURVE",
"274 64 OFFCURVE",
"274 102 CURVE SMOOTH",
"274 136 OFFCURVE",
"290 193 OFFCURVE",
"300 229 CURVE",
"189 196 LINE",
"236 173 OFFCURVE",
"297 162 OFFCURVE",
"364 162 CURVE SMOOTH",
"643 162 OFFCURVE",
"767 298 OFFCURVE",
"800 477 CURVE SMOOTH",
"832 653 OFFCURVE",
"708 773 OFFCURVE",
"495 773 CURVE SMOOTH",
"280 773 LINE SMOOTH",
"201 773 OFFCURVE",
"136 761 OFFCURVE",
"97 598 CURVE",
"152 598 OFFCURVE",
"165 590 OFFCURVE",
"165 547 CURVE"
);
},
{
closed = 1;
nodes = (
"281 246 LINE",
"286 236 OFFCURVE",
"291 225 OFFCURVE",
"296 214 CURVE",
"390 58 LINE",
"422 3 OFFCURVE",
"453 -62 OFFCURVE",
"504 -62 CURVE SMOOTH",
"586 -62 OFFCURVE",
"642 2 OFFCURVE",
"687 90 CURVE",
"630 105 OFFCURVE",
"589 153 OFFCURVE",
"564 207 CURVE",
"517 300 LINE"
);
}
);
width = 739;
},
{
associatedMasterId = "BE599D47-15C2-4DC8-BE97-05FFE6CA3179";
background = {
paths = (
{
closed = 1;
nodes = (
"351 330 OFFCURVE",
"312 339 OFFCURVE",
"245 352 CURVE",
"318 273 LINE",
"331 311 OFFCURVE",
"439 559 OFFCURVE",
"463 602 CURVE",
"362 559 LINE",
"417 576 OFFCURVE",
"447 578 OFFCURVE",
"459 578 CURVE SMOOTH",
"507 578 OFFCURVE",
"537 557 OFFCURVE",
"535 506 CURVE SMOOTH",
"534 443 OFFCURVE",
"499 350 OFFCURVE",
"404 337 CURVE SMOOTH"
);
},
{
closed = 1;
nodes = (
"165 404 OFFCURVE",
"6 197 OFFCURVE",
"6 54 CURVE SMOOTH",
"6 -23 OFFCURVE",
"53 -62 OFFCURVE",
"127 -62 CURVE SMOOTH",
"191 -62 OFFCURVE",
"253 -33 OFFCURVE",
"298 8 CURVE",
"283 35 OFFCURVE",
"274 64 OFFCURVE",
"274 102 CURVE SMOOTH",
"274 136 OFFCURVE",
"290 193 OFFCURVE",
"300 229 CURVE",
"189 196 LINE",
"236 173 OFFCURVE",
"297 162 OFFCURVE",
"364 162 CURVE SMOOTH",
"643 162 OFFCURVE",
"767 298 OFFCURVE",
"800 477 CURVE SMOOTH",
"832 653 OFFCURVE",
"708 773 OFFCURVE",
"495 773 CURVE SMOOTH",
"280 773 LINE SMOOTH",
"201 773 OFFCURVE",
"136 761 OFFCURVE",
"97 598 CURVE",
"152 598 OFFCURVE",
"165 590 OFFCURVE",
"165 547 CURVE"
);
},
{
closed = 1;
nodes = (
"281 246 LINE",
"286 236 OFFCURVE",
"291 225 OFFCURVE",
"296 214 CURVE",
"390 58 LINE",
"422 3 OFFCURVE",
"453 -62 OFFCURVE",
"504 -62 CURVE SMOOTH",
"586 -62 OFFCURVE",
"642 2 OFFCURVE",
"687 90 CURVE",
"630 105 OFFCURVE",
"589 153 OFFCURVE",
"564 207 CURVE",
"517 300 LINE"
);
}
);
};
layerId = "029954DD-C2EC-4520-BADB-211DFBBAF206";
name = "Regular Italic Mar 25 16, 23:43";
paths = (
{
closed = 1;
nodes = (
"351 370 OFFCURVE",
"312 379 OFFCURVE",
"245 392 CURVE",
"318 313 LINE",
"331 346 OFFCURVE",
"439 565 OFFCURVE",
"463 602 CURVE",
"362 559 LINE",
"417 576 OFFCURVE",
"447 578 OFFCURVE",
"459 578 CURVE SMOOTH",
"507 578 OFFCURVE",
"537 557 OFFCURVE",
"535 506 CURVE SMOOTH",
"534 458 OFFCURVE",
"499 387 OFFCURVE",
"404 377 CURVE SMOOTH"
);
},
{
closed = 1;
nodes = (
"165 404 OFFCURVE",
"6 197 OFFCURVE",
"6 54 CURVE SMOOTH",
"6 -23 OFFCURVE",
"53 -62 OFFCURVE",
"127 -62 CURVE SMOOTH",
"191 -62 OFFCURVE",
"253 -33 OFFCURVE",
"298 8 CURVE",
"283 35 OFFCURVE",
"274 64 OFFCURVE",
"274 102 CURVE SMOOTH",
"274 146 OFFCURVE",
"290 222 OFFCURVE",
"300 269 CURVE",
"189 236 LINE",
"236 213 OFFCURVE",
"297 202 OFFCURVE",
"364 202 CURVE SMOOTH",
"643 202 OFFCURVE",
"767 320 OFFCURVE",
"800 477 CURVE SMOOTH",
"832 653 OFFCURVE",
"708 773 OFFCURVE",
"495 773 CURVE SMOOTH",
"280 773 LINE SMOOTH",
"201 773 OFFCURVE",
"136 761 OFFCURVE",
"97 598 CURVE",
"152 598 OFFCURVE",
"165 590 OFFCURVE",
"165 547 CURVE"
);
},
{
closed = 1;
nodes = (
"305 302 LINE",
"353 111 OFFCURVE",
"438 -78 OFFCURVE",
"528 -78 CURVE SMOOTH",
"607 -78 OFFCURVE",
"659 -14 OFFCURVE",
"703 74 CURVE",
"614 98 OFFCURVE",
"579 153 OFFCURVE",
"485 356 CURVE"
);
}
);
width = 739;
}
);
unicode = 0052;
},
{
color = 1;
glyphname = S;
lastChange = "2016-04-03 04:18:10 +0000";
layers = (
{
background = {
paths = (
{
closed = 1;
nodes = (
"20 225 OFFCURVE",
"3 188 OFFCURVE",
"2 118 CURVE SMOOTH",
"-1 7 OFFCURVE",
"118 -62 OFFCURVE",
"285 -62 CURVE SMOOTH",
"498 -62 OFFCURVE",
"663 30 OFFCURVE",
"666 238 CURVE SMOOTH",
"669 451 OFFCURVE",
"410 460 OFFCURVE",
"411 512 CURVE SMOOTH",
"412 541 OFFCURVE",
"444 557 OFFCURVE",
"492 557 CURVE SMOOTH",
"558 557 OFFCURVE",
"627 530 OFFCURVE",
"678 487 CURVE",
"733 511 OFFCURVE",
"758 575 OFFCURVE",
"758 611 CURVE SMOOTH",
"760 727 OFFCURVE",
"617 776 OFFCURVE",
"503 776 CURVE SMOOTH",
"287 776 OFFCURVE",
"99 672 OFFCURVE",
"96 475 CURVE SMOOTH",
"94 295 OFFCURVE",
"338 292 OFFCURVE",
"337 237 CURVE SMOOTH",
"337 194 OFFCURVE",
"317 174 OFFCURVE",
"278 174 CURVE SMOOTH",
"227 174 OFFCURVE",
"122 207 OFFCURVE",
"63 276 CURVE"
);
}
);
};
layerId = "BE599D47-15C2-4DC8-BE97-05FFE6CA3179";
paths = (
{
closed = 1;
nodes = (
"24 280 OFFCURVE",
"2 233 OFFCURVE",
"2 177 CURVE SMOOTH",
"2 50 OFFCURVE",
"118 -13 OFFCURVE",
"286 -13 CURVE SMOOTH",
"498 -13 OFFCURVE",
"666 85 OFFCURVE",
"666 277 CURVE SMOOTH",
"666 511 OFFCURVE",
"417 503 OFFCURVE",
"411 562 CURVE SMOOTH",
"409 580 OFFCURVE",
"430 606 OFFCURVE",
"493 606 CURVE SMOOTH",
"557 606 OFFCURVE",
"627 579 OFFCURVE",
"678 537 CURVE",
"735 563 OFFCURVE",
"758 623 OFFCURVE",
"758 667 CURVE SMOOTH",
"758 767 OFFCURVE",
"637 825 OFFCURVE",
"492 825 CURVE SMOOTH",
"292 825 OFFCURVE",
"96 716 OFFCURVE",
"96 535 CURVE SMOOTH",
"96 332 OFFCURVE",
"337 359 OFFCURVE",
"337 274 CURVE SMOOTH",
"337 250 OFFCURVE",
"317 224 OFFCURVE",
"276 224 CURVE SMOOTH",
"229 224 OFFCURVE",
"122 256 OFFCURVE",
"63 325 CURVE"
);
}
);
width = 682;
},
{
associatedMasterId = "BE599D47-15C2-4DC8-BE97-05FFE6CA3179";
layerId = "E6D89D02-6F16-40A0-8FDC-A46309A62962";
name = "Regular Italic Mar 28 16, 04:50";
paths = (
{
closed = 1;
nodes = (
"57 184 OFFCURVE",
"57 123 CURVE SMOOTH",
"57 20 OFFCURVE",
"184 -46 OFFCURVE",
"364 -46 CURVE SMOOTH",
"568 -46 OFFCURVE",
"727 30 OFFCURVE",
"727 201 CURVE SMOOTH",
"727 378 OFFCURVE",
"506 384 OFFCURVE",
"506 426 CURVE SMOOTH",
"506 447 OFFCURVE",
"534 459 OFFCURVE",
"575 459 CURVE SMOOTH",
"630 459 OFFCURVE",
"690 436 OFFCURVE",
"734 401 CURVE",
"781 421 OFFCURVE",
"803 477 OFFCURVE",
"803 508 CURVE SMOOTH",
"803 603 OFFCURVE",
"637 643 OFFCURVE",
"506 643 CURVE SMOOTH",
"305 643 OFFCURVE",
"134 559 OFFCURVE",
"134 398 CURVE SMOOTH",
"134 262 OFFCURVE",
"344 246 OFFCURVE",
"344 200 CURVE SMOOTH",
"344 185 OFFCURVE",
"326 178 OFFCURVE",
"292 178 CURVE SMOOTH",
"250 178 OFFCURVE",
"159 205 OFFCURVE",
"107 262 CURVE",
"72 221 OFFCURVE"
);
}
);
width = 783;
},
{
associatedMasterId = "BE599D47-15C2-4DC8-BE97-05FFE6CA3179";
layerId = "B66F1134-B14F-409A-A723-E0BE6579664A";
name = "Regular Italic Mar 28 16, 05:10";
paths = (
{
closed = 1;
nodes = (
"31 217 OFFCURVE",
"30 142 CURVE SMOOTH",
"28 17 OFFCURVE",
"146 -62 OFFCURVE",
"314 -62 CURVE SMOOTH",
"527 -62 OFFCURVE",
"692 30 OFFCURVE",
"694 238 CURVE SMOOTH",
"698 451 OFFCURVE",
"439 460 OFFCURVE",
"439 512 CURVE SMOOTH",
"440 537 OFFCURVE",
"473 551 OFFCURVE",
"521 551 CURVE SMOOTH",
"586 551 OFFCURVE",
"656 523 OFFCURVE",
"706 481 CURVE",
"761 506 OFFCURVE",
"787 574 OFFCURVE",
"787 611 CURVE SMOOTH",
"789 727 OFFCURVE",
"646 776 OFFCURVE",
"531 776 CURVE SMOOTH",
"316 776 OFFCURVE",
"128 672 OFFCURVE",
"125 475 CURVE SMOOTH",
"122 311 OFFCURVE",
"367 292 OFFCURVE",
"366 237 CURVE SMOOTH",
"365 218 OFFCURVE",
"345 209 OFFCURVE",
"307 209 CURVE SMOOTH",
"256 209 OFFCURVE",
"150 242 OFFCURVE",
"91 311 CURVE",
"49 263 OFFCURVE"
);
}
);
width = 721;
},
{
associatedMasterId = "BE599D47-15C2-4DC8-BE97-05FFE6CA3179";
background = {
paths = (
{
closed = 1;
nodes = (
"49 225 OFFCURVE",
"31 188 OFFCURVE",
"30 118 CURVE SMOOTH",
"28 7 OFFCURVE",
"146 -62 OFFCURVE",
"314 -62 CURVE SMOOTH",
"527 -62 OFFCURVE",
"692 30 OFFCURVE",
"694 238 CURVE SMOOTH",
"698 451 OFFCURVE",
"439 460 OFFCURVE",
"439 512 CURVE SMOOTH",
"440 541 OFFCURVE",
"473 557 OFFCURVE",
"521 557 CURVE SMOOTH",
"586 557 OFFCURVE",
"656 530 OFFCURVE",
"706 487 CURVE",
"761 511 OFFCURVE",
"787 575 OFFCURVE",
"787 611 CURVE SMOOTH",
"789 727 OFFCURVE",
"646 776 OFFCURVE",
"531 776 CURVE SMOOTH",
"316 776 OFFCURVE",
"128 672 OFFCURVE",
"125 475 CURVE SMOOTH",
"122 295 OFFCURVE",
"367 292 OFFCURVE",
"366 237 CURVE SMOOTH",
"365 194 OFFCURVE",
"345 174 OFFCURVE",
"307 174 CURVE SMOOTH",
"256 174 OFFCURVE",
"150 207 OFFCURVE",
"91 276 CURVE"
);
}
);
};
layerId = "2E28A237-2436-4176-8332-1FD741639E13";
name = "Regular Italic Mar 28 16, 05:12";
paths = (
{
closed = 1;
nodes = (
"49 225 OFFCURVE",
"31 188 OFFCURVE",
"30 118 CURVE SMOOTH",
"28 7 OFFCURVE",
"146 -62 OFFCURVE",
"314 -62 CURVE SMOOTH",
"527 -62 OFFCURVE",
"692 30 OFFCURVE",
"694 238 CURVE SMOOTH",
"698 451 OFFCURVE",
"439 460 OFFCURVE",
"439 512 CURVE SMOOTH",
"440 541 OFFCURVE",
"473 557 OFFCURVE",
"521 557 CURVE SMOOTH",
"586 557 OFFCURVE",
"656 530 OFFCURVE",
"706 487 CURVE",
"761 511 OFFCURVE",
"787 575 OFFCURVE",
"787 611 CURVE SMOOTH",
"789 727 OFFCURVE",
"646 776 OFFCURVE",
"531 776 CURVE SMOOTH",
"316 776 OFFCURVE",
"128 672 OFFCURVE",
"125 475 CURVE SMOOTH",
"122 295 OFFCURVE",
"367 292 OFFCURVE",
"366 237 CURVE SMOOTH",
"365 194 OFFCURVE",
"345 174 OFFCURVE",
"307 174 CURVE SMOOTH",
"256 174 OFFCURVE",
"150 207 OFFCURVE",
"91 276 CURVE"
);
}
);
width = 721;
}
);
unicode = 0053;
},
{
color = 1;
glyphname = T;
lastChange = "2016-04-03 04:18:10 +0000";
layers = (
{
layerId = "BE599D47-15C2-4DC8-BE97-05FFE6CA3179";
paths = (
{
closed = 1;
nodes = (
"116 26 OFFCURVE",
"162 -13 OFFCURVE",
"237 -13 CURVE SMOOTH",
"301 -13 OFFCURVE",
"363 17 OFFCURVE",
"408 58 CURVE",
"393 85 OFFCURVE",
"384 113 OFFCURVE",
"384 155 CURVE SMOOTH",
"384 307 OFFCURVE",
"500 551 OFFCURVE",
"560 660 CURVE",
"505 601 LINE",
"588 598 LINE SMOOTH",
"681 592 OFFCURVE",
"735 614 OFFCURVE",
"735 744 CURVE SMOOTH",
"735 777 OFFCURVE",
"729 803 OFFCURVE",
"717 829 CURVE",
"665 811 OFFCURVE",
"609 803 OFFCURVE",
"552 803 CURVE SMOOTH",
"464 803 OFFCURVE",
"359 822 OFFCURVE",
"272 822 CURVE SMOOTH",
"179 822 OFFCURVE",
"127 758 OFFCURVE",
"93 602 CURVE",
"149 612 OFFCURVE",
"216 627 OFFCURVE",
"349 608 CURVE",
"285 670 LINE",
"284 526 OFFCURVE",
"116 255 OFFCURVE",
"116 104 CURVE SMOOTH"
);
}
);
width = 605;
},
{
associatedMasterId = "BE599D47-15C2-4DC8-BE97-05FFE6CA3179";
layerId = "86C2F621-93AD-4205-B26E-4FDA6BB0B092";
name = "Regular Italic Mar 25 16, 02:34";
paths = (
{
closed = 1;
nodes = (
"112 -23 OFFCURVE",
"158 -62 OFFCURVE",
"233 -62 CURVE SMOOTH",
"296 -62 OFFCURVE",
"359 -33 OFFCURVE",
"404 8 CURVE",
"388 35 OFFCURVE",
"380 64 OFFCURVE",
"380 102 CURVE SMOOTH",
"380 201 OFFCURVE",
"503 525 OFFCURVE",
"556 610 CURVE",
"501 551 LINE",
"584 548 LINE SMOOTH",
"677 543 OFFCURVE",
"731 565 OFFCURVE",
"731 694 CURVE SMOOTH",
"731 727 OFFCURVE",
"725 753 OFFCURVE",
"713 779 CURVE",
"661 761 OFFCURVE",
"613 753 OFFCURVE",
"563 753 CURVE SMOOTH",
"492 753 OFFCURVE",
"355 773 OFFCURVE",
"268 773 CURVE SMOOTH",
"175 773 OFFCURVE",
"123 709 OFFCURVE",
"89 552 CURVE",
"145 563 OFFCURVE",
"212 578 OFFCURVE",
"344 559 CURVE",
"280 621 LINE",
"280 476 OFFCURVE",
"112 205 OFFCURVE",
"112 54 CURVE SMOOTH"
);
}
);
width = 600;
}
);
unicode = 0054;
},
{
color = 1;
glyphname = U;
lastChange = "2016-04-03 04:18:10 +0000";
layers = (
{
background = {
paths = (
{
closed = 1;
nodes = (
"182 -86 OFFCURVE",
"241 -54 OFFCURVE",
"294 -16 CURVE",
"289 2 OFFCURVE",
"285 22 OFFCURVE",
"285 48 CURVE SMOOTH",
"285 269 OFFCURVE",
"491 553 OFFCURVE",
"484 695 CURVE SMOOTH",
"480 757 OFFCURVE",
"440 773 OFFCURVE",
"380 773 CURVE SMOOTH",
"307 773 OFFCURVE",
"220 750 OFFCURVE",
"143 705 CURVE",
"162 670 OFFCURVE",
"166 634 OFFCURVE",
"166 603 CURVE SMOOTH",
"166 376 OFFCURVE",
"6 213 OFFCURVE",
"3 26 CURVE SMOOTH",
"3 -47 OFFCURVE",
"53 -86 OFFCURVE",
"122 -86 CURVE SMOOTH"
);
},
{
closed = 1;
nodes = (
"609 -86 OFFCURVE",
"668 -54 OFFCURVE",
"722 -16 CURVE",
"716 2 OFFCURVE",
"713 22 OFFCURVE",
"713 48 CURVE SMOOTH",
"713 277 OFFCURVE",
"918 553 OFFCURVE",
"911 695 CURVE SMOOTH",
"908 757 OFFCURVE",
"867 773 OFFCURVE",
"807 773 CURVE SMOOTH",
"735 773 OFFCURVE",
"647 750 OFFCURVE",
"571 705 CURVE",
"590 670 OFFCURVE",
"594 634 OFFCURVE",
"594 603 CURVE SMOOTH",
"594 384 OFFCURVE",
"433 213 OFFCURVE",
"431 26 CURVE SMOOTH",
"430 -47 OFFCURVE",
"480 -86 OFFCURVE",
"549 -86 CURVE SMOOTH"
);
},
{
closed = 1;
nodes = (
"264 276 LINE",
"592 276 LINE",
"612 423 LINE",
"284 423 LINE"
);
}
);
};
layerId = "BE599D47-15C2-4DC8-BE97-05FFE6CA3179";
paths = (
{
closed = 1;
nodes = (
"36 58 OFFCURVE",
"113 -13 OFFCURVE",
"203 -13 CURVE SMOOTH",
"291 -13 OFFCURVE",
"367 54 OFFCURVE",
"437 125 CURVE",
"444 125 LINE",
"413 32 OFFCURVE",
"438 -13 OFFCURVE",
"536 -13 CURVE SMOOTH",
"613 -13 OFFCURVE",
"667 15 OFFCURVE",
"736 44 CURVE",
"720 62 OFFCURVE",
"715 94 OFFCURVE",
"716 138 CURVE SMOOTH",
"724 350 OFFCURVE",
"897 570 OFFCURVE",
"907 710 CURVE SMOOTH",
"913 789 OFFCURVE",
"866 812 OFFCURVE",
"796 812 CURVE SMOOTH",
"736 812 OFFCURVE",
"655 795 OFFCURVE",
"581 759 CURVE",
"592 722 OFFCURVE",
"595 695 OFFCURVE",
"595 665 CURVE SMOOTH",
"590 529 OFFCURVE",
"500 265 OFFCURVE",
"411 265 CURVE SMOOTH",
"382 265 OFFCURVE",
"375 293 OFFCURVE",
"375 321 CURVE SMOOTH",
"375 423 OFFCURVE",
"470 583 OFFCURVE",
"475 689 CURVE SMOOTH",
"478 769 OFFCURVE",
"429 812 OFFCURVE",
"338 812 CURVE SMOOTH",
"269 812 OFFCURVE",
"211 787 OFFCURVE",
"122 741 CURVE",
"150 706 OFFCURVE",
"157 687 OFFCURVE",
"155 638 CURVE SMOOTH",
"149 459 OFFCURVE",
"44 280 OFFCURVE",
"40 163 CURVE SMOOTH"
);
}
);
width = 812;
},
{
associatedMasterId = "BE599D47-15C2-4DC8-BE97-05FFE6CA3179";
background = {
paths = (
{
closed = 1;
nodes = (
"242 -86 OFFCURVE",
"301 -54 OFFCURVE",
"355 -16 CURVE",
"349 2 OFFCURVE",
"346 22 OFFCURVE",
"346 48 CURVE SMOOTH",
"346 269 OFFCURVE",
"551 553 OFFCURVE",
"544 695 CURVE SMOOTH",
"541 757 OFFCURVE",
"500 773 OFFCURVE",
"440 773 CURVE SMOOTH",
"368 773 OFFCURVE",
"280 750 OFFCURVE",
"204 705 CURVE",
"223 670 OFFCURVE",
"227 634 OFFCURVE",
"227 603 CURVE SMOOTH",
"227 376 OFFCURVE",
"66 213 OFFCURVE",
"64 26 CURVE SMOOTH",
"63 -47 OFFCURVE",
"113 -86 OFFCURVE",
"182 -86 CURVE SMOOTH"
);
},
{
closed = 1;
nodes = (
"670 -86 OFFCURVE",
"729 -54 OFFCURVE",
"782 -16 CURVE",
"777 2 OFFCURVE",
"773 22 OFFCURVE",
"773 48 CURVE SMOOTH",
"773 277 OFFCURVE",
"979 553 OFFCURVE",
"972 695 CURVE SMOOTH",
"968 757 OFFCURVE",
"928 773 OFFCURVE",
"868 773 CURVE SMOOTH",
"795 773 OFFCURVE",
"708 750 OFFCURVE",
"631 705 CURVE",
"650 670 OFFCURVE",
"654 634 OFFCURVE",
"654 603 CURVE SMOOTH",
"654 384 OFFCURVE",
"494 213 OFFCURVE",
"491 26 CURVE SMOOTH",
"491 -47 OFFCURVE",
"541 -86 OFFCURVE",
"610 -86 CURVE SMOOTH"
);
},
{
closed = 1;
nodes = (
"324 276 LINE",
"653 276 LINE",
"673 423 LINE",
"344 423 LINE"
);
}
);
};
layerId = "4A9A88C6-0EF2-4E8B-9A63-D21FF49ABA7D";
name = "Regular Italic Apr 1 16, 03:58";
paths = (
{
closed = 1;
nodes = (
"19 13 OFFCURVE",
"92 -62 OFFCURVE",
"190 -62 CURVE SMOOTH",
"299 -62 OFFCURVE",
"417 30 OFFCURVE",
"515 131 CURVE",
"523 131 LINE",
"488 -2 OFFCURVE",
"528 -62 OFFCURVE",
"645 -62 CURVE SMOOTH",
"757 -62 OFFCURVE",
"859 -6 OFFCURVE",
"926 50 CURVE",
"907 69 OFFCURVE",
"901 109 OFFCURVE",
"901 145 CURVE SMOOTH",
"901 339 OFFCURVE",
"1075 546 OFFCURVE",
"1075 661 CURVE SMOOTH",
"1075 742 OFFCURVE",
"987 762 OFFCURVE",
"889 762 CURVE SMOOTH",
"796 762 OFFCURVE",
"714 745 OFFCURVE",
"630 710 CURVE",
"640 681 OFFCURVE",
"646 649 OFFCURVE",
"646 615 CURVE SMOOTH",
"646 497 OFFCURVE",
"574 263 OFFCURVE",
"485 263 CURVE SMOOTH",
"455 263 OFFCURVE",
"446 290 OFFCURVE",
"446 318 CURVE SMOOTH",
"446 408 OFFCURVE",
"527 551 OFFCURVE",
"527 639 CURVE SMOOTH",
"527 716 OFFCURVE",
"467 762 OFFCURVE",
"345 762 CURVE SMOOTH",
"258 762 OFFCURVE",
"160 738 OFFCURVE",
"82 691 CURVE",
"110 656 OFFCURVE",
"118 638 OFFCURVE",
"118 588 CURVE SMOOTH",
"118 412 OFFCURVE",
"19 230 OFFCURVE",
"19 113 CURVE SMOOTH"
);
}
);
width = 823;
}
);
unicode = 0055;
},
{
color = 1;
glyphname = V;
lastChange = "2016-04-03 04:18:10 +0000";
layers = (
{
background = {
paths = (
{
closed = 1;
nodes = (
"420 -86 OFFCURVE",
"543 -27 OFFCURVE",
"684 160 CURVE SMOOTH",
"791 302 OFFCURVE",
"893 542 OFFCURVE",
"894 646 CURVE SMOOTH",
"894 742 OFFCURVE",
"837 761 OFFCURVE",
"790 761 CURVE SMOOTH",
"743 761 OFFCURVE",
"703 743 OFFCURVE",
"657 707 CURVE",
"666 678 OFFCURVE",
"668 642 OFFCURVE",
"668 614 CURVE SMOOTH",
"667 435 OFFCURVE",
"561 212 OFFCURVE",
"460 212 CURVE SMOOTH",
"426 212 OFFCURVE",
"417 236 OFFCURVE",
"417 273 CURVE SMOOTH",
"417 380 OFFCURVE",
"510 520 OFFCURVE",
"511 624 CURVE SMOOTH",
"512 707 OFFCURVE",
"467 761 OFFCURVE",
"353 761 CURVE SMOOTH",
"271 761 OFFCURVE",
"206 736 OFFCURVE",
"120 689 CURVE",
"149 653 OFFCURVE",
"166 617 OFFCURVE",
"166 547 CURVE SMOOTH",
"164 388 OFFCURVE",
"77 225 OFFCURVE",
"76 115 CURVE SMOOTH",
"75 -14 OFFCURVE",
"160 -86 OFFCURVE",
"288 -86 CURVE SMOOTH"
);
}
);
};
layerId = "BE599D47-15C2-4DC8-BE97-05FFE6CA3179";
paths = (
{
closed = 1;
nodes = (
"416 -37 OFFCURVE",
"563 22 OFFCURVE",
"700 209 CURVE SMOOTH",
"814 364 OFFCURVE",
"910 594 OFFCURVE",
"910 701 CURVE SMOOTH",
"910 789 OFFCURVE",
"845 811 OFFCURVE",
"792 811 CURVE SMOOTH",
"743 811 OFFCURVE",
"699 793 OFFCURVE",
"651 757 CURVE",
"660 727 OFFCURVE",
"663 691 OFFCURVE",
"663 665 CURVE SMOOTH",
"663 463 OFFCURVE",
"524 213 OFFCURVE",
"421 213 CURVE SMOOTH",
"390 213 OFFCURVE",
"379 237 OFFCURVE",
"379 272 CURVE SMOOTH",
"379 388 OFFCURVE",
"505 551 OFFCURVE",
"505 679 CURVE SMOOTH",
"505 756 OFFCURVE",
"460 811 OFFCURVE",
"346 811 CURVE SMOOTH",
"268 811 OFFCURVE",
"204 785 OFFCURVE",
"120 738 CURVE",
"151 699 OFFCURVE",
"166 664 OFFCURVE",
"166 599 CURVE SMOOTH",
"166 438 OFFCURVE",
"76 280 OFFCURVE",
"76 156 CURVE SMOOTH",
"76 35 OFFCURVE",
"161 -37 OFFCURVE",
"294 -37 CURVE SMOOTH"
);
}
);
width = 809;
},
{
associatedMasterId = "BE599D47-15C2-4DC8-BE97-05FFE6CA3179";
background = {
paths = (
{
closed = 1;
nodes = (
"559 -86 OFFCURVE",
"737 -27 OFFCURVE",
"877 160 CURVE SMOOTH",
"982 302 OFFCURVE",
"1082 542 OFFCURVE",
"1082 646 CURVE SMOOTH",
"1082 742 OFFCURVE",
"998 761 OFFCURVE",
"935 761 CURVE SMOOTH",
"875 761 OFFCURVE",
"817 743 OFFCURVE",
"758 707 CURVE",
"768 678 OFFCURVE",
"770 642 OFFCURVE",
"770 614 CURVE SMOOTH",
"770 435 OFFCURVE",
"667 212 OFFCURVE",
"566 212 CURVE SMOOTH",
"532 212 OFFCURVE",
"522 236 OFFCURVE",
"522 273 CURVE SMOOTH",
"522 380 OFFCURVE",
"613 520 OFFCURVE",
"613 624 CURVE SMOOTH",
"613 707 OFFCURVE",
"555 761 OFFCURVE",
"411 761 CURVE SMOOTH",
"312 761 OFFCURVE",
"208 736 OFFCURVE",
"136 689 CURVE",
"165 653 OFFCURVE",
"182 617 OFFCURVE",
"182 547 CURVE SMOOTH",
"182 388 OFFCURVE",
"97 225 OFFCURVE",
"97 115 CURVE SMOOTH",
"97 -14 OFFCURVE",
"217 -86 OFFCURVE",
"396 -86 CURVE SMOOTH"
);
}
);
};
layerId = "414EA992-A274-4A55-BA35-EA39E363C0B1";
name = "Regular Italic Apr 1 16, 14:41";
paths = (
{
closed = 1;
nodes = (
"559 -86 OFFCURVE",
"737 -27 OFFCURVE",
"877 160 CURVE SMOOTH",
"982 302 OFFCURVE",
"1082 542 OFFCURVE",
"1082 646 CURVE SMOOTH",
"1082 742 OFFCURVE",
"998 761 OFFCURVE",
"935 761 CURVE SMOOTH",
"875 761 OFFCURVE",
"817 743 OFFCURVE",
"758 707 CURVE",
"768 678 OFFCURVE",
"770 642 OFFCURVE",
"770 614 CURVE SMOOTH",
"770 435 OFFCURVE",
"667 212 OFFCURVE",
"566 212 CURVE SMOOTH",
"532 212 OFFCURVE",
"522 236 OFFCURVE",
"522 273 CURVE SMOOTH",
"522 380 OFFCURVE",
"613 520 OFFCURVE",
"613 624 CURVE SMOOTH",
"613 707 OFFCURVE",
"555 761 OFFCURVE",
"411 761 CURVE SMOOTH",
"312 761 OFFCURVE",
"208 736 OFFCURVE",
"136 689 CURVE",
"165 653 OFFCURVE",
"182 617 OFFCURVE",
"182 547 CURVE SMOOTH",
"182 388 OFFCURVE",
"97 225 OFFCURVE",
"97 115 CURVE SMOOTH",
"97 -14 OFFCURVE",
"217 -86 OFFCURVE",
"396 -86 CURVE SMOOTH"
);
}
);
width = 991;
},
{
associatedMasterId = "BE599D47-15C2-4DC8-BE97-05FFE6CA3179";
background = {
paths = (
{
closed = 1;
nodes = (
"536 -86 OFFCURVE",
"714 -27 OFFCURVE",
"854 160 CURVE SMOOTH",
"960 302 OFFCURVE",
"1060 542 OFFCURVE",
"1060 646 CURVE SMOOTH",
"1060 742 OFFCURVE",
"976 761 OFFCURVE",
"912 761 CURVE SMOOTH",
"853 761 OFFCURVE",
"794 743 OFFCURVE",
"736 707 CURVE",
"745 678 OFFCURVE",
"748 642 OFFCURVE",
"748 614 CURVE SMOOTH",
"748 435 OFFCURVE",
"645 212 OFFCURVE",
"543 212 CURVE SMOOTH",
"510 212 OFFCURVE",
"499 236 OFFCURVE",
"499 273 CURVE SMOOTH",
"499 380 OFFCURVE",
"590 520 OFFCURVE",
"590 624 CURVE SMOOTH",
"590 707 OFFCURVE",
"533 761 OFFCURVE",
"388 761 CURVE SMOOTH",
"289 761 OFFCURVE",
"185 736 OFFCURVE",
"113 689 CURVE",
"142 653 OFFCURVE",
"160 617 OFFCURVE",
"160 547 CURVE SMOOTH",
"160 388 OFFCURVE",
"74 225 OFFCURVE",
"74 115 CURVE SMOOTH",
"74 -14 OFFCURVE",
"194 -86 OFFCURVE",
"374 -86 CURVE SMOOTH"
);
}
);
};
layerId = "D3CF1655-F892-4C70-942B-EA316EADB6D5";
name = "Regular Italic Apr 1 16, 14:44";
paths = (
{
closed = 1;
nodes = (
"435 -86 OFFCURVE",
"559 -27 OFFCURVE",
"700 160 CURVE SMOOTH",
"807 302 OFFCURVE",
"908 542 OFFCURVE",
"909 646 CURVE SMOOTH",
"910 742 OFFCURVE",
"853 761 OFFCURVE",
"806 761 CURVE SMOOTH",
"759 761 OFFCURVE",
"718 743 OFFCURVE",
"673 707 CURVE",
"682 678 OFFCURVE",
"684 642 OFFCURVE",
"684 614 CURVE SMOOTH",
"682 435 OFFCURVE",
"577 212 OFFCURVE",
"475 212 CURVE SMOOTH",
"442 212 OFFCURVE",
"432 236 OFFCURVE",
"432 273 CURVE SMOOTH",
"433 380 OFFCURVE",
"526 520 OFFCURVE",
"527 624 CURVE SMOOTH",
"527 707 OFFCURVE",
"483 761 OFFCURVE",
"368 761 CURVE SMOOTH",
"287 761 OFFCURVE",
"221 736 OFFCURVE",
"136 689 CURVE",
"165 653 OFFCURVE",
"182 617 OFFCURVE",
"181 547 CURVE SMOOTH",
"180 388 OFFCURVE",
"93 225 OFFCURVE",
"92 115 CURVE SMOOTH",
"91 -14 OFFCURVE",
"176 -86 OFFCURVE",
"304 -86 CURVE SMOOTH"
);
}
);
width = 817;
}
);
unicode = 0056;
},
{
color = 1;
glyphname = W;
lastChange = "2016-04-03 04:18:10 +0000";
layers = (
{
background = {
paths = (
{
closed = 1;
nodes = (
"387 -86 OFFCURVE",
"483 -35 OFFCURVE",
"561 79 CURVE",
"566 79 LINE",
"586 -45 OFFCURVE",
"637 -86 OFFCURVE",
"714 -86 CURVE SMOOTH",
"809 -86 OFFCURVE",
"918 -22 OFFCURVE",
"1037 161 CURVE SMOOTH",
"1141 321 OFFCURVE",
"1233 543 OFFCURVE",
"1235 666 CURVE SMOOTH",
"1236 755 OFFCURVE",
"1191 773 OFFCURVE",
"1140 773 CURVE SMOOTH",
"1077 773 OFFCURVE",
"1027 746 OFFCURVE",
"978 718 CURVE",
"987 687 OFFCURVE",
"988 651 OFFCURVE",
"988 623 CURVE SMOOTH",
"985 446 OFFCURVE",
"885 227 OFFCURVE",
"794 227 CURVE SMOOTH",
"767 227 OFFCURVE",
"759 246 OFFCURVE",
"760 279 CURVE SMOOTH",
"761 390 OFFCURVE",
"856 526 OFFCURVE",
"858 638 CURVE SMOOTH",
"860 715 OFFCURVE",
"817 773 OFFCURVE",
"727 773 CURVE SMOOTH",
"677 773 OFFCURVE",
"621 754 OFFCURVE",
"579 718 CURVE",
"587 687 OFFCURVE",
"589 651 OFFCURVE",
"588 623 CURVE SMOOTH",
"586 446 OFFCURVE",
"486 227 OFFCURVE",
"392 227 CURVE SMOOTH",
"373 227 OFFCURVE",
"360 237 OFFCURVE",
"360 276 CURVE SMOOTH",
"362 381 OFFCURVE",
"457 523 OFFCURVE",
"459 640 CURVE SMOOTH",
"461 718 OFFCURVE",
"421 773 OFFCURVE",
"318 773 CURVE SMOOTH",
"237 773 OFFCURVE",
"177 738 OFFCURVE",
"123 698 CURVE",
"147 670 OFFCURVE",
"169 626 OFFCURVE",
"167 565 CURVE SMOOTH",
"165 455 OFFCURVE",
"90 268 OFFCURVE",
"88 144 CURVE SMOOTH",
"86 46 OFFCURVE",
"129 -86 OFFCURVE",
"288 -86 CURVE SMOOTH"
);
}
);
};
layerId = "BE599D47-15C2-4DC8-BE97-05FFE6CA3179";
paths = (
{
closed = 1;
nodes = (
"387 -37 OFFCURVE",
"483 14 OFFCURVE",
"561 129 CURVE",
"566 129 LINE",
"586 5 OFFCURVE",
"637 -37 OFFCURVE",
"714 -37 CURVE SMOOTH",
"809 -37 OFFCURVE",
"918 27 OFFCURVE",
"1037 211 CURVE SMOOTH",
"1143 374 OFFCURVE",
"1233 592 OFFCURVE",
"1235 716 CURVE SMOOTH",
"1236 805 OFFCURVE",
"1191 822 OFFCURVE",
"1140 822 CURVE SMOOTH",
"1077 822 OFFCURVE",
"1027 796 OFFCURVE",
"978 767 CURVE",
"987 737 OFFCURVE",
"988 702 OFFCURVE",
"988 673 CURVE SMOOTH",
"983 483 OFFCURVE",
"881 259 OFFCURVE",
"785 259 CURVE SMOOTH",
"758 259 OFFCURVE",
"750 278 OFFCURVE",
"751 311 CURVE SMOOTH",
"754 426 OFFCURVE",
"857 571 OFFCURVE",
"858 688 CURVE SMOOTH",
"860 765 OFFCURVE",
"817 822 OFFCURVE",
"727 822 CURVE SMOOTH",
"677 822 OFFCURVE",
"621 804 OFFCURVE",
"579 767 CURVE",
"587 737 OFFCURVE",
"589 702 OFFCURVE",
"588 673 CURVE SMOOTH",
"583 483 OFFCURVE",
"481 259 OFFCURVE",
"384 259 CURVE SMOOTH",
"364 259 OFFCURVE",
"351 268 OFFCURVE",
"352 308 CURVE SMOOTH",
"354 418 OFFCURVE",
"457 567 OFFCURVE",
"459 690 CURVE SMOOTH",
"461 767 OFFCURVE",
"421 822 OFFCURVE",
"318 822 CURVE SMOOTH",
"237 822 OFFCURVE",
"177 788 OFFCURVE",
"123 748 CURVE",
"146 721 OFFCURVE",
"169 678 OFFCURVE",
"167 614 CURVE SMOOTH",
"165 501 OFFCURVE",
"90 316 OFFCURVE",
"88 193 CURVE SMOOTH",
"86 95 OFFCURVE",
"129 -37 OFFCURVE",
"288 -37 CURVE SMOOTH"
);
}
);
width = 1134;
},
{
associatedMasterId = "BE599D47-15C2-4DC8-BE97-05FFE6CA3179";
background = {
paths = (
{
closed = 1;
nodes = (
"535 -86 OFFCURVE",
"654 -45 OFFCURVE",
"754 79 CURVE",
"759 79 LINE",
"759 -50 OFFCURVE",
"859 -86 OFFCURVE",
"964 -86 CURVE SMOOTH",
"1103 -86 OFFCURVE",
"1258 -23 OFFCURVE",
"1390 163 CURVE SMOOTH",
"1497 316 OFFCURVE",
"1585 549 OFFCURVE",
"1585 649 CURVE SMOOTH",
"1585 755 OFFCURVE",
"1487 773 OFFCURVE",
"1413 773 CURVE SMOOTH",
"1338 773 OFFCURVE",
"1279 754 OFFCURVE",
"1216 718 CURVE",
"1226 687 OFFCURVE",
"1228 651 OFFCURVE",
"1228 623 CURVE SMOOTH",
"1228 446 OFFCURVE",
"1132 227 OFFCURVE",
"1041 227 CURVE SMOOTH",
"1014 227 OFFCURVE",
"1006 246 OFFCURVE",
"1006 279 CURVE SMOOTH",
"1006 388 OFFCURVE",
"1098 532 OFFCURVE",
"1098 633 CURVE SMOOTH",
"1098 718 OFFCURVE",
"1032 773 OFFCURVE",
"908 773 CURVE SMOOTH",
"837 773 OFFCURVE",
"770 754 OFFCURVE",
"706 718 CURVE",
"715 687 OFFCURVE",
"718 651 OFFCURVE",
"718 623 CURVE SMOOTH",
"718 446 OFFCURVE",
"622 227 OFFCURVE",
"528 227 CURVE SMOOTH",
"509 227 OFFCURVE",
"495 237 OFFCURVE",
"495 276 CURVE SMOOTH",
"495 378 OFFCURVE",
"588 531 OFFCURVE",
"588 633 CURVE SMOOTH",
"588 718 OFFCURVE",
"523 773 OFFCURVE",
"381 773 CURVE SMOOTH",
"280 773 OFFCURVE",
"199 745 OFFCURVE",
"140 698 CURVE",
"164 670 OFFCURVE",
"186 626 OFFCURVE",
"186 565 CURVE SMOOTH",
"186 451 OFFCURVE",
"114 274 OFFCURVE",
"114 137 CURVE SMOOTH",
"114 11 OFFCURVE",
"175 -86 OFFCURVE",
"392 -86 CURVE SMOOTH"
);
}
);
};
layerId = "8521A39D-13AC-426D-802D-5981BAAA1653";
name = "Regular Italic Apr 1 16, 14:54";
paths = (
{
closed = 1;
nodes = (
"535 -86 OFFCURVE",
"654 -45 OFFCURVE",
"754 79 CURVE",
"759 79 LINE",
"759 -50 OFFCURVE",
"859 -86 OFFCURVE",
"964 -86 CURVE SMOOTH",
"1103 -86 OFFCURVE",
"1258 -23 OFFCURVE",
"1390 163 CURVE SMOOTH",
"1497 316 OFFCURVE",
"1585 549 OFFCURVE",
"1585 649 CURVE SMOOTH",
"1585 755 OFFCURVE",
"1487 773 OFFCURVE",
"1413 773 CURVE SMOOTH",
"1338 773 OFFCURVE",
"1279 754 OFFCURVE",
"1216 718 CURVE",
"1226 687 OFFCURVE",
"1228 651 OFFCURVE",
"1228 623 CURVE SMOOTH",
"1228 446 OFFCURVE",
"1132 227 OFFCURVE",
"1041 227 CURVE SMOOTH",
"1014 227 OFFCURVE",
"1006 246 OFFCURVE",
"1006 279 CURVE SMOOTH",
"1006 388 OFFCURVE",
"1098 532 OFFCURVE",
"1098 633 CURVE SMOOTH",
"1098 718 OFFCURVE",
"1032 773 OFFCURVE",
"908 773 CURVE SMOOTH",
"837 773 OFFCURVE",
"770 754 OFFCURVE",
"706 718 CURVE",
"715 687 OFFCURVE",
"718 651 OFFCURVE",
"718 623 CURVE SMOOTH",
"718 446 OFFCURVE",
"622 227 OFFCURVE",
"528 227 CURVE SMOOTH",
"509 227 OFFCURVE",
"495 237 OFFCURVE",
"495 276 CURVE SMOOTH",
"495 378 OFFCURVE",
"588 531 OFFCURVE",
"588 633 CURVE SMOOTH",
"588 718 OFFCURVE",
"523 773 OFFCURVE",
"381 773 CURVE SMOOTH",
"280 773 OFFCURVE",
"199 745 OFFCURVE",
"140 698 CURVE",
"164 670 OFFCURVE",
"186 626 OFFCURVE",
"186 565 CURVE SMOOTH",
"186 451 OFFCURVE",
"114 274 OFFCURVE",
"114 137 CURVE SMOOTH",
"114 11 OFFCURVE",
"175 -86 OFFCURVE",
"392 -86 CURVE SMOOTH"
);
}
);
width = 1496;
}
);
unicode = 0057;
},
{
color = 1;
glyphname = X;
lastChange = "2016-04-03 04:18:10 +0000";
layers = (
{
background = {
paths = (
{
closed = 1;
nodes = (
"-2 -22 OFFCURVE",
"50 -85 OFFCURVE",
"121 -85 CURVE SMOOTH",
"206 -85 OFFCURVE",
"320 29 OFFCURVE",
"431 170 CURVE",
"367 230 LINE",
"473 25 OFFCURVE",
"499 -86 OFFCURVE",
"616 -86 CURVE SMOOTH",
"677 -86 OFFCURVE",
"750 -19 OFFCURVE",
"782 91 CURVE",
"718 107 OFFCURVE",
"605 248 OFFCURVE",
"566 371 CURVE",
"559 269 LINE",
"707 387 OFFCURVE",
"843 553 OFFCURVE",
"843 658 CURVE SMOOTH",
"843 715 OFFCURVE",
"779 772 OFFCURVE",
"647 782 CURVE",
"633 692 OFFCURVE",
"573 596 OFFCURVE",
"481 499 CURVE",
"511 482 LINE",
"457 662 OFFCURVE",
"393 773 OFFCURVE",
"264 773 CURVE SMOOTH",
"173 773 OFFCURVE",
"120 705 OFFCURVE",
"101 606 CURVE",
"168 598 OFFCURVE",
"232 539 OFFCURVE",
"300 328 CURVE",
"307 367 LINE",
"217 265 OFFCURVE",
"113 183 OFFCURVE",
"-18 126 CURVE"
);
}
);
};
layerId = "BE599D47-15C2-4DC8-BE97-05FFE6CA3179";
paths = (
{
closed = 1;
nodes = (
"-22 27 OFFCURVE",
"26 -36 OFFCURVE",
"97 -36 CURVE SMOOTH",
"183 -36 OFFCURVE",
"303 78 OFFCURVE",
"422 220 CURVE",
"360 280 LINE",
"455 74 OFFCURVE",
"475 -37 OFFCURVE",
"592 -37 CURVE SMOOTH",
"653 -37 OFFCURVE",
"730 30 OFFCURVE",
"769 141 CURVE",
"706 157 OFFCURVE",
"599 297 OFFCURVE",
"567 420 CURVE",
"555 319 LINE",
"710 436 OFFCURVE",
"855 602 OFFCURVE",
"861 707 CURVE SMOOTH",
"864 765 OFFCURVE",
"803 821 OFFCURVE",
"671 832 CURVE",
"652 742 OFFCURVE",
"586 646 OFFCURVE",
"490 548 CURVE",
"519 531 LINE",
"475 711 OFFCURVE",
"417 822 OFFCURVE",
"288 822 CURVE SMOOTH",
"197 822 OFFCURVE",
"140 754 OFFCURVE",
"116 655 CURVE",
"181 648 OFFCURVE",
"242 588 OFFCURVE",
"299 377 CURVE",
"308 416 LINE",
"213 315 OFFCURVE",
"105 233 OFFCURVE",
"-30 176 CURVE"
);
}
);
width = 796;
},
{
associatedMasterId = "BE599D47-15C2-4DC8-BE97-05FFE6CA3179";
layerId = "3A85FAF1-BAD3-4458-99F7-140465AA0BC5";
name = "Regular Italic Apr 1 16, 15:15";
paths = (
{
closed = 1;
nodes = (
"22 -13 OFFCURVE",
"88 -91 OFFCURVE",
"173 -91 CURVE SMOOTH",
"275 -91 OFFCURVE",
"395 18 OFFCURVE",
"522 157 CURVE",
"439 154 LINE",
"533 -3 OFFCURVE",
"559 -86 OFFCURVE",
"658 -86 CURVE SMOOTH",
"762 -86 OFFCURVE",
"875 4 OFFCURVE",
"924 140 CURVE",
"825 163 OFFCURVE",
"758 260 OFFCURVE",
"722 357 CURVE",
"728 288 LINE",
"869 392 OFFCURVE",
"990 557 OFFCURVE",
"990 649 CURVE SMOOTH",
"990 719 OFFCURVE",
"917 769 OFFCURVE",
"747 783 CURVE",
"735 702 OFFCURVE",
"670 614 OFFCURVE",
"568 527 CURVE",
"622 503 LINE",
"561 670 OFFCURVE",
"487 773 OFFCURVE",
"359 773 CURVE SMOOTH",
"230 773 OFFCURVE",
"133 669 OFFCURVE",
"110 559 CURVE",
"170 552 OFFCURVE",
"248 499 OFFCURVE",
"328 311 CURVE",
"346 371 LINE",
"254 278 OFFCURVE",
"131 201 OFFCURVE",
"2 148 CURVE"
);
}
);
width = 949;
},
{
associatedMasterId = "BE599D47-15C2-4DC8-BE97-05FFE6CA3179";
background = {
paths = (
{
closed = 1;
nodes = (
"21 -16 OFFCURVE",
"74 -86 OFFCURVE",
"145 -86 CURVE SMOOTH",
"233 -86 OFFCURVE",
"337 25 OFFCURVE",
"449 166 CURVE",
"392 217 LINE",
"497 15 OFFCURVE",
"525 -86 OFFCURVE",
"640 -86 CURVE SMOOTH",
"704 -86 OFFCURVE",
"774 -18 OFFCURVE",
"808 95 CURVE",
"742 112 OFFCURVE",
"632 248 OFFCURVE",
"593 370 CURVE",
"587 271 LINE",
"734 388 OFFCURVE",
"862 568 OFFCURVE",
"862 671 CURVE SMOOTH",
"862 730 OFFCURVE",
"805 772 OFFCURVE",
"670 782 CURVE",
"655 693 OFFCURVE",
"595 598 OFFCURVE",
"503 501 CURVE",
"525 483 LINE",
"471 662 OFFCURVE",
"406 773 OFFCURVE",
"286 773 CURVE SMOOTH",
"192 773 OFFCURVE",
"135 705 OFFCURVE",
"117 605 CURVE",
"182 598 OFFCURVE",
"247 538 OFFCURVE",
"316 326 CURVE",
"331 373 LINE",
"241 272 OFFCURVE",
"136 190 OFFCURVE",
"4 134 CURVE"
);
}
);
};
layerId = "85B62FCE-BB9B-4BF8-8081-82AA02A29275";
name = "Regular Italic Apr 1 16, 15:29";
paths = (
{
closed = 1;
nodes = (
"21 -22 OFFCURVE",
"72 -85 OFFCURVE",
"143 -85 CURVE SMOOTH",
"229 -85 OFFCURVE",
"343 29 OFFCURVE",
"454 170 CURVE",
"389 230 LINE",
"495 25 OFFCURVE",
"522 -86 OFFCURVE",
"638 -86 CURVE SMOOTH",
"699 -86 OFFCURVE",
"772 -19 OFFCURVE",
"805 91 CURVE",
"741 107 OFFCURVE",
"627 248 OFFCURVE",
"588 371 CURVE",
"582 269 LINE",
"730 387 OFFCURVE",
"865 553 OFFCURVE",
"865 658 CURVE SMOOTH",
"865 715 OFFCURVE",
"801 772 OFFCURVE",
"670 782 CURVE",
"655 692 OFFCURVE",
"595 596 OFFCURVE",
"503 499 CURVE",
"533 482 LINE",
"479 662 OFFCURVE",
"415 773 OFFCURVE",
"287 773 CURVE SMOOTH",
"195 773 OFFCURVE",
"142 705 OFFCURVE",
"124 606 CURVE",
"190 598 OFFCURVE",
"254 539 OFFCURVE",
"322 328 CURVE",
"329 367 LINE",
"240 265 OFFCURVE",
"136 183 OFFCURVE",
"4 126 CURVE"
);
}
);
width = 844;
},
{
associatedMasterId = "BE599D47-15C2-4DC8-BE97-05FFE6CA3179";
background = {
paths = (
{
closed = 1;
nodes = (
"-5 -22 OFFCURVE",
"42 -85 OFFCURVE",
"114 -85 CURVE SMOOTH",
"200 -85 OFFCURVE",
"320 29 OFFCURVE",
"438 170 CURVE",
"376 230 LINE",
"472 25 OFFCURVE",
"492 -86 OFFCURVE",
"609 -86 CURVE SMOOTH",
"670 -86 OFFCURVE",
"746 -19 OFFCURVE",
"785 91 CURVE",
"722 107 OFFCURVE",
"615 248 OFFCURVE",
"582 371 CURVE",
"571 269 LINE",
"726 387 OFFCURVE",
"869 553 OFFCURVE",
"875 658 CURVE SMOOTH",
"878 715 OFFCURVE",
"817 772 OFFCURVE",
"686 782 CURVE",
"667 692 OFFCURVE",
"602 596 OFFCURVE",
"505 499 CURVE",
"534 482 LINE",
"490 662 OFFCURVE",
"431 773 OFFCURVE",
"303 773 CURVE SMOOTH",
"211 773 OFFCURVE",
"154 705 OFFCURVE",
"131 606 CURVE",
"197 598 OFFCURVE",
"257 539 OFFCURVE",
"315 328 CURVE",
"324 367 LINE",
"229 265 OFFCURVE",
"121 183 OFFCURVE",
"-14 126 CURVE"
);
}
);
};
layerId = "36F222CD-0DF5-4D8D-BE50-C09461F6EEE8";
name = "Regular Italic Apr 1 16, 15:30";
paths = (
{
closed = 1;
nodes = (
"14 -22 OFFCURVE",
"66 -85 OFFCURVE",
"137 -85 CURVE SMOOTH",
"222 -85 OFFCURVE",
"336 29 OFFCURVE",
"447 170 CURVE",
"383 230 LINE",
"489 25 OFFCURVE",
"515 -86 OFFCURVE",
"632 -86 CURVE SMOOTH",
"693 -86 OFFCURVE",
"765 -19 OFFCURVE",
"798 91 CURVE",
"734 107 OFFCURVE",
"621 248 OFFCURVE",
"582 371 CURVE",
"575 269 LINE",
"723 387 OFFCURVE",
"859 553 OFFCURVE",
"859 658 CURVE SMOOTH",
"859 715 OFFCURVE",
"795 772 OFFCURVE",
"663 782 CURVE",
"649 692 OFFCURVE",
"589 596 OFFCURVE",
"497 499 CURVE",
"527 482 LINE",
"473 662 OFFCURVE",
"409 773 OFFCURVE",
"280 773 CURVE SMOOTH",
"189 773 OFFCURVE",
"136 705 OFFCURVE",
"117 606 CURVE",
"184 598 OFFCURVE",
"248 539 OFFCURVE",
"316 328 CURVE",
"323 367 LINE",
"233 265 OFFCURVE",
"129 183 OFFCURVE",
"-2 126 CURVE"
);
}
);
width = 823;
}
);
unicode = 0058;
},
{
color = 1;
glyphname = Y;
lastChange = "2016-04-03 04:18:10 +0000";
layers = (
{
background = {
paths = (
{
closed = 1;
nodes = (
"387 -86 OFFCURVE",
"446 -54 OFFCURVE",
"500 -16 CURVE",
"494 2 OFFCURVE",
"491 22 OFFCURVE",
"491 48 CURVE SMOOTH",
"491 277 OFFCURVE",
"697 553 OFFCURVE",
"689 695 CURVE SMOOTH",
"686 757 OFFCURVE",
"645 773 OFFCURVE",
"586 773 CURVE SMOOTH",
"513 773 OFFCURVE",
"426 750 OFFCURVE",
"349 705 CURVE",
"368 670 OFFCURVE",
"372 634 OFFCURVE",
"372 603 CURVE SMOOTH",
"372 376 OFFCURVE",
"212 213 OFFCURVE",
"209 26 CURVE SMOOTH",
"208 -47 OFFCURVE",
"259 -86 OFFCURVE",
"327 -86 CURVE SMOOTH"
);
}
);
};
layerId = "BE599D47-15C2-4DC8-BE97-05FFE6CA3179";
paths = (
{
closed = 1;
nodes = (
"277 329 OFFCURVE",
"209 161 OFFCURVE",
"209 89 CURVE SMOOTH",
"209 11 OFFCURVE",
"256 -37 OFFCURVE",
"315 -37 CURVE SMOOTH",
"388 -37 OFFCURVE",
"432 -16 OFFCURVE",
"500 34 CURVE",
"473 137 OFFCURVE",
"513 259 OFFCURVE",
"578 420 CURVE",
"459 238 LINE",
"655 380 OFFCURVE",
"839 581 OFFCURVE",
"846 707 CURVE SMOOTH",
"849 765 OFFCURVE",
"788 821 OFFCURVE",
"657 832 CURVE",
"635 729 OFFCURVE",
"561 619 OFFCURVE",
"451 508 CURVE",
"480 491 LINE",
"441 696 OFFCURVE",
"389 822 OFFCURVE",
"274 822 CURVE SMOOTH",
"182 822 OFFCURVE",
"125 754 OFFCURVE",
"101 655 CURVE",
"168 645 OFFCURVE",
"228 555 OFFCURVE",
"287 238 CURVE",
"345 475 LINE"
);
}
);
width = 721;
},
{
associatedMasterId = "BE599D47-15C2-4DC8-BE97-05FFE6CA3179";
background = {
paths = (
{
closed = 1;
nodes = (
"-6 -22 OFFCURVE",
"42 -85 OFFCURVE",
"113 -85 CURVE SMOOTH",
"199 -85 OFFCURVE",
"319 29 OFFCURVE",
"438 170 CURVE",
"376 230 LINE",
"471 25 OFFCURVE",
"491 -86 OFFCURVE",
"608 -86 CURVE SMOOTH",
"669 -86 OFFCURVE",
"745 -19 OFFCURVE",
"785 91 CURVE",
"722 107 OFFCURVE",
"615 248 OFFCURVE",
"583 371 CURVE",
"571 269 LINE",
"726 387 OFFCURVE",
"871 553 OFFCURVE",
"877 658 CURVE SMOOTH",
"880 715 OFFCURVE",
"819 772 OFFCURVE",
"687 782 CURVE",
"668 692 OFFCURVE",
"602 596 OFFCURVE",
"506 499 CURVE",
"535 482 LINE",
"491 662 OFFCURVE",
"433 773 OFFCURVE",
"304 773 CURVE SMOOTH",
"213 773 OFFCURVE",
"156 705 OFFCURVE",
"132 606 CURVE",
"197 598 OFFCURVE",
"258 539 OFFCURVE",
"315 328 CURVE",
"324 367 LINE",
"229 265 OFFCURVE",
"121 183 OFFCURVE",
"-14 126 CURVE"
);
}
);
};
layerId = "41728D36-81EB-4D97-B4C8-AC1AC54AC472";
name = "Regular Italic Apr 2 16, 00:34";
paths = (
{
closed = 1;
nodes = (
"-6 -22 OFFCURVE",
"42 -85 OFFCURVE",
"113 -85 CURVE SMOOTH",
"199 -85 OFFCURVE",
"319 29 OFFCURVE",
"438 170 CURVE",
"376 230 LINE",
"471 25 OFFCURVE",
"491 -86 OFFCURVE",
"608 -86 CURVE SMOOTH",
"669 -86 OFFCURVE",
"745 -19 OFFCURVE",
"785 91 CURVE",
"722 107 OFFCURVE",
"615 248 OFFCURVE",
"583 371 CURVE",
"571 269 LINE",
"726 387 OFFCURVE",
"871 553 OFFCURVE",
"877 658 CURVE SMOOTH",
"880 715 OFFCURVE",
"819 772 OFFCURVE",
"687 782 CURVE",
"668 692 OFFCURVE",
"602 596 OFFCURVE",
"506 499 CURVE",
"535 482 LINE",
"491 662 OFFCURVE",
"433 773 OFFCURVE",
"304 773 CURVE SMOOTH",
"213 773 OFFCURVE",
"156 705 OFFCURVE",
"132 606 CURVE",
"197 598 OFFCURVE",
"258 539 OFFCURVE",
"315 328 CURVE",
"324 367 LINE",
"229 265 OFFCURVE",
"121 183 OFFCURVE",
"-14 126 CURVE"
);
}
);
width = 823;
},
{
associatedMasterId = "BE599D47-15C2-4DC8-BE97-05FFE6CA3179";
background = {
paths = (
{
closed = 1;
nodes = (
"418 -86 OFFCURVE",
"477 -54 OFFCURVE",
"531 -16 CURVE",
"525 2 OFFCURVE",
"522 22 OFFCURVE",
"522 48 CURVE SMOOTH",
"522 277 OFFCURVE",
"727 553 OFFCURVE",
"720 695 CURVE SMOOTH",
"717 757 OFFCURVE",
"676 773 OFFCURVE",
"616 773 CURVE SMOOTH",
"543 773 OFFCURVE",
"456 750 OFFCURVE",
"380 705 CURVE",
"399 670 OFFCURVE",
"403 634 OFFCURVE",
"403 603 CURVE SMOOTH",
"403 376 OFFCURVE",
"242 213 OFFCURVE",
"240 26 CURVE SMOOTH",
"239 -47 OFFCURVE",
"289 -86 OFFCURVE",
"358 -86 CURVE SMOOTH"
);
}
);
};
layerId = "585D9451-0EA8-4960-9FD3-231B4812822F";
name = "Regular Italic Apr 2 16, 00:36";
paths = (
{
closed = 1;
nodes = (
"308 280 OFFCURVE",
"240 112 OFFCURVE",
"240 40 CURVE SMOOTH",
"240 -38 OFFCURVE",
"286 -86 OFFCURVE",
"345 -86 CURVE SMOOTH",
"419 -86 OFFCURVE",
"463 -66 OFFCURVE",
"531 -16 CURVE",
"503 88 OFFCURVE",
"543 209 OFFCURVE",
"608 371 CURVE",
"490 189 LINE",
"686 330 OFFCURVE",
"869 531 OFFCURVE",
"877 658 CURVE SMOOTH",
"880 715 OFFCURVE",
"819 772 OFFCURVE",
"687 782 CURVE",
"666 679 OFFCURVE",
"591 570 OFFCURVE",
"482 459 CURVE",
"511 442 LINE",
"471 646 OFFCURVE",
"419 773 OFFCURVE",
"304 773 CURVE SMOOTH",
"213 773 OFFCURVE",
"156 705 OFFCURVE",
"132 606 CURVE",
"199 595 OFFCURVE",
"259 505 OFFCURVE",
"317 189 CURVE",
"376 426 LINE"
);
}
);
width = 823;
}
);
unicode = 0059;
},
